<?xml version="1.0" encoding="UTF-8" standalone="no"?>
<!-- Created with Inkscape (http://www.inkscape.org/) -->

<svg
   xmlns:dc="http://purl.org/dc/elements/1.1/"
   xmlns:cc="http://creativecommons.org/ns#"
   xmlns:rdf="http://www.w3.org/1999/02/22-rdf-syntax-ns#"
   xmlns:svg="http://www.w3.org/2000/svg"
   xmlns="http://www.w3.org/2000/svg"
   xmlns:sodipodi="http://sodipodi.sourceforge.net/DTD/sodipodi-0.dtd"
   xmlns:inkscape="http://www.inkscape.org/namespaces/inkscape"
   id="svg2"
   version="1.1"
   inkscape:version="0.48.4 r9939"
   width="450.07999"
   height="289.20407"
   xml:space="preserve"
   sodipodi:docname="experiment_hematocrite.svg"><metadata
     id="metadata8"><rdf:RDF><cc:Work
         rdf:about=""><dc:format>image/svg+xml</dc:format><dc:type
           rdf:resource="http://purl.org/dc/dcmitype/StillImage" /><dc:title></dc:title></cc:Work></rdf:RDF></metadata><defs
     id="defs6"><clipPath
       clipPathUnits="userSpaceOnUse"
       id="clipPath356"><path
         d="m 120.72,238.086 343.998,0 0,-155.999 -343.998,0 0,155.999"
         id="path358"
         inkscape:connector-curvature="0" /></clipPath><clipPath
       clipPathUnits="userSpaceOnUse"
       id="clipPath484"><path
         d="m 120.72,238.086 343.998,0 0,-155.999 -343.998,0 0,155.999"
         id="path486"
         inkscape:connector-curvature="0" /></clipPath></defs><sodipodi:namedview
     pagecolor="#ffffff"
     bordercolor="#666666"
     borderopacity="1"
     objecttolerance="10"
     gridtolerance="10"
     guidetolerance="10"
     inkscape:pageopacity="0"
     inkscape:pageshadow="2"
     inkscape:window-width="1855"
     inkscape:window-height="1056"
     id="namedview4"
     showgrid="false"
     fit-margin-top="10"
     fit-margin-left="10"
     fit-margin-right="10"
     fit-margin-bottom="10"
     inkscape:zoom="1.3456127"
     inkscape:cx="-24.649751"
     inkscape:cy="57.718422"
     inkscape:window-x="65"
     inkscape:window-y="24"
     inkscape:window-maximized="1"
     inkscape:current-layer="g10" /><g
     id="g10"
     inkscape:groupmode="layer"
     inkscape:label="1-s2.0-S0022519307004778-main"
     transform="matrix(1.25,0,0,-1.25,-140.9,382.87798)"><path
       d="m 149.114,108.333 0,111.401 141.313,0 0,-111.401 -141.313,0"
       style="fill:none;stroke:#ffffff;stroke-width:0.176;stroke-linecap:butt;stroke-linejoin:round;stroke-miterlimit:10;stroke-opacity:1;stroke-dasharray:none"
       id="path218"
       inkscape:connector-curvature="0" /><path
       d="m 149.114,219.734 141.313,0 m -141.313,-111.401 141.313,0 0,111.401 m -141.313,-111.401 0,111.401 m 0,-111.401 141.313,0 m -141.313,0 0,111.401 m 0,-111.401 0,1.424 m 0,109.977 0,-1.396"
       style="fill:none;stroke:#000000;stroke-width:0.5;stroke-linecap:butt;stroke-linejoin:round;stroke-miterlimit:10;stroke-opacity:1;stroke-dasharray:none"
       id="path220"
       inkscape:connector-curvature="0" /><text
       transform="matrix(1,0,0,-1,146.9466,96.6385)"
       id="text222"><tspan
         style="font-size:7.99189997px;font-variant:normal;font-weight:normal;writing-mode:lr-tb;fill:#000000;fill-opacity:1;fill-rule:nonzero;stroke:none;font-family:ArialMT;-inkscape-font-specification:ArialMT"
         x="0"
         y="0"
         id="tspan224">0</tspan></text>
<path
       d="m 163.82,108.333 0,1.424 m 0,109.977 0,-1.396"
       style="fill:none;stroke:#000000;stroke-width:0.5;stroke-linecap:butt;stroke-linejoin:round;stroke-miterlimit:10;stroke-opacity:1;stroke-dasharray:none"
       id="path226"
       inkscape:connector-curvature="0" /><text
       transform="matrix(1,0,0,-1,161.6564,96.6385)"
       id="text228"><tspan
         style="font-size:7.99189997px;font-variant:normal;font-weight:normal;writing-mode:lr-tb;fill:#000000;fill-opacity:1;fill-rule:nonzero;stroke:none;font-family:ArialMT;-inkscape-font-specification:ArialMT"
         x="0"
         y="0"
         id="tspan230">5</tspan></text>
<path
       d="m 178.553,108.333 0,1.424 m 0,109.977 0,-1.396"
       style="fill:none;stroke:#000000;stroke-width:0.5;stroke-linecap:butt;stroke-linejoin:round;stroke-miterlimit:10;stroke-opacity:1;stroke-dasharray:none"
       id="path232"
       inkscape:connector-curvature="0" /><text
       transform="matrix(1,0,0,-1,174.2409,96.6385)"
       id="text234"><tspan
         style="font-size:7.99189997px;font-variant:normal;font-weight:normal;writing-mode:lr-tb;fill:#000000;fill-opacity:1;fill-rule:nonzero;stroke:none;font-family:ArialMT;-inkscape-font-specification:ArialMT"
         x="0 4.4434962"
         y="0"
         sodipodi:role="line"
         id="tspan236">10</tspan></text>
<path
       d="m 193.257,108.333 0,1.424 m 0,109.977 0,-1.396"
       style="fill:none;stroke:#000000;stroke-width:0.5;stroke-linecap:butt;stroke-linejoin:round;stroke-miterlimit:10;stroke-opacity:1;stroke-dasharray:none"
       id="path238"
       inkscape:connector-curvature="0" /><text
       transform="matrix(1,0,0,-1,188.9503,96.6385)"
       id="text240"><tspan
         style="font-size:7.99189997px;font-variant:normal;font-weight:normal;writing-mode:lr-tb;fill:#000000;fill-opacity:1;fill-rule:nonzero;stroke:none;font-family:ArialMT;-inkscape-font-specification:ArialMT"
         x="0 4.4434962"
         y="0"
         sodipodi:role="line"
         id="tspan242">15</tspan></text>
<path
       d="m 207.991,108.333 0,1.424 m 0,109.977 0,-1.396"
       style="fill:none;stroke:#000000;stroke-width:0.5;stroke-linecap:butt;stroke-linejoin:round;stroke-miterlimit:10;stroke-opacity:1;stroke-dasharray:none"
       id="path244"
       inkscape:connector-curvature="0" /><text
       transform="matrix(1,0,0,-1,203.6606,96.6385)"
       id="text246"><tspan
         style="font-size:7.99189997px;font-variant:normal;font-weight:normal;writing-mode:lr-tb;fill:#000000;fill-opacity:1;fill-rule:nonzero;stroke:none;font-family:ArialMT;-inkscape-font-specification:ArialMT"
         x="0 4.4434962"
         y="0"
         sodipodi:role="line"
         id="tspan248">20</tspan></text>
<path
       d="m 222.696,108.333 0,1.424 m 0,109.977 0,-1.396"
       style="fill:none;stroke:#000000;stroke-width:0.5;stroke-linecap:butt;stroke-linejoin:round;stroke-miterlimit:10;stroke-opacity:1;stroke-dasharray:none"
       id="path250"
       inkscape:connector-curvature="0" /><text
       transform="matrix(1,0,0,-1,218.3701,96.6385)"
       id="text252"><tspan
         style="font-size:7.99189997px;font-variant:normal;font-weight:normal;writing-mode:lr-tb;fill:#000000;fill-opacity:1;fill-rule:nonzero;stroke:none;font-family:ArialMT;-inkscape-font-specification:ArialMT"
         x="0 4.4434962"
         y="0"
         sodipodi:role="line"
         id="tspan254">25</tspan></text>
<path
       d="m 237.428,108.333 0,1.424 m 0,109.977 0,-1.396"
       style="fill:none;stroke:#000000;stroke-width:0.5;stroke-linecap:butt;stroke-linejoin:round;stroke-miterlimit:10;stroke-opacity:1;stroke-dasharray:none"
       id="path256"
       inkscape:connector-curvature="0" /><text
       transform="matrix(1,0,0,-1,233.0806,96.6385)"
       id="text258"><tspan
         style="font-size:7.99189997px;font-variant:normal;font-weight:normal;writing-mode:lr-tb;fill:#000000;fill-opacity:1;fill-rule:nonzero;stroke:none;font-family:ArialMT;-inkscape-font-specification:ArialMT"
         x="0 4.4434962"
         y="0"
         sodipodi:role="line"
         id="tspan260">30</tspan></text>
<path
       d="m 252.133,108.333 0,1.424 m 0,109.977 0,-1.396"
       style="fill:none;stroke:#000000;stroke-width:0.5;stroke-linecap:butt;stroke-linejoin:round;stroke-miterlimit:10;stroke-opacity:1;stroke-dasharray:none"
       id="path262"
       inkscape:connector-curvature="0" /><text
       transform="matrix(1,0,0,-1,247.7895,96.6385)"
       id="text264"><tspan
         style="font-size:7.99189997px;font-variant:normal;font-weight:normal;writing-mode:lr-tb;fill:#000000;fill-opacity:1;fill-rule:nonzero;stroke:none;font-family:ArialMT;-inkscape-font-specification:ArialMT"
         x="0 4.4434962"
         y="0"
         sodipodi:role="line"
         id="tspan266">35</tspan></text>
<path
       d="m 266.866,108.333 0,1.424 m 0,109.977 0,-1.396"
       style="fill:none;stroke:#000000;stroke-width:0.5;stroke-linecap:butt;stroke-linejoin:round;stroke-miterlimit:10;stroke-opacity:1;stroke-dasharray:none"
       id="path268"
       inkscape:connector-curvature="0" /><text
       transform="matrix(1,0,0,-1,262.5004,96.6385)"
       id="text270"><tspan
         style="font-size:7.99189997px;font-variant:normal;font-weight:normal;writing-mode:lr-tb;fill:#000000;fill-opacity:1;fill-rule:nonzero;stroke:none;font-family:ArialMT;-inkscape-font-specification:ArialMT"
         x="0 4.4434962"
         y="0"
         sodipodi:role="line"
         id="tspan272">40</tspan></text>
<path
       d="m 281.572,108.333 0,1.424 m 0,109.977 0,-1.396"
       style="fill:none;stroke:#000000;stroke-width:0.5;stroke-linecap:butt;stroke-linejoin:round;stroke-miterlimit:10;stroke-opacity:1;stroke-dasharray:none"
       id="path274"
       inkscape:connector-curvature="0" /><text
       transform="matrix(1,0,0,-1,277.2094,96.6385)"
       id="text276"><tspan
         style="font-size:7.99189997px;font-variant:normal;font-weight:normal;writing-mode:lr-tb;fill:#000000;fill-opacity:1;fill-rule:nonzero;stroke:none;font-family:ArialMT;-inkscape-font-specification:ArialMT"
         x="0 4.4434962"
         y="0"
         sodipodi:role="line"
         id="tspan278">45</tspan></text>
<path
       d="m 149.114,108.333 1.397,0 m 139.916,0 -1.423,0"
       style="fill:none;stroke:#000000;stroke-width:0.5;stroke-linecap:butt;stroke-linejoin:round;stroke-miterlimit:10;stroke-opacity:1;stroke-dasharray:none"
       id="path280"
       inkscape:connector-curvature="0" /><text
       transform="matrix(1,0,0,-1,135.6459,105.7434)"
       id="text282"><tspan
         style="font-size:7.99189997px;font-variant:normal;font-weight:normal;writing-mode:lr-tb;fill:#000000;fill-opacity:1;fill-rule:nonzero;stroke:none;font-family:ArialMT;-inkscape-font-specification:ArialMT"
         x="0 4.4434962"
         y="0"
         sodipodi:role="line"
         id="tspan284">15</tspan></text>
<path
       d="m 149.114,120.721 1.397,0 m 139.916,0 -1.423,0"
       style="fill:none;stroke:#000000;stroke-width:0.5;stroke-linecap:butt;stroke-linejoin:round;stroke-miterlimit:10;stroke-opacity:1;stroke-dasharray:none"
       id="path286"
       inkscape:connector-curvature="0" /><text
       transform="matrix(1,0,0,-1,135.6459,118.1213)"
       id="text288"><tspan
         style="font-size:7.99189997px;font-variant:normal;font-weight:normal;writing-mode:lr-tb;fill:#000000;fill-opacity:1;fill-rule:nonzero;stroke:none;font-family:ArialMT;-inkscape-font-specification:ArialMT"
         x="0 4.4434962"
         y="0"
         sodipodi:role="line"
         id="tspan290">20</tspan></text>
<path
       d="m 149.114,133.107 1.397,0 m 139.916,0 -1.423,0"
       style="fill:none;stroke:#000000;stroke-width:0.5;stroke-linecap:butt;stroke-linejoin:round;stroke-miterlimit:10;stroke-opacity:1;stroke-dasharray:none"
       id="path292"
       inkscape:connector-curvature="0" /><text
       transform="matrix(1,0,0,-1,135.6459,130.4993)"
       id="text294"><tspan
         style="font-size:7.99189997px;font-variant:normal;font-weight:normal;writing-mode:lr-tb;fill:#000000;fill-opacity:1;fill-rule:nonzero;stroke:none;font-family:ArialMT;-inkscape-font-specification:ArialMT"
         x="0 4.4434962"
         y="0"
         sodipodi:role="line"
         id="tspan296">25</tspan></text>
<path
       d="m 149.114,145.467 1.397,0 m 139.916,0 -1.423,0"
       style="fill:none;stroke:#000000;stroke-width:0.5;stroke-linecap:butt;stroke-linejoin:round;stroke-miterlimit:10;stroke-opacity:1;stroke-dasharray:none"
       id="path298"
       inkscape:connector-curvature="0" /><text
       transform="matrix(1,0,0,-1,135.6459,142.8772)"
       id="text300"><tspan
         style="font-size:7.99189997px;font-variant:normal;font-weight:normal;writing-mode:lr-tb;fill:#000000;fill-opacity:1;fill-rule:nonzero;stroke:none;font-family:ArialMT;-inkscape-font-specification:ArialMT"
         x="0 4.4434962"
         y="0"
         sodipodi:role="line"
         id="tspan302">30</tspan></text>
<path
       d="m 149.114,157.855 1.397,0 m 139.916,0 -1.423,0"
       style="fill:none;stroke:#000000;stroke-width:0.5;stroke-linecap:butt;stroke-linejoin:round;stroke-miterlimit:10;stroke-opacity:1;stroke-dasharray:none"
       id="path304"
       inkscape:connector-curvature="0" /><text
       transform="matrix(1,0,0,-1,135.6459,155.2551)"
       id="text306"><tspan
         style="font-size:7.99189997px;font-variant:normal;font-weight:normal;writing-mode:lr-tb;fill:#000000;fill-opacity:1;fill-rule:nonzero;stroke:none;font-family:ArialMT;-inkscape-font-specification:ArialMT"
         x="0 4.4434962"
         y="0"
         sodipodi:role="line"
         id="tspan308">35</tspan></text>
<path
       d="m 149.114,170.24 1.397,0 m 139.916,0 -1.423,0"
       style="fill:none;stroke:#000000;stroke-width:0.5;stroke-linecap:butt;stroke-linejoin:round;stroke-miterlimit:10;stroke-opacity:1;stroke-dasharray:none"
       id="path310"
       inkscape:connector-curvature="0" /><text
       transform="matrix(1,0,0,-1,135.6459,167.633)"
       id="text312"><tspan
         style="font-size:7.99189997px;font-variant:normal;font-weight:normal;writing-mode:lr-tb;fill:#000000;fill-opacity:1;fill-rule:nonzero;stroke:none;font-family:ArialMT;-inkscape-font-specification:ArialMT"
         x="0 4.4434962"
         y="0"
         sodipodi:role="line"
         id="tspan314">40</tspan></text>
<path
       d="m 149.114,182.601 1.397,0 m 139.916,0 -1.423,0"
       style="fill:none;stroke:#000000;stroke-width:0.5;stroke-linecap:butt;stroke-linejoin:round;stroke-miterlimit:10;stroke-opacity:1;stroke-dasharray:none"
       id="path316"
       inkscape:connector-curvature="0" /><text
       transform="matrix(1,0,0,-1,135.6459,180.0108)"
       id="text318"><tspan
         style="font-size:7.99189997px;font-variant:normal;font-weight:normal;writing-mode:lr-tb;fill:#000000;fill-opacity:1;fill-rule:nonzero;stroke:none;font-family:ArialMT;-inkscape-font-specification:ArialMT"
         x="0 4.4434962"
         y="0"
         sodipodi:role="line"
         id="tspan320">45</tspan></text>
<path
       d="m 149.114,194.988 1.397,0 m 139.916,0 -1.423,0"
       style="fill:none;stroke:#000000;stroke-width:0.5;stroke-linecap:butt;stroke-linejoin:round;stroke-miterlimit:10;stroke-opacity:1;stroke-dasharray:none"
       id="path322"
       inkscape:connector-curvature="0" /><text
       transform="matrix(1,0,0,-1,135.6459,192.3882)"
       id="text324"><tspan
         style="font-size:7.99189997px;font-variant:normal;font-weight:normal;writing-mode:lr-tb;fill:#000000;fill-opacity:1;fill-rule:nonzero;stroke:none;font-family:ArialMT;-inkscape-font-specification:ArialMT"
         x="0 4.4434962"
         y="0"
         sodipodi:role="line"
         id="tspan326">50</tspan></text>
<path
       d="m 149.114,207.373 1.397,0 m 139.916,0 -1.423,0"
       style="fill:none;stroke:#000000;stroke-width:0.5;stroke-linecap:butt;stroke-linejoin:round;stroke-miterlimit:10;stroke-opacity:1;stroke-dasharray:none"
       id="path328"
       inkscape:connector-curvature="0" /><text
       transform="matrix(1,0,0,-1,135.6459,204.7661)"
       id="text330"><tspan
         style="font-size:7.99189997px;font-variant:normal;font-weight:normal;writing-mode:lr-tb;fill:#000000;fill-opacity:1;fill-rule:nonzero;stroke:none;font-family:ArialMT;-inkscape-font-specification:ArialMT"
         x="0 4.4434962"
         y="0"
         sodipodi:role="line"
         id="tspan332">55</tspan></text>
<path
       d="m 149.114,219.734 1.397,0 m 139.916,0 -1.423,0"
       style="fill:none;stroke:#000000;stroke-width:0.5;stroke-linecap:butt;stroke-linejoin:round;stroke-miterlimit:10;stroke-opacity:1;stroke-dasharray:none"
       id="path334"
       inkscape:connector-curvature="0" /><text
       transform="matrix(1,0,0,-1,135.6459,217.1439)"
       id="text336"><tspan
         style="font-size:7.99189997px;font-variant:normal;font-weight:normal;writing-mode:lr-tb;fill:#000000;fill-opacity:1;fill-rule:nonzero;stroke:none;font-family:ArialMT;-inkscape-font-specification:ArialMT"
         x="0 4.4434962"
         y="0"
         sodipodi:role="line"
         id="tspan338">60</tspan></text>
<path
       d="m 149.114,219.734 141.313,0 m -141.313,-111.401 141.313,0 0,111.401 m -141.313,-111.401 0,111.401"
       style="fill:none;stroke:#000000;stroke-width:0.5;stroke-linecap:butt;stroke-linejoin:round;stroke-miterlimit:10;stroke-opacity:1;stroke-dasharray:none"
       id="path340"
       inkscape:connector-curvature="0" /><path
       d="m 149.114,208.375 0,-17.973 m 0,17.973 1.371,0 m -1.371,-17.973 1.371,0 m 1.555,-32.653 0,-13.52 m -1.371,13.52 2.767,0 m -2.767,-13.52 2.767,0 m 1.555,-12.097 0,-9.592 m -1.397,9.592 2.768,0 m -2.768,-9.592 2.768,0 m 1.581,11.938 0,-14.865 m -1.396,14.865 2.767,0 m -2.767,-14.865 2.767,0 m 1.555,35.236 0,-34.155 m -1.371,34.155 2.767,0 m -2.767,-34.155 2.767,0 m 1.555,57.979 0,-41.64 m -1.371,41.64 2.769,0 m -2.769,-41.64 2.769,0 m 4.479,77.219 0,-21.451 m -1.37,21.451 2.767,0 m -2.767,-21.451 2.767,0 m 1.555,20.318 0,-14.257 m -1.37,14.257 2.767,0 m -2.767,-14.257 2.767,0 m 1.555,19.607 0,-21.637 m -1.398,21.637 2.767,0 m -2.767,-21.637 2.767,0 m 1.583,11.227 0,-20.082 m -1.397,20.082 2.766,0 m -2.766,-20.082 2.766,0 m 1.556,13.388 0,-17.684 m -1.37,17.684 2.766,0 m -2.766,-17.684 2.766,0 m 1.555,7.432 0,-22.48 m -1.396,22.48 2.793,0 m -2.793,-22.48 2.793,0 m 4.48,26.248 0,-11.332 m -1.37,11.332 2.767,0 m -2.767,-11.332 2.767,0 m 1.554,11.439 0,-14.311 m -1.37,14.311 2.767,0 m -2.767,-14.311 2.767,0 m 1.555,9.092 0,-22.559 m -1.395,22.559 2.766,0 m -2.766,-22.559 2.766,0 m 4.507,33.075 0,-18.844 m -1.371,18.844 2.767,0 m -2.767,-18.844 2.767,0 m 7.432,18.501 0,-11.016 m -1.37,11.016 2.768,0 m -2.768,-11.016 2.768,0 m 4.506,9.172 0,-6.747 m -1.397,6.747 2.767,0 m -2.767,-6.747 2.767,0 m 4.507,6.456 0,-8.934 m -1.37,8.934 2.768,0 m -2.768,-8.934 2.768,0 m 7.431,10.648 0,-10.147 m -1.37,10.147 2.767,0 m -2.767,-10.147 2.767,0 m 4.506,7.115 0,-11.807 m -1.396,11.807 2.767,0 m -2.767,-11.807 2.767,0 m 4.507,16.762 0,-18.975 m -1.371,18.975 2.767,0 m -2.767,-18.975 2.767,0 m 7.431,21.663 0,-17.736 m -1.371,17.736 2.769,0 m -2.769,-17.736 2.769,0 m 4.506,5.745 0,-10.806 m -1.397,10.806 2.767,0 m -2.767,-10.806 2.767,0 m 4.507,14.917 0,-13.519 m -1.37,13.519 2.767,0 m -2.767,-13.519 2.767,0 m 7.431,12.781 0,-9.83 m -1.37,9.83 2.767,0 m -2.767,-9.83 2.767,0 m 7.433,10.568 0,-13.519 m -1.371,13.519 2.767,0 m -2.767,-13.519 2.767,0 m 4.507,12.466 0,-16.367 m -1.397,16.367 2.768,0 m -2.768,-16.367 2.768,0"
       style="fill:none;stroke:#ff0000;stroke-width:0.352;stroke-linecap:butt;stroke-linejoin:round;stroke-miterlimit:10;stroke-opacity:1;stroke-dasharray:none"
       id="path342"
       inkscape:connector-curvature="0" /><path
       d="m 149.114,199.389 2.926,-48.415 2.951,-23.638 2.952,-0.292 2.926,10.728 2.951,20.083 5.877,45.671 2.952,2.477 2.952,1.634 2.952,-9.619 2.925,-5.509 2.951,-12.65 5.877,9.357 2.951,-1.371 2.952,-9.356 5.878,12.387 8.828,3.558 5.904,0.291 5.877,-1.372 8.829,1.081 5.903,-3.849 5.878,1.372 8.827,3.32 5.904,-8.539 5.877,2.741 8.828,1.106 8.83,-1.106 5.903,-2.478"
       style="fill:none;stroke:#ff0000;stroke-width:0.70499998;stroke-linecap:butt;stroke-linejoin:round;stroke-miterlimit:10;stroke-opacity:1;stroke-dasharray:none"
       id="path344"
       inkscape:connector-curvature="0" /><text
       transform="matrix(0,1,1,0,128.7274,140.0569)"
       id="text346"><tspan
         style="font-size:7.99189997px;font-variant:normal;font-weight:normal;writing-mode:lr-tb;fill:#000000;fill-opacity:1;fill-rule:nonzero;stroke:none;font-family:ArialMT;-inkscape-font-specification:ArialMT"
         x="0 5.7701516 10.213648 16.870901 21.314398 23.536146 27.979641 31.975592 34.636894 36.411095 38.632843 40.854591 43.515896 50.620693"
         y="0"
         sodipodi:role="line"
         id="tspan348">Hematocrit (%)</tspan></text>
<path
       d="m 323.22,108.333 0,111.401 141.314,0 0,-111.401 -141.314,0"
       style="fill:none;stroke:#ffffff;stroke-width:0.176;stroke-linecap:butt;stroke-linejoin:round;stroke-miterlimit:10;stroke-opacity:1;stroke-dasharray:none"
       id="path350"
       inkscape:connector-curvature="0" /><g
       id="g352"><g
         id="g354"
         clip-path="url(#clipPath356)"><path
           d="m 323.22,219.734 141.314,0 M 323.22,108.333 l 141.314,0 0,111.401 M 323.22,108.333 l 0,111.401 m 0,-111.401 141.314,0 m -141.314,0 0,111.401 m 0,-111.401 0,1.424 m 0,109.977 0,-1.396"
           style="fill:none;stroke:#000000;stroke-width:0.5;stroke-linecap:butt;stroke-linejoin:round;stroke-miterlimit:10;stroke-opacity:1;stroke-dasharray:none"
           id="path360"
           inkscape:connector-curvature="0" /></g></g><text
       transform="matrix(1,0,0,-1,321.0521,96.6385)"
       id="text362"><tspan
         style="font-size:7.99189997px;font-variant:normal;font-weight:normal;writing-mode:lr-tb;fill:#000000;fill-opacity:1;fill-rule:nonzero;stroke:none;font-family:ArialMT;-inkscape-font-specification:ArialMT"
         x="0"
         y="0"
         id="tspan364">0</tspan></text>
<path
       d="m 337.927,108.333 0,1.424 m 0,109.977 0,-1.396"
       style="fill:none;stroke:#000000;stroke-width:0.5;stroke-linecap:butt;stroke-linejoin:round;stroke-miterlimit:10;stroke-opacity:1;stroke-dasharray:none"
       id="path366"
       inkscape:connector-curvature="0" /><text
       transform="matrix(1,0,0,-1,335.762,96.6385)"
       id="text368"><tspan
         style="font-size:7.99189997px;font-variant:normal;font-weight:normal;writing-mode:lr-tb;fill:#000000;fill-opacity:1;fill-rule:nonzero;stroke:none;font-family:ArialMT;-inkscape-font-specification:ArialMT"
         x="0"
         y="0"
         id="tspan370">5</tspan></text>
<path
       d="m 352.659,108.333 0,1.424 m 0,109.977 0,-1.396"
       style="fill:none;stroke:#000000;stroke-width:0.5;stroke-linecap:butt;stroke-linejoin:round;stroke-miterlimit:10;stroke-opacity:1;stroke-dasharray:none"
       id="path372"
       inkscape:connector-curvature="0" /><text
       transform="matrix(1,0,0,-1,348.3459,96.6385)"
       id="text374"><tspan
         style="font-size:7.99189997px;font-variant:normal;font-weight:normal;writing-mode:lr-tb;fill:#000000;fill-opacity:1;fill-rule:nonzero;stroke:none;font-family:ArialMT;-inkscape-font-specification:ArialMT"
         x="0 4.4434962"
         y="0"
         sodipodi:role="line"
         id="tspan376">10</tspan></text>
<path
       d="m 367.365,108.333 0,1.424 m 0,109.977 0,-1.396"
       style="fill:none;stroke:#000000;stroke-width:0.5;stroke-linecap:butt;stroke-linejoin:round;stroke-miterlimit:10;stroke-opacity:1;stroke-dasharray:none"
       id="path378"
       inkscape:connector-curvature="0" /><text
       transform="matrix(1,0,0,-1,363.0569,96.6385)"
       id="text380"><tspan
         style="font-size:7.99189997px;font-variant:normal;font-weight:normal;writing-mode:lr-tb;fill:#000000;fill-opacity:1;fill-rule:nonzero;stroke:none;font-family:ArialMT;-inkscape-font-specification:ArialMT"
         x="0 4.4434962"
         y="0"
         sodipodi:role="line"
         id="tspan382">15</tspan></text>
<path
       d="m 382.096,108.333 0,1.424 m 0,109.977 0,-1.396"
       style="fill:none;stroke:#000000;stroke-width:0.5;stroke-linecap:butt;stroke-linejoin:round;stroke-miterlimit:10;stroke-opacity:1;stroke-dasharray:none"
       id="path384"
       inkscape:connector-curvature="0" /><text
       transform="matrix(1,0,0,-1,377.7668,96.6385)"
       id="text386"><tspan
         style="font-size:7.99189997px;font-variant:normal;font-weight:normal;writing-mode:lr-tb;fill:#000000;fill-opacity:1;fill-rule:nonzero;stroke:none;font-family:ArialMT;-inkscape-font-specification:ArialMT"
         x="0 4.4434962"
         y="0"
         sodipodi:role="line"
         id="tspan388">20</tspan></text>
<path
       d="m 396.802,108.333 0,1.424 m 0,109.977 0,-1.396"
       style="fill:none;stroke:#000000;stroke-width:0.5;stroke-linecap:butt;stroke-linejoin:round;stroke-miterlimit:10;stroke-opacity:1;stroke-dasharray:none"
       id="path390"
       inkscape:connector-curvature="0" /><text
       transform="matrix(1,0,0,-1,392.4757,96.6385)"
       id="text392"><tspan
         style="font-size:7.99189997px;font-variant:normal;font-weight:normal;writing-mode:lr-tb;fill:#000000;fill-opacity:1;fill-rule:nonzero;stroke:none;font-family:ArialMT;-inkscape-font-specification:ArialMT"
         x="0 4.4434962"
         y="0"
         sodipodi:role="line"
         id="tspan394">25</tspan></text>
<path
       d="m 411.535,108.333 0,1.424 m 0,109.977 0,-1.396"
       style="fill:none;stroke:#000000;stroke-width:0.5;stroke-linecap:butt;stroke-linejoin:round;stroke-miterlimit:10;stroke-opacity:1;stroke-dasharray:none"
       id="path396"
       inkscape:connector-curvature="0" /><text
       transform="matrix(1,0,0,-1,407.1857,96.6385)"
       id="text398"><tspan
         style="font-size:7.99189997px;font-variant:normal;font-weight:normal;writing-mode:lr-tb;fill:#000000;fill-opacity:1;fill-rule:nonzero;stroke:none;font-family:ArialMT;-inkscape-font-specification:ArialMT"
         x="0 4.4434962"
         y="0"
         sodipodi:role="line"
         id="tspan400">30</tspan></text>
<path
       d="m 426.241,108.333 0,1.424 m 0,109.977 0,-1.396"
       style="fill:none;stroke:#000000;stroke-width:0.5;stroke-linecap:butt;stroke-linejoin:round;stroke-miterlimit:10;stroke-opacity:1;stroke-dasharray:none"
       id="path402"
       inkscape:connector-curvature="0" /><text
       transform="matrix(1,0,0,-1,421.8966,96.6385)"
       id="text404"><tspan
         style="font-size:7.99189997px;font-variant:normal;font-weight:normal;writing-mode:lr-tb;fill:#000000;fill-opacity:1;fill-rule:nonzero;stroke:none;font-family:ArialMT;-inkscape-font-specification:ArialMT"
         x="0 4.4434962"
         y="0"
         sodipodi:role="line"
         id="tspan406">35</tspan></text>
<path
       d="m 440.973,108.333 0,1.424 m 0,109.977 0,-1.396"
       style="fill:none;stroke:#000000;stroke-width:0.5;stroke-linecap:butt;stroke-linejoin:round;stroke-miterlimit:10;stroke-opacity:1;stroke-dasharray:none"
       id="path408"
       inkscape:connector-curvature="0" /><text
       transform="matrix(1,0,0,-1,436.6055,96.6385)"
       id="text410"><tspan
         style="font-size:7.99189997px;font-variant:normal;font-weight:normal;writing-mode:lr-tb;fill:#000000;fill-opacity:1;fill-rule:nonzero;stroke:none;font-family:ArialMT;-inkscape-font-specification:ArialMT"
         x="0 4.4434962"
         y="0"
         sodipodi:role="line"
         id="tspan412">40</tspan></text>
<path
       d="m 455.678,108.333 0,1.424 m 0,109.977 0,-1.396"
       style="fill:none;stroke:#000000;stroke-width:0.5;stroke-linecap:butt;stroke-linejoin:round;stroke-miterlimit:10;stroke-opacity:1;stroke-dasharray:none"
       id="path414"
       inkscape:connector-curvature="0" /><text
       transform="matrix(1,0,0,-1,451.3154,96.6385)"
       id="text416"><tspan
         style="font-size:7.99189997px;font-variant:normal;font-weight:normal;writing-mode:lr-tb;fill:#000000;fill-opacity:1;fill-rule:nonzero;stroke:none;font-family:ArialMT;-inkscape-font-specification:ArialMT"
         x="0 4.4434962"
         y="0"
         sodipodi:role="line"
         id="tspan418">45</tspan></text>
<path
       d="m 323.22,108.333 1.398,0 m 139.916,0 -1.424,0"
       style="fill:none;stroke:#000000;stroke-width:0.5;stroke-linecap:butt;stroke-linejoin:round;stroke-miterlimit:10;stroke-opacity:1;stroke-dasharray:none"
       id="path420"
       inkscape:connector-curvature="0" /><text
       transform="matrix(1,0,0,-1,310.7082,105.7434)"
       id="text422"><tspan
         style="font-size:7.99189997px;font-variant:normal;font-weight:normal;writing-mode:lr-tb;fill:#000000;fill-opacity:1;fill-rule:nonzero;stroke:none;font-family:ArialMT;-inkscape-font-specification:ArialMT"
         x="0 4.4434962"
         y="0"
         sodipodi:role="line"
         id="tspan424">15</tspan></text>
<path
       d="m 323.22,120.721 1.398,0 m 139.916,0 -1.424,0"
       style="fill:none;stroke:#000000;stroke-width:0.5;stroke-linecap:butt;stroke-linejoin:round;stroke-miterlimit:10;stroke-opacity:1;stroke-dasharray:none"
       id="path426"
       inkscape:connector-curvature="0" /><text
       transform="matrix(1,0,0,-1,310.7082,118.2283)"
       id="text428"><tspan
         style="font-size:7.99189997px;font-variant:normal;font-weight:normal;writing-mode:lr-tb;fill:#000000;fill-opacity:1;fill-rule:nonzero;stroke:none;font-family:ArialMT;-inkscape-font-specification:ArialMT"
         x="0 4.4434962"
         y="0"
         sodipodi:role="line"
         id="tspan430">20</tspan></text>
<path
       d="m 323.22,133.107 1.398,0 m 139.916,0 -1.424,0"
       style="fill:none;stroke:#000000;stroke-width:0.5;stroke-linecap:butt;stroke-linejoin:round;stroke-miterlimit:10;stroke-opacity:1;stroke-dasharray:none"
       id="path432"
       inkscape:connector-curvature="0" /><text
       transform="matrix(1,0,0,-1,310.7082,130.7113)"
       id="text434"><tspan
         style="font-size:7.99189997px;font-variant:normal;font-weight:normal;writing-mode:lr-tb;fill:#000000;fill-opacity:1;fill-rule:nonzero;stroke:none;font-family:ArialMT;-inkscape-font-specification:ArialMT"
         x="0 4.4434962"
         y="0"
         sodipodi:role="line"
         id="tspan436">25</tspan></text>
<path
       d="m 323.22,145.467 1.398,0 m 139.916,0 -1.424,0"
       style="fill:none;stroke:#000000;stroke-width:0.5;stroke-linecap:butt;stroke-linejoin:round;stroke-miterlimit:10;stroke-opacity:1;stroke-dasharray:none"
       id="path438"
       inkscape:connector-curvature="0" /><text
       transform="matrix(1,0,0,-1,310.7082,143.1956)"
       id="text440"><tspan
         style="font-size:7.99189997px;font-variant:normal;font-weight:normal;writing-mode:lr-tb;fill:#000000;fill-opacity:1;fill-rule:nonzero;stroke:none;font-family:ArialMT;-inkscape-font-specification:ArialMT"
         x="0 4.4434962"
         y="0"
         sodipodi:role="line"
         id="tspan442">30</tspan></text>
<path
       d="m 323.22,157.855 1.398,0 m 139.916,0 -1.424,0"
       style="fill:none;stroke:#000000;stroke-width:0.5;stroke-linecap:butt;stroke-linejoin:round;stroke-miterlimit:10;stroke-opacity:1;stroke-dasharray:none"
       id="path444"
       inkscape:connector-curvature="0" /><text
       transform="matrix(1,0,0,-1,310.7082,155.6798)"
       id="text446"><tspan
         style="font-size:7.99189997px;font-variant:normal;font-weight:normal;writing-mode:lr-tb;fill:#000000;fill-opacity:1;fill-rule:nonzero;stroke:none;font-family:ArialMT;-inkscape-font-specification:ArialMT"
         x="0 4.4434962"
         y="0"
         sodipodi:role="line"
         id="tspan448">35</tspan></text>
<path
       d="m 323.22,170.24 1.398,0 m 139.916,0 -1.424,0"
       style="fill:none;stroke:#000000;stroke-width:0.5;stroke-linecap:butt;stroke-linejoin:round;stroke-miterlimit:10;stroke-opacity:1;stroke-dasharray:none"
       id="path450"
       inkscape:connector-curvature="0" /><text
       transform="matrix(1,0,0,-1,310.7082,168.1637)"
       id="text452"><tspan
         style="font-size:7.99189997px;font-variant:normal;font-weight:normal;writing-mode:lr-tb;fill:#000000;fill-opacity:1;fill-rule:nonzero;stroke:none;font-family:ArialMT;-inkscape-font-specification:ArialMT"
         x="0 4.4434962"
         y="0"
         sodipodi:role="line"
         id="tspan454">40</tspan></text>
<path
       d="m 323.22,182.601 1.398,0 m 139.916,0 -1.424,0"
       style="fill:none;stroke:#000000;stroke-width:0.5;stroke-linecap:butt;stroke-linejoin:round;stroke-miterlimit:10;stroke-opacity:1;stroke-dasharray:none"
       id="path456"
       inkscape:connector-curvature="0" /><text
       transform="matrix(1,0,0,-1,310.7082,180.6475)"
       id="text458"><tspan
         style="font-size:7.99189997px;font-variant:normal;font-weight:normal;writing-mode:lr-tb;fill:#000000;fill-opacity:1;fill-rule:nonzero;stroke:none;font-family:ArialMT;-inkscape-font-specification:ArialMT"
         x="0 4.4434962"
         y="0"
         sodipodi:role="line"
         id="tspan460">45</tspan></text>
<path
       d="m 323.22,194.988 1.398,0 m 139.916,0 -1.424,0"
       style="fill:none;stroke:#000000;stroke-width:0.5;stroke-linecap:butt;stroke-linejoin:round;stroke-miterlimit:10;stroke-opacity:1;stroke-dasharray:none"
       id="path462"
       inkscape:connector-curvature="0" /><text
       transform="matrix(1,0,0,-1,310.7082,193.1319)"
       id="text464"><tspan
         style="font-size:7.99189997px;font-variant:normal;font-weight:normal;writing-mode:lr-tb;fill:#000000;fill-opacity:1;fill-rule:nonzero;stroke:none;font-family:ArialMT;-inkscape-font-specification:ArialMT"
         x="0 4.4434962"
         y="0"
         sodipodi:role="line"
         id="tspan466">50</tspan></text>
<path
       d="m 323.22,207.373 1.398,0 m 139.916,0 -1.424,0"
       style="fill:none;stroke:#000000;stroke-width:0.5;stroke-linecap:butt;stroke-linejoin:round;stroke-miterlimit:10;stroke-opacity:1;stroke-dasharray:none"
       id="path468"
       inkscape:connector-curvature="0" /><text
       transform="matrix(1,0,0,-1,310.7082,205.6157)"
       id="text470"><tspan
         style="font-size:7.99189997px;font-variant:normal;font-weight:normal;writing-mode:lr-tb;fill:#000000;fill-opacity:1;fill-rule:nonzero;stroke:none;font-family:ArialMT;-inkscape-font-specification:ArialMT"
         x="0 4.4434962"
         y="0"
         sodipodi:role="line"
         id="tspan472">55</tspan></text>
<path
       d="m 323.22,219.734 1.398,0 m 139.916,0 -1.424,0"
       style="fill:none;stroke:#000000;stroke-width:0.5;stroke-linecap:butt;stroke-linejoin:round;stroke-miterlimit:10;stroke-opacity:1;stroke-dasharray:none"
       id="path474"
       inkscape:connector-curvature="0" /><text
       transform="matrix(1,0,0,-1,310.7082,218.0995)"
       id="text476"><tspan
         style="font-size:7.99189997px;font-variant:normal;font-weight:normal;writing-mode:lr-tb;fill:#000000;fill-opacity:1;fill-rule:nonzero;stroke:none;font-family:ArialMT;-inkscape-font-specification:ArialMT"
         x="0 4.4434962"
         y="0"
         sodipodi:role="line"
         id="tspan478">60</tspan></text>
<g
       id="g480"><g
         id="g482"
         clip-path="url(#clipPath484)"><path
           d="m 323.22,219.734 141.314,0 M 323.22,108.333 l 141.314,0 0,111.401 M 323.22,108.333 l 0,111.401"
           style="fill:none;stroke:#000000;stroke-width:0.5;stroke-linecap:butt;stroke-linejoin:round;stroke-miterlimit:10;stroke-opacity:1;stroke-dasharray:none"
           id="path488"
           inkscape:connector-curvature="0" /></g></g><path
       d="m 323.22,201.76 0,-14.099 m 0,14.099 1.372,0 m -1.372,-14.099 1.372,0 m 1.554,11.201 0,-24.774 m -1.37,24.774 2.767,0 m -2.767,-24.774 2.767,0 m 4.507,17.869 0,-6.589 m -1.397,6.589 2.768,0 m -2.768,-6.589 2.768,0 m 4.506,7.036 0,-13.519 m -1.372,13.519 2.77,0 m -2.77,-13.519 2.77,0 m 4.477,13.151 0,-8.934 m -1.368,8.934 2.767,0 m -2.767,-8.934 2.767,0 m 4.507,9.777 0,-7.88 m -1.398,7.88 2.768,0 m -2.768,-7.88 2.768,0 m 4.506,12.992 0,-9.83 m -1.37,9.83 2.766,0 m -2.766,-9.83 2.766,0 m 7.434,9.172 0,-9.092 m -1.371,9.092 2.766,0 m -2.766,-9.092 2.766,0 m 4.507,6.958 0,-14.18 m -1.395,14.18 2.766,0 m -2.766,-14.18 2.766,0 m 4.507,9.593 0,-11.069 m -1.371,11.069 2.768,0 m -2.768,-11.069 2.768,0 m 7.431,12.098 0,-7.617 m -1.37,7.617 2.768,0 m -2.768,-7.617 2.768,0 m 1.553,9.303 0,-8.223 m -1.37,8.223 2.768,0 m -2.768,-8.223 2.768,0 m 1.556,3.98 0,-6.905 m -1.398,6.905 2.768,0 m -2.768,-6.905 2.768,0 m 1.581,6.615 0,-8.513 m -1.398,8.513 2.768,0 m -2.768,-8.513 2.768,0 m 1.554,10.752 0,-11.885 m -1.371,11.885 2.767,0 m -2.767,-11.885 2.767,0 m 7.434,16.603 0,-17.472 m -1.371,17.472 2.766,0 m -2.766,-17.472 2.766,0 m 4.508,15.285 0,-11.463 m -1.398,11.463 2.768,0 m -2.768,-11.463 2.768,0 m 4.507,11.041 0,-8.96 m -1.37,8.96 2.767,0 m -2.767,-8.96 2.767,0 m 7.432,9.567 0,-12.36 m -1.371,12.36 2.768,0 m -2.768,-12.36 2.768,0 m 4.506,12.491 0,-11.542 m -1.396,11.542 2.766,0 m -2.766,-11.542 2.766,0 m 4.505,13.15 0,-15.839 m -1.367,15.839 2.766,0 m -2.766,-15.839 2.766,0 m 7.431,19.213 0,-14.891 m -1.37,14.891 2.766,0 m -2.766,-14.891 2.766,0 m 7.433,10.357 0,-8.565 m -1.371,8.565 2.767,0 m -2.767,-8.565 2.767,0 m 4.508,7.59 0,-9.909 m -1.398,9.909 2.768,0 m -2.768,-9.909 2.768,0"
       style="fill:none;stroke:#ff0000;stroke-width:0.352;stroke-linecap:butt;stroke-linejoin:round;stroke-miterlimit:10;stroke-opacity:1;stroke-dasharray:none"
       id="path490"
       inkscape:connector-curvature="0" /><path
       d="m 323.22,194.725 2.926,-8.25 5.904,2.187 5.877,-3.031 5.875,1.925 5.906,1.396 5.876,4.111 8.83,-0.262 5.902,-4.692 5.878,-3.031 8.828,2.767 2.951,1.371 2.954,-3.585 2.951,-1.081 2.924,0.528 8.83,1.923 5.903,0.844 5.877,0.817 8.829,-1.106 5.903,0.553 5.875,-0.553 8.83,3.847 8.829,-1.37 5.904,-1.635"
       style="fill:none;stroke:#ff0000;stroke-width:0.70499998;stroke-linecap:butt;stroke-linejoin:round;stroke-miterlimit:10;stroke-opacity:1;stroke-dasharray:none"
       id="path492"
       inkscape:connector-curvature="0" /><text
       transform="matrix(1,0,0,-1,374.3258,84.6015)"
       id="text494"><tspan
         style="font-size:7.99189997px;font-variant:normal;font-weight:normal;writing-mode:lr-tb;fill:#000000;fill-opacity:1;fill-rule:nonzero;stroke:none;font-family:ArialMT;-inkscape-font-specification:ArialMT"
         x="0 4.8830509 6.6572528 13.314506 17.758001 19.97975 22.641052 27.084549 31.528046 35.523994 39.519947"
         y="0"
         sodipodi:role="line"
         id="tspan496">Time (days)</tspan></text>
<text
       transform="matrix(0,1,1,0,302.3942,139.6155)"
       id="text498"><tspan
         style="font-size:7.99189997px;font-variant:normal;font-weight:normal;writing-mode:lr-tb;fill:#000000;fill-opacity:1;fill-rule:nonzero;stroke:none;font-family:ArialMT;-inkscape-font-specification:ArialMT"
         x="0 5.7701516 10.213648 16.870901 21.314398 23.536146 27.979641 31.975592 34.636894 36.411095 38.632843 40.854591 43.515896 50.620693"
         y="0"
         sodipodi:role="line"
         id="tspan500">Hematocrit (%)</tspan></text>
<text
       transform="matrix(1,0,0,-1,199.6855,84.6015)"
       id="text502"><tspan
         style="font-size:7.99189997px;font-variant:normal;font-weight:normal;writing-mode:lr-tb;fill:#000000;fill-opacity:1;fill-rule:nonzero;stroke:none;font-family:ArialMT;-inkscape-font-specification:ArialMT"
         x="0 4.8830509 6.6572528 13.314506 17.758001 19.97975 22.641052 27.084549 31.528046 35.523994 39.519947"
         y="0"
         sodipodi:role="line"
         id="tspan504">Time (days)</tspan></text>
<path
       d="m 120.72,229.492 3.288,8.594 1.246,0 3.515,-8.594 -1.295,0 -0.988,2.609 -3.618,0 -0.941,-2.609 -1.207,0 z m 2.468,3.531 2.938,0 -0.901,2.378 c -0.27,0.725 -0.476,1.322 -0.619,1.794 -0.117,-0.558 -0.275,-1.109 -0.475,-1.652 l -0.943,-2.52"
       style="fill:#000000;fill-opacity:1;fill-rule:nonzero;stroke:none"
       id="path506"
       inkscape:connector-curvature="0" /><path
       d="m 295.277,229.492 0,8.594 3.219,0 c 0.655,0 1.181,-0.087 1.577,-0.261 0.396,-0.174 0.706,-0.441 0.931,-0.802 0.223,-0.361 0.336,-0.738 0.336,-1.133 0,-0.366 -0.1,-0.712 -0.301,-1.036 -0.199,-0.323 -0.502,-0.585 -0.906,-0.784 0.523,-0.153 0.925,-0.413 1.207,-0.781 0.281,-0.367 0.421,-0.802 0.421,-1.303 0,-0.403 -0.084,-0.777 -0.254,-1.124 -0.17,-0.346 -0.38,-0.613 -0.63,-0.801 -0.25,-0.188 -0.563,-0.33 -0.94,-0.425 -0.377,-0.096 -0.839,-0.144 -1.385,-0.144 l -3.275,0 z m 1.141,4.984 1.848,0 c 0.502,0 0.862,0.034 1.079,0.1 0.288,0.086 0.504,0.228 0.651,0.427 0.145,0.199 0.219,0.449 0.219,0.75 0,0.285 -0.069,0.535 -0.204,0.752 -0.136,0.216 -0.332,0.365 -0.584,0.445 -0.252,0.08 -0.686,0.12 -1.3,0.12 l -1.709,0 0,-2.594 z m 0,-3.968 2.138,0 c 0.368,0 0.625,0.013 0.774,0.041 0.262,0.047 0.48,0.125 0.656,0.234 0.176,0.109 0.32,0.269 0.434,0.478 0.113,0.209 0.17,0.45 0.17,0.723 0,0.32 -0.085,0.599 -0.255,0.835 -0.169,0.236 -0.4,0.402 -0.689,0.498 -0.29,0.096 -0.707,0.144 -1.251,0.144 l -1.977,0 0,-2.953"
       style="fill:#000000;fill-opacity:1;fill-rule:nonzero;stroke:none"
       id="path508"
       inkscape:connector-curvature="0" /><g
       id="g43103"
       transform="matrix(0.40294333,0,0,-0.40294333,108.46727,364.85458)"><path
         inkscape:connector-curvature="0"
         id="path23-2"
         d="m 273.74303,292.58313 c 0,0 1.867,-2.335 1.867,-8.869 0,-6.536 7.938,-31.745 31.045,-26.143 l 1.518,0.466 c 0,0 -1.809,-1.985 -2.566,-3.677 -0.76,-1.691 0.059,-2.859 1.75,-4.377 1.691,-1.518 4.729,-1.284 6.012,0.233 1.281,1.518 1.807,2.16 1.807,2.16 0,0 4.027,-2.686 8.229,-2.802 0,0 0.059,-3.91 0.467,-4.668 0.41,-0.759 2.16,0 3.734,3.908 0,0 0.469,1.227 1.984,1.751 1.518,0.525 5.545,2.919 9.629,5.603 4.086,2.684 5.135,1.925 5.135,4.61 0,2.685 -0.816,4.377 -4.434,6.653 -3.619,2.274 -3.676,2.742 -6.361,2.917 -2.685,0.175 -6.186,1.399 -6.594,2.217 -0.408,0.818 -3.209,5.428 -3.035,7.003 0.176,1.576 0.234,3.618 0.816,4.378 0.584,0.757 0.994,1.283 1.227,4.259 0.232,2.977 2.217,3.734 3.561,3.793 1.342,0.059 2.684,0.175 3.383,0.525 0.701,0.35 2.627,0.758 1.518,1.459 -1.107,0.701 -1.166,1.459 -1.75,1.343 -0.582,-0.117 -2.51,-0.117 -2.51,-0.117 0,0 0.701,2.102 -0.176,2.159 -0.873,0.059 -8.576,0.642 -9.686,0.175 -1.109,-0.466 -3.502,-1.926 -4.318,-2.567 -0.818,-0.642 -5.777,-4.261 -6.887,-4.201 -1.109,0.058 -3.209,3.618 -3.209,3.618 0,0 2.393,1.926 1.283,3.267 -1.107,1.343 -5.311,3.21 -5.311,3.21 0,0 8.463,0.409 10.098,0.759 1.633,0.35 1.225,2.801 -1.168,2.742 -2.395,-0.059 -13.773,0.117 -18.906,-1.05 -5.137,-1.167 -5.021,-2.626 -5.08,-3.326 0,0 -3.383,0.583 -4.9,-0.175 -1.518,-0.759 -4.961,-2.451 -5.193,-2.102 -0.234,0.351 -6.303,4.844 -13.305,6.419 -7.002,1.576 -51.469,1.927 -55.32,2.978 0,0 8.578,-3.152 26.785,-3.853 18.207,-0.701 26.609,-2.626 30.811,-4.026 4.202,-1.4 6.999,-4.374 8.05,-6.652 z" /><g
         id="g18255"
         transform="matrix(0.02909925,-0.7821791,0.7821791,0.02909925,253.17841,252.6266)"><g
           id="g18257"><path
             id="path18259"
             d="m 53.537,3.251 -1.445,-1.43 -0.725,0.73 1.34,1.328 -6.686,6.751 -0.103,0.104 -0.554,0.554 6.832,6.832 1.107,-1.107 -0.003,-0.002 6.271,-6.335 1.207,1.196 0.724,-0.731 -7.965,-7.89 z m -0.962,13.032 -5.378,-5.378 6.24,-6.307 5.405,5.354 -6.267,6.331 z"
             inkscape:connector-curvature="0"
             style="fill:#231f20" /></g><g
           id="g18261"><polygon
             id="polygon18263"
             points="30.761,25.69 32.8,27.711 32.077,28.44 30.038,26.419 28.623,27.851 32.269,31.46 31.546,32.191 27.901,28.582 26.527,29.968 28.564,31.986 27.843,32.716 25.802,30.695 24.313,32.203 26.352,34.223 25.629,34.953 23.589,32.932 22.054,34.482 25.702,38.092 24.977,38.823 21.333,35.21 16.816,39.771 16.01,46.29 2.497,61.123 3.653,62.179 16.938,47.597 24.083,46.948 50.642,20.13 52.46,21.947 53.567,20.84 42.908,10.182 41.801,11.289 43.419,12.907 39.51,16.856 41.397,18.727 40.676,19.456 38.786,17.584 37.297,19.091 39.183,20.958 38.459,21.692 36.571,19.82 35.468,20.936 39.114,24.547 38.391,25.278 34.745,21.668 32.975,23.455 35.017,25.477 34.291,26.205 32.251,24.185 "
             style="fill:#231f20" /></g></g></g><path
       inkscape:connector-curvature="0"
       id="path43101"
       d="m 392.84367,246.96022 c 0,0 0.7523,0.94087 0.7523,3.5737 0,2.63364 3.19856,12.79144 12.50937,10.53415 l 0.61167,-0.18777 c 0,0 -0.72892,0.79984 -1.03395,1.48162 -0.30624,0.68138 0.0238,1.15201 0.70515,1.76368 0.68138,0.61167 1.90552,0.51738 2.4225,-0.0939 0.51617,-0.61167 0.72811,-0.87036 0.72811,-0.87036 0,0 1.62266,1.0823 3.31583,1.12905 0,0 0.0238,1.5755 0.18817,1.88094 0.16521,0.30583 0.87036,0 1.50459,-1.57471 0,0 0.18899,-0.49441 0.79944,-0.70555 0.61167,-0.21155 2.23433,-1.17619 3.87994,-2.25769 1.64643,-1.0815 2.06912,-0.77567 2.06912,-1.85757 0,-1.0819 -0.32881,-1.76368 -1.78666,-2.68078 -1.45825,-0.9163 -1.48122,-1.10487 -2.56312,-1.17539 -1.0819,-0.0705 -2.49261,-0.56372 -2.65701,-0.89332 -0.1644,-0.32961 -1.29304,-2.18718 -1.22293,-2.82182 0.0709,-0.63503 0.0943,-1.45785 0.3288,-1.76408 0.23532,-0.30503 0.40053,-0.51698 0.49441,-1.71614 0.0935,-1.19956 0.89333,-1.50459 1.43488,-1.52836 0.54075,-0.0238 1.0815,-0.0705 1.36316,-0.21155 0.28247,-0.14103 1.05853,-0.30543 0.61167,-0.58789 -0.44606,-0.28246 -0.46983,-0.5879 -0.70515,-0.54115 -0.23451,0.0471 -1.01139,0.0471 -1.01139,0.0471 0,0 0.28246,-0.84699 -0.0709,-0.86995 -0.35177,-0.0238 -3.45564,-0.25869 -3.90291,-0.0705 -0.44686,0.18777 -1.4111,0.77607 -1.7399,1.03436 -0.32961,0.25869 -2.32781,1.71694 -2.77508,1.69276 -0.44686,-0.0234 -1.29304,-1.45785 -1.29304,-1.45785 0,0 0.96424,-0.77607 0.51698,-1.31641 -0.44606,-0.54116 -2.14004,-1.29345 -2.14004,-1.29345 0,0 3.41011,-0.16481 4.06893,-0.30584 0.658,-0.14103 0.4936,-1.12864 -0.47064,-1.10487 -0.96505,0.0238 -5.54974,-0.0471 -7.61805,0.42309 -2.06992,0.47024 -2.02318,1.05813 -2.04695,1.34019 0,0 -1.36316,-0.23491 -1.97442,0.0705 -0.61167,0.30583 -1.99901,0.98761 -2.09249,0.84699 -0.0943,-0.14144 -2.53975,-1.95186 -5.36116,-2.5865 -2.82141,-0.63504 -20.73908,-0.77647 -22.29082,-1.19996 0,0 3.45644,1.27007 10.79283,1.55254 7.33639,0.28246 10.72192,1.05813 12.41509,1.62225 1.69318,0.56412 2.8202,1.76247 3.2437,2.68038 z" /><text
       xml:space="preserve"
       style="font-size:9.60000038px;font-style:normal;font-variant:normal;font-weight:normal;font-stretch:normal;line-height:125%;letter-spacing:0px;word-spacing:0px;fill:#000000;fill-opacity:1;stroke:none;font-family:Liberation Sans;-inkscape-font-specification:Liberation Sans"
       x="175.1451"
       y="-291.34613"
       id="text43093"
       sodipodi:linespacing="125%"
       transform="scale(1,-1)"><tspan
         sodipodi:role="line"
         id="tspan43095"
         x="175.1451"
         y="-291.34613">Phenylhydrazine injection</tspan></text>
<text
       transform="scale(1,-1)"
       sodipodi:linespacing="125%"
       id="text43097"
       y="-291.34613"
       x="378.47253"
       style="font-size:9.60000038px;font-style:normal;font-variant:normal;font-weight:normal;font-stretch:normal;line-height:125%;letter-spacing:0px;word-spacing:0px;fill:#000000;fill-opacity:1;stroke:none;font-family:Liberation Sans;-inkscape-font-specification:Liberation Sans"
       xml:space="preserve"><tspan
         y="-291.34613"
         x="378.47253"
         id="tspan43099"
         sodipodi:role="line">No injection</tspan></text>
</g></svg>