<?xml version="1.0" encoding="UTF-8" standalone="no"?>
<!-- Created with Inkscape (http://www.inkscape.org/) -->

<svg
   xmlns:dc="http://purl.org/dc/elements/1.1/"
   xmlns:cc="http://creativecommons.org/ns#"
   xmlns:rdf="http://www.w3.org/1999/02/22-rdf-syntax-ns#"
   xmlns:svg="http://www.w3.org/2000/svg"
   xmlns="http://www.w3.org/2000/svg"
   xmlns:sodipodi="http://sodipodi.sourceforge.net/DTD/sodipodi-0.dtd"
   xmlns:inkscape="http://www.inkscape.org/namespaces/inkscape"
   id="svg2"
   version="1.1"
   inkscape:version="0.48.4 r9939"
   width="329.99875"
   height="144.56"
   xml:space="preserve"
   sodipodi:docname="fig2.svg"><metadata
     id="metadata8"><rdf:RDF><cc:Work
         rdf:about=""><dc:format>image/svg+xml</dc:format><dc:type
           rdf:resource="http://purl.org/dc/dcmitype/StillImage" /><dc:title></dc:title></cc:Work></rdf:RDF></metadata><defs
     id="defs6"><clipPath
       clipPathUnits="userSpaceOnUse"
       id="clipPath1646"><path
         d="m 44.05,191.661 247.989,0 0,-99.648 -247.989,0 0,99.648 z"
         id="path1648"
         inkscape:connector-curvature="0" /></clipPath><clipPath
       clipPathUnits="userSpaceOnUse"
       id="clipPath1662"><path
         d="m 44.05,191.661 247.989,0 0,-99.648 -247.989,0 0,99.648 z"
         id="path1664"
         inkscape:connector-curvature="0" /></clipPath></defs><sodipodi:namedview
     pagecolor="#ffffff"
     bordercolor="#666666"
     borderopacity="1"
     objecttolerance="10"
     gridtolerance="10"
     guidetolerance="10"
     inkscape:pageopacity="0"
     inkscape:pageshadow="2"
     inkscape:window-width="1855"
     inkscape:window-height="1056"
     id="namedview4"
     showgrid="false"
     fit-margin-top="10"
     fit-margin-left="10"
     fit-margin-right="10"
     fit-margin-bottom="10"
     inkscape:zoom="2.6912253"
     inkscape:cx="252.68189"
     inkscape:cy="79.977697"
     inkscape:window-x="65"
     inkscape:window-y="24"
     inkscape:window-maximized="1"
     inkscape:current-layer="g10" /><g
     id="g10"
     inkscape:groupmode="layer"
     inkscape:label="1-s2.0-S0022519307004778-main"
     transform="matrix(1.25,0,0,-1.25,-45.05,249.57625)"><g
       transform="matrix(1,0,0,-1,335.84937,163.33262)"
       style=""
       id="text1376" /><g
       transform="matrix(1,0,0,-1,472.93277,163.33262)"
       style=""
       id="text1440" /><path
       d="m 89.116,136.316 c 0,-11.532 -10.041,-20.889 -22.414,-20.889 -12.371,0 -22.412,9.357 -22.412,20.889 0,11.53 10.041,20.888 22.412,20.888 12.373,0 22.414,-9.358 22.414,-20.888 z m 46.383,19.134 37.888,0 c 5.067,0 9.145,-4.078 9.145,-9.145 l 0,-19.598 c 0,-5.066 -4.078,-9.145 -9.145,-9.145 l -37.888,0 c -5.067,0 -9.146,4.079 -9.146,9.145 l 0,19.598 c 0,5.067 4.079,9.145 9.146,9.145 z m 94.41,-0.175 53.543,0 0,-37.919 -53.543,0 0,37.919 z"
       style="fill:none;stroke:#231f20;stroke-width:0.5;stroke-linecap:butt;stroke-linejoin:miter;stroke-miterlimit:10;stroke-opacity:1;stroke-dasharray:none"
       id="path1594"
       inkscape:connector-curvature="0" /><path
       d="m 133.917,143.199 0,5.852 2.207,0 c 0.388,0 0.685,-0.02 0.889,-0.056 0.288,-0.048 0.529,-0.139 0.723,-0.273 0.195,-0.135 0.35,-0.323 0.469,-0.565 0.118,-0.243 0.177,-0.509 0.177,-0.798 0,-0.499 -0.158,-0.919 -0.474,-1.264 -0.317,-0.344 -0.889,-0.517 -1.717,-0.517 l -1.501,0 0,-2.379 -0.773,0 z m 0.773,3.07 1.513,0 c 0.501,0 0.856,0.092 1.066,0.279 0.21,0.186 0.315,0.449 0.315,0.787 0,0.245 -0.062,0.453 -0.185,0.628 -0.124,0.174 -0.287,0.29 -0.489,0.345 -0.131,0.035 -0.371,0.052 -0.722,0.052 l -1.498,0 0,-2.091 m 4.586,-3.07 0.719,0 0,2.22 c 0,0.303 0.04,0.583 0.12,0.838 0.053,0.167 0.142,0.298 0.267,0.393 0.125,0.095 0.267,0.142 0.423,0.142 0.176,0 0.352,-0.052 0.528,-0.156 l 0.247,0.667 c -0.25,0.154 -0.496,0.231 -0.739,0.231 -0.168,0 -0.321,-0.048 -0.461,-0.143 -0.139,-0.096 -0.292,-0.295 -0.457,-0.595 l 0,0.643 -0.647,0 0,-4.24 m 2.471,2.12 c 0,0.785 0.218,1.367 0.655,1.744 0.365,0.315 0.809,0.471 1.333,0.471 0.583,0 1.058,-0.191 1.428,-0.572 0.37,-0.383 0.555,-0.91 0.555,-1.583 0,-0.546 -0.081,-0.975 -0.245,-1.287 -0.164,-0.313 -0.402,-0.556 -0.715,-0.729 -0.312,-0.173 -0.653,-0.259 -1.023,-0.259 -0.594,0 -1.073,0.19 -1.439,0.57 -0.366,0.381 -0.549,0.93 -0.549,1.645 z m 0.739,0 c 0,-0.544 0.119,-0.949 0.355,-1.22 0.237,-0.27 0.535,-0.405 0.894,-0.405 0.356,0 0.653,0.136 0.89,0.408 0.236,0.271 0.355,0.684 0.355,1.24 0,0.525 -0.119,0.922 -0.358,1.192 -0.238,0.27 -0.534,0.405 -0.887,0.405 -0.359,0 -0.657,-0.134 -0.894,-0.403 -0.236,-0.269 -0.355,-0.675 -0.355,-1.217 m 3.947,-2.471 0.698,-0.104 c 0.03,-0.216 0.11,-0.372 0.243,-0.471 0.179,-0.133 0.422,-0.199 0.73,-0.199 0.334,0 0.591,0.066 0.771,0.199 0.181,0.133 0.304,0.319 0.367,0.56 0.038,0.146 0.055,0.453 0.052,0.921 -0.314,-0.37 -0.705,-0.555 -1.173,-0.555 -0.582,0 -1.034,0.211 -1.352,0.631 -0.32,0.421 -0.48,0.925 -0.48,1.512 0,0.405 0.073,0.779 0.219,1.121 0.147,0.341 0.358,0.605 0.637,0.791 0.278,0.187 0.604,0.28 0.979,0.28 0.501,0 0.913,-0.202 1.238,-0.607 l 0,0.512 0.663,0 0,-3.665 c 0,-0.66 -0.067,-1.127 -0.202,-1.403 -0.134,-0.275 -0.347,-0.492 -0.638,-0.652 -0.292,-0.159 -0.65,-0.239 -1.076,-0.239 -0.506,0 -0.915,0.113 -1.225,0.34 -0.312,0.228 -0.462,0.571 -0.451,1.028 z m 0.594,2.547 c 0,-0.557 0.111,-0.961 0.331,-1.217 0.221,-0.256 0.497,-0.383 0.831,-0.383 0.33,0 0.607,0.127 0.83,0.38 0.223,0.255 0.335,0.653 0.335,1.195 0,0.52 -0.115,0.91 -0.345,1.174 -0.23,0.264 -0.508,0.395 -0.832,0.395 -0.32,0 -0.591,-0.13 -0.814,-0.389 -0.224,-0.259 -0.336,-0.645 -0.336,-1.155 m 6.99,-0.83 0.741,-0.093 c -0.117,-0.433 -0.334,-0.77 -0.651,-1.009 -0.316,-0.24 -0.72,-0.359 -1.213,-0.359 -0.62,0 -1.111,0.19 -1.474,0.572 -0.363,0.382 -0.545,0.918 -0.545,1.607 0,0.713 0.183,1.267 0.551,1.66 0.366,0.395 0.843,0.591 1.428,0.591 0.567,0 1.03,-0.193 1.389,-0.579 0.36,-0.385 0.54,-0.929 0.54,-1.628 0,-0.043 -0.002,-0.107 -0.005,-0.191 l -3.16,0 c 0.025,-0.466 0.157,-0.822 0.395,-1.071 0.236,-0.247 0.531,-0.371 0.885,-0.371 0.264,0 0.489,0.07 0.675,0.208 0.187,0.138 0.334,0.36 0.444,0.663 z m -2.361,1.162 2.368,0 c -0.032,0.356 -0.123,0.622 -0.272,0.801 -0.228,0.277 -0.525,0.415 -0.89,0.415 -0.33,0 -0.607,-0.11 -0.831,-0.331 -0.226,-0.22 -0.349,-0.517 -0.375,-0.885 m 4.008,-2.528 0.719,0 0,2.315 c 0,0.543 0.111,0.911 0.333,1.106 0.222,0.194 0.486,0.291 0.792,0.291 0.192,0 0.359,-0.043 0.501,-0.13 0.143,-0.086 0.242,-0.202 0.297,-0.347 0.057,-0.144 0.085,-0.363 0.085,-0.657 l 0,-2.578 0.718,0 0,2.607 c 0,0.332 -0.014,0.565 -0.04,0.698 -0.043,0.205 -0.117,0.382 -0.223,0.531 -0.107,0.149 -0.267,0.27 -0.482,0.361 -0.214,0.091 -0.449,0.138 -0.704,0.138 -0.588,0 -1.038,-0.233 -1.349,-0.698 l 0,0.603 -0.647,0 0,-4.24 m 5.272,5.026 -0.71799,0 0,0.82611 0.71799,0 0,-0.82611 z m 0,-5.026 -0.71799,0 0,4.2387 0.71799,0 0,-4.2387 z m 2.667,0.643 c -0.13,-0.019 -0.235,-0.027 -0.315,-0.027 -0.107,0 -0.189,0.016 -0.246,0.051 -0.057,0.035 -0.098,0.081 -0.123,0.14 -0.026,0.058 -0.039,0.19 -0.039,0.395 l 0,2.478 0.723,0 0,0.56 -0.723,0 0,1.48 -0.714,-0.431 0,-1.049 -0.527,0 0,-0.56 0.527,0 0,-2.438 c 0,-0.432 0.03,-0.714 0.088,-0.849 0.058,-0.134 0.161,-0.243 0.304,-0.325 0.143,-0.083 0.345,-0.123 0.606,-0.123 0.159,0 0.341,0.021 0.543,0.064 l -0.104,0.634 m 0.431,1.477 c 0,0.785 0.218,1.367 0.655,1.744 0.365,0.315 0.809,0.471 1.333,0.471 0.582,0 1.059,-0.191 1.428,-0.572 0.371,-0.383 0.555,-0.91 0.555,-1.583 0,-0.546 -0.081,-0.975 -0.245,-1.287 -0.163,-0.313 -0.402,-0.556 -0.715,-0.729 -0.312,-0.173 -0.653,-0.259 -1.023,-0.259 -0.594,0 -1.074,0.19 -1.439,0.57 -0.366,0.381 -0.549,0.93 -0.549,1.645 z m 0.738,0 c 0,-0.544 0.119,-0.949 0.356,-1.22 0.236,-0.27 0.535,-0.405 0.894,-0.405 0.356,0 0.653,0.136 0.89,0.408 0.236,0.271 0.356,0.684 0.356,1.24 0,0.525 -0.12,0.922 -0.358,1.192 -0.238,0.27 -0.534,0.405 -0.888,0.405 -0.359,0 -0.658,-0.134 -0.894,-0.403 -0.237,-0.269 -0.356,-0.675 -0.356,-1.217 m 4.071,-2.12 0.718,0 0,2.22 c 0,0.303 0.041,0.583 0.122,0.838 0.052,0.167 0.141,0.298 0.266,0.393 0.125,0.095 0.267,0.142 0.424,0.142 0.175,0 0.351,-0.052 0.525,-0.156 l 0.248,0.667 c -0.249,0.154 -0.496,0.231 -0.739,0.231 -0.167,0 -0.319,-0.048 -0.459,-0.143 -0.139,-0.096 -0.293,-0.295 -0.457,-0.595 l 0,0.643 -0.648,0 0,-4.24 m 2.451,1.266 c 0.08,-0.449 0.265,-0.789 0.553,-1.019 0.289,-0.228 0.71,-0.342 1.259,-0.342 0.332,0 0.63,0.058 0.894,0.173 0.264,0.116 0.465,0.28 0.605,0.491 0.139,0.212 0.209,0.437 0.209,0.676 0,0.246 -0.056,0.45 -0.17,0.616 -0.117,0.165 -0.274,0.29 -0.474,0.377 -0.201,0.087 -0.556,0.197 -1.064,0.333 -0.351,0.096 -0.562,0.157 -0.634,0.183 -0.125,0.051 -0.216,0.115 -0.276,0.192 -0.059,0.075 -0.088,0.159 -0.088,0.252 0,0.146 0.071,0.274 0.213,0.383 0.141,0.109 0.375,0.163 0.705,0.163 0.28,0 0.495,-0.061 0.649,-0.183 0.154,-0.123 0.246,-0.293 0.277,-0.511 l 0.702,0.096 c -0.044,0.273 -0.128,0.493 -0.247,0.656 -0.119,0.164 -0.305,0.294 -0.556,0.39 -0.251,0.095 -0.543,0.143 -0.876,0.143 -0.221,0 -0.428,-0.029 -0.622,-0.086 -0.191,-0.056 -0.345,-0.127 -0.457,-0.21 -0.148,-0.106 -0.265,-0.239 -0.352,-0.4 -0.087,-0.162 -0.13,-0.336 -0.13,-0.525 0,-0.208 0.053,-0.397 0.157,-0.569 0.106,-0.172 0.26,-0.306 0.464,-0.404 0.203,-0.097 0.568,-0.211 1.096,-0.344 0.39,-0.099 0.636,-0.179 0.733,-0.243 0.142,-0.095 0.212,-0.222 0.212,-0.383 0,-0.182 -0.08,-0.34 -0.24,-0.474 -0.159,-0.134 -0.404,-0.202 -0.733,-0.202 -0.329,0 -0.584,0.076 -0.765,0.228 -0.182,0.152 -0.293,0.37 -0.333,0.655 l -0.711,-0.112 m -24.251,-5.828 -0.274,-0.917 c 0.289,0.34 0.548,0.578 0.775,0.714 0.227,0.135 0.459,0.203 0.697,0.203 0.237,0 0.439,-0.094 0.606,-0.281 0.168,-0.188 0.252,-0.431 0.252,-0.733 0,-0.585 -0.239,-1.18 -0.714,-1.785 -0.477,-0.605 -1.032,-0.909 -1.665,-0.909 -0.133,0 -0.251,0.016 -0.353,0.045 -0.102,0.029 -0.217,0.081 -0.345,0.155 L 145.73,134.1 c -0.059,-0.204 -0.088,-0.334 -0.088,-0.396 0,-0.058 0.016,-0.108 0.046,-0.149 0.031,-0.041 0.08,-0.073 0.15,-0.096 0.069,-0.022 0.207,-0.035 0.41,-0.035 l -0.035,-0.146 -1.88,0 0.04,0.146 c 0.247,0.013 0.415,0.055 0.501,0.128 0.086,0.076 0.178,0.28 0.274,0.62 l 1.009,3.495 c 0.061,0.221 0.091,0.359 0.091,0.412 0,0.072 -0.019,0.128 -0.061,0.167 -0.042,0.041 -0.105,0.06 -0.189,0.06 -0.078,0 -0.186,-0.009 -0.324,-0.027 l 0,0.155 1.369,0.203 z m -0.93,-3.192 c 0.165,-0.197 0.387,-0.296 0.666,-0.296 0.139,0 0.28,0.038 0.424,0.116 0.144,0.077 0.284,0.191 0.42,0.343 0.138,0.152 0.262,0.327 0.37,0.524 0.109,0.2 0.207,0.433 0.294,0.702 0.086,0.268 0.129,0.534 0.129,0.798 0,0.213 -0.048,0.374 -0.146,0.488 -0.096,0.114 -0.211,0.17 -0.341,0.17 -0.287,0 -0.572,-0.165 -0.852,-0.495 -0.281,-0.329 -0.486,-0.716 -0.617,-1.157 l -0.347,-1.193 m 7.061,-2.14 0.515,0 c -0.796,1.277 -1.193,2.557 -1.193,3.836 0,0.503 0.056,1.003 0.171,1.501 0.093,0.398 0.221,0.781 0.383,1.15 0.104,0.235 0.317,0.631 0.639,1.185 l -0.515,0 c -0.5,-0.669 -0.87,-1.338 -1.11,-2.013 -0.205,-0.579 -0.307,-1.185 -0.307,-1.819 0,-0.718 0.137,-1.413 0.41,-2.084 0.275,-0.669 0.61,-1.256 1.007,-1.756 m 2.942,6.322 -0.176,0 c -0.239,-0.391 -0.456,-0.665 -0.651,-0.825 -0.194,-0.158 -0.438,-0.275 -0.73,-0.356 l -0.04,-0.156 0.602,0 -0.666,-2.31 c -0.085,-0.296 -0.127,-0.516 -0.127,-0.659 0,-0.114 0.036,-0.208 0.11,-0.282 0.076,-0.072 0.171,-0.11 0.288,-0.11 0.152,0 0.303,0.052 0.452,0.152 0.217,0.146 0.449,0.399 0.694,0.755 l -0.132,0.099 c -0.221,-0.274 -0.363,-0.438 -0.427,-0.49 -0.109,-0.093 -0.197,-0.14 -0.263,-0.14 -0.03,0 -0.055,0.012 -0.076,0.035 -0.021,0.025 -0.032,0.059 -0.032,0.105 0,0.074 0.037,0.238 0.111,0.49 l 0.687,2.355 0.622,0 0.069,0.251 -0.627,0 0.312,1.086 m 0.059,-5.5 0.08,-0.128 c 0.353,0.133 0.624,0.322 0.81,0.563 0.186,0.242 0.279,0.483 0.279,0.718 0,0.134 -0.041,0.244 -0.125,0.332 -0.083,0.087 -0.18,0.132 -0.289,0.132 -0.107,0 -0.2,-0.042 -0.278,-0.124 -0.078,-0.083 -0.118,-0.18 -0.118,-0.295 0,-0.058 0.009,-0.111 0.029,-0.156 0.007,-0.023 0.043,-0.068 0.107,-0.132 0.064,-0.063 0.101,-0.107 0.112,-0.128 0.016,-0.04 0.024,-0.083 0.024,-0.131 0,-0.099 -0.048,-0.201 -0.144,-0.307 -0.125,-0.139 -0.288,-0.254 -0.487,-0.344 m 5.963,4.51 -0.778,-2.705 -0.088,-0.363 c -0.007,-0.036 -0.012,-0.065 -0.012,-0.088 0,-0.043 0.013,-0.08 0.04,-0.114 0.021,-0.023 0.049,-0.034 0.08,-0.034 0.035,0 0.079,0.022 0.135,0.065 0.104,0.076 0.243,0.235 0.415,0.477 l 0.136,-0.095 c -0.183,-0.276 -0.373,-0.488 -0.566,-0.633 -0.195,-0.144 -0.374,-0.218 -0.54,-0.218 -0.114,0 -0.199,0.029 -0.256,0.087 -0.058,0.056 -0.086,0.139 -0.086,0.249 0,0.131 0.028,0.303 0.087,0.515 l 0.084,0.298 c -0.349,-0.455 -0.669,-0.772 -0.962,-0.953 -0.209,-0.131 -0.416,-0.196 -0.618,-0.196 -0.195,0 -0.362,0.081 -0.503,0.242 -0.142,0.162 -0.212,0.383 -0.212,0.665 0,0.422 0.127,0.869 0.381,1.339 0.254,0.469 0.577,0.845 0.968,1.127 0.306,0.225 0.594,0.335 0.866,0.335 0.163,0 0.298,-0.042 0.405,-0.127 0.108,-0.086 0.19,-0.226 0.246,-0.423 l 0.143,0.454 0.635,0.096 z m -1.421,-0.207 c -0.17,0 -0.351,-0.079 -0.543,-0.238 -0.271,-0.227 -0.512,-0.563 -0.724,-1.006 -0.212,-0.445 -0.317,-0.847 -0.317,-1.206 0,-0.181 0.046,-0.325 0.136,-0.43 0.09,-0.105 0.194,-0.157 0.311,-0.157 0.29,0 0.605,0.214 0.945,0.642 0.455,0.57 0.683,1.155 0.683,1.752 0,0.227 -0.044,0.39 -0.132,0.492 -0.087,0.1 -0.207,0.151 -0.359,0.151 m 2.682,-5.125 c 0.394,0.5 0.729,1.087 1.004,1.756 0.276,0.671 0.413,1.366 0.413,2.084 0,0.634 -0.102,1.24 -0.307,1.819 -0.24,0.675 -0.61,1.344 -1.11,2.013 l -0.514,0 c 0.324,-0.559 0.538,-0.959 0.642,-1.197 0.162,-0.369 0.289,-0.751 0.38,-1.15 0.113,-0.493 0.171,-0.989 0.171,-1.489 0,-1.279 -0.398,-2.559 -1.193,-3.836 l 0.514,0"
       style="fill:#231f20;fill-opacity:1;fill-rule:nonzero;stroke:none"
       id="path1596"
       inkscape:connector-curvature="0" /><path
       d="m 234.626,139.488 0,5.733 4.146,0 0,-0.678 -3.386,0 0,-1.755 3.171,0 0,-0.673 -3.171,0 0,-1.952 3.518,0 0,-0.675 -4.278,0 m 5.237,0 0.704,0 0,2.173 c 0,0.297 0.039,0.572 0.118,0.821 0.051,0.165 0.138,0.293 0.261,0.385 0.123,0.094 0.262,0.139 0.415,0.139 0.172,0 0.344,-0.05 0.516,-0.152 l 0.243,0.653 c -0.245,0.151 -0.486,0.227 -0.725,0.227 -0.164,0 -0.314,-0.047 -0.45,-0.14 -0.137,-0.094 -0.287,-0.289 -0.449,-0.584 l 0,0.63 -0.633,0 0,-4.152 m 2.652,-1.6 c 0.167,-0.058 0.319,-0.086 0.454,-0.086 0.223,0 0.417,0.053 0.578,0.161 0.162,0.109 0.305,0.279 0.431,0.511 0.093,0.173 0.225,0.487 0.394,0.942 l 1.58,4.224 -0.704,0 -0.888,-2.42 c -0.111,-0.308 -0.209,-0.624 -0.289,-0.946 -0.09,0.336 -0.189,0.656 -0.302,0.962 l -0.863,2.404 -0.76,0 1.577,-4.16 c -0.029,-0.076 -0.049,-0.134 -0.063,-0.172 -0.099,-0.28 -0.17,-0.455 -0.214,-0.525 -0.06,-0.094 -0.137,-0.167 -0.231,-0.218 -0.094,-0.053 -0.22,-0.079 -0.375,-0.079 -0.115,0 -0.25,0.02 -0.404,0.062 l 0.079,-0.66 m 5.573,2.228 c -0.128,-0.017 -0.231,-0.026 -0.31,-0.026 -0.104,0 -0.184,0.016 -0.24,0.05 -0.056,0.034 -0.097,0.08 -0.121,0.137 -0.024,0.057 -0.037,0.187 -0.037,0.386 l 0,2.429 0.708,0 0,0.548 -0.708,0 0,1.451 -0.699,-0.422 0,-1.029 -0.517,0 0,-0.548 0.517,0 0,-2.389 c 0,-0.423 0.028,-0.699 0.085,-0.832 0.057,-0.13 0.157,-0.237 0.297,-0.317 0.141,-0.081 0.339,-0.121 0.594,-0.121 0.157,0 0.334,0.02 0.532,0.061 l -0.101,0.622 m 0.684,-0.628 0.705,0 0,2.271 c 0,0.326 0.038,0.581 0.117,0.767 0.078,0.184 0.208,0.331 0.392,0.44 0.184,0.107 0.38,0.162 0.589,0.162 0.279,0 0.495,-0.08 0.647,-0.241 0.153,-0.159 0.228,-0.416 0.228,-0.768 l 0,-2.631 0.705,0 0,2.631 c 0,0.407 -0.049,0.717 -0.147,0.931 -0.097,0.213 -0.26,0.381 -0.487,0.502 -0.226,0.121 -0.494,0.182 -0.801,0.182 -0.5,0 -0.915,-0.19 -1.243,-0.571 l 0,2.058 -0.705,0 0,-5.733 m 4.451,0 0.704,0 0,2.173 c 0,0.297 0.038,0.572 0.118,0.821 0.052,0.165 0.139,0.293 0.262,0.385 0.121,0.094 0.26,0.139 0.413,0.139 0.172,0 0.344,-0.05 0.516,-0.152 l 0.242,0.653 c -0.244,0.151 -0.485,0.227 -0.723,0.227 -0.163,0 -0.314,-0.047 -0.45,-0.14 -0.138,-0.094 -0.287,-0.289 -0.449,-0.584 l 0,0.63 -0.633,0 0,-4.152 m 2.42,2.076 c 0,-0.702 0.179,-1.239 0.539,-1.612 0.357,-0.373 0.828,-0.559 1.409,-0.559 0.363,0 0.697,0.085 1.003,0.254 0.305,0.17 0.54,0.408 0.7,0.714 0.16,0.306 0.241,0.727 0.241,1.262 0,0.658 -0.182,1.176 -0.544,1.55 -0.362,0.374 -0.829,0.561 -1.4,0.561 -0.514,0 -0.948,-0.154 -1.306,-0.462 -0.428,-0.37 -0.642,-0.94 -0.642,-1.708 z m 0.724,0 c 0,0.531 0.116,0.929 0.348,1.192 0.231,0.264 0.523,0.395 0.876,0.395 0.346,0 0.637,-0.131 0.87,-0.396 0.233,-0.266 0.35,-0.654 0.35,-1.168 0,-0.545 -0.116,-0.951 -0.348,-1.216 -0.232,-0.266 -0.523,-0.398 -0.872,-0.398 -0.353,0 -0.645,0.131 -0.876,0.396 -0.232,0.264 -0.348,0.662 -0.348,1.195 m 6.707,-0.556 c -0.049,-0.352 -0.167,-0.613 -0.352,-0.782 -0.185,-0.169 -0.415,-0.253 -0.693,-0.253 -0.343,0 -0.622,0.126 -0.836,0.378 -0.214,0.253 -0.321,0.658 -0.321,1.216 0,0.551 0.11,0.953 0.333,1.207 0.222,0.254 0.51,0.381 0.863,0.381 0.236,0 0.436,-0.07 0.602,-0.211 0.165,-0.141 0.28,-0.351 0.345,-0.63 l 0.684,0.106 c -0.08,0.42 -0.263,0.744 -0.551,0.972 -0.287,0.228 -0.655,0.342 -1.106,0.342 -0.357,0 -0.688,-0.084 -0.992,-0.252 -0.304,-0.169 -0.53,-0.42 -0.678,-0.757 -0.149,-0.337 -0.224,-0.729 -0.224,-1.177 0,-0.693 0.173,-1.227 0.518,-1.597 0.346,-0.373 0.803,-0.558 1.371,-0.558 0.454,0 0.837,0.134 1.148,0.405 0.312,0.27 0.506,0.644 0.582,1.12 l -0.693,0.09 m 1.263,-3.12 c 0.167,-0.058 0.318,-0.086 0.454,-0.086 0.224,0 0.417,0.053 0.579,0.161 0.161,0.109 0.305,0.279 0.431,0.511 0.093,0.173 0.224,0.487 0.393,0.942 l 1.58,4.224 -0.704,0 -0.886,-2.42 c -0.113,-0.308 -0.208,-0.624 -0.29,-0.946 -0.089,0.336 -0.189,0.656 -0.302,0.962 l -0.864,2.404 -0.759,0 1.577,-4.16 c -0.028,-0.076 -0.049,-0.134 -0.063,-0.172 -0.099,-0.28 -0.171,-0.455 -0.215,-0.525 -0.06,-0.094 -0.137,-0.167 -0.231,-0.218 -0.094,-0.053 -0.219,-0.079 -0.375,-0.079 -0.115,0 -0.249,0.02 -0.403,0.062 l 0.078,-0.66 m 5.572,2.228 c -0.127,-0.017 -0.23,-0.026 -0.307,-0.026 -0.106,0 -0.185,0.016 -0.242,0.05 -0.055,0.034 -0.095,0.08 -0.121,0.137 -0.025,0.057 -0.037,0.187 -0.037,0.386 l 0,2.429 0.707,0 0,0.548 -0.707,0 0,1.451 -0.7,-0.422 0,-1.029 -0.516,0 0,-0.548 0.516,0 0,-2.389 c 0,-0.423 0.029,-0.699 0.087,-0.832 0.056,-0.13 0.155,-0.237 0.297,-0.317 0.14,-0.081 0.339,-0.121 0.594,-0.121 0.157,0 0.333,0.02 0.533,0.061 l -0.104,0.622 m 3.528,0.708 c -0.106,-0.296 -0.251,-0.513 -0.434,-0.648 -0.182,-0.137 -0.402,-0.203 -0.66,-0.203 -0.348,0 -0.637,0.121 -0.869,0.362 -0.232,0.243 -0.36,0.593 -0.387,1.048 l 3.099,0 c 0,0.083 0.002,0.146 0.002,0.188 0,0.686 -0.175,1.218 -0.527,1.596 -0.352,0.378 -0.807,0.567 -1.362,0.567 -0.573,0 -1.04,-0.193 -1.4,-0.579 -0.36,-0.385 -0.54,-0.928 -0.54,-1.627 0,-0.675 0.178,-1.2 0.535,-1.575 0.355,-0.374 0.837,-0.56 1.445,-0.56 0.482,0 0.879,0.117 1.187,0.352 0.312,0.235 0.525,0.564 0.638,0.989 l -0.727,0.09 z m -2.311,1.138 c 0.024,0.363 0.145,0.652 0.366,0.869 0.221,0.216 0.491,0.324 0.815,0.324 0.358,0 0.649,-0.135 0.873,-0.407 0.145,-0.175 0.234,-0.437 0.264,-0.786 l -2.318,0 m 3.644,-1.235 c 0.08,-0.441 0.26,-0.774 0.542,-0.998 0.284,-0.224 0.695,-0.336 1.235,-0.336 0.326,0 0.618,0.056 0.876,0.17 0.259,0.113 0.455,0.274 0.592,0.481 0.137,0.207 0.206,0.429 0.206,0.663 0,0.239 -0.057,0.441 -0.168,0.603 -0.113,0.16 -0.267,0.284 -0.464,0.369 -0.196,0.084 -0.544,0.194 -1.042,0.327 -0.344,0.094 -0.552,0.153 -0.622,0.18 -0.122,0.049 -0.212,0.112 -0.271,0.187 -0.056,0.073 -0.085,0.155 -0.085,0.247 0,0.143 0.07,0.268 0.207,0.375 0.139,0.107 0.37,0.16 0.694,0.16 0.272,0 0.485,-0.06 0.634,-0.179 0.15,-0.121 0.241,-0.288 0.272,-0.501 l 0.688,0.093 c -0.045,0.269 -0.126,0.484 -0.242,0.644 -0.117,0.161 -0.3,0.288 -0.546,0.382 -0.246,0.093 -0.533,0.14 -0.859,0.14 -0.216,0 -0.418,-0.028 -0.606,-0.084 -0.19,-0.056 -0.34,-0.125 -0.449,-0.206 -0.145,-0.104 -0.261,-0.235 -0.345,-0.392 -0.085,-0.158 -0.128,-0.33 -0.128,-0.515 0,-0.203 0.051,-0.389 0.154,-0.557 0.102,-0.169 0.254,-0.3 0.453,-0.395 0.2,-0.096 0.559,-0.208 1.074,-0.338 0.384,-0.097 0.623,-0.176 0.72,-0.239 0.138,-0.091 0.207,-0.217 0.207,-0.375 0,-0.179 -0.078,-0.332 -0.234,-0.464 -0.157,-0.132 -0.397,-0.196 -0.72,-0.196 -0.32,0 -0.57,0.073 -0.748,0.221 -0.18,0.149 -0.288,0.364 -0.327,0.642 l -0.698,-0.109 m -26.119,-7.776 c 0.529,0.06 0.94,0.144 1.232,0.251 0.44,0.159 0.775,0.369 1.002,0.625 0.172,0.2 0.258,0.406 0.258,0.622 0,0.155 -0.068,0.288 -0.2,0.4 -0.132,0.112 -0.339,0.168 -0.614,0.168 -0.384,0 -0.756,-0.112 -1.119,-0.338 -0.362,-0.226 -0.663,-0.542 -0.902,-0.949 -0.242,-0.407 -0.362,-0.804 -0.362,-1.193 0,-0.29 0.098,-0.553 0.29,-0.794 0.193,-0.24 0.481,-0.36 0.861,-0.36 0.559,0 1.15,0.308 1.767,0.92 l -0.083,0.113 c -0.341,-0.262 -0.598,-0.433 -0.771,-0.511 -0.174,-0.077 -0.354,-0.115 -0.541,-0.115 -0.236,0 -0.435,0.081 -0.599,0.245 -0.165,0.162 -0.247,0.36 -0.247,0.592 0,0.086 0.01,0.194 0.028,0.324 z m 0.028,0.193 c 0.139,0.552 0.36,0.969 0.658,1.253 0.299,0.282 0.581,0.424 0.847,0.424 0.128,0 0.226,-0.034 0.296,-0.102 0.068,-0.067 0.103,-0.156 0.103,-0.265 0,-0.18 -0.08,-0.371 -0.24,-0.57 -0.161,-0.198 -0.402,-0.37 -0.723,-0.514 -0.241,-0.106 -0.556,-0.182 -0.941,-0.226 m 5.442,-3.352 0.505,0 c -0.78,1.251 -1.17,2.505 -1.17,3.759 0,0.491 0.057,0.982 0.168,1.471 0.092,0.39 0.216,0.765 0.376,1.126 0.102,0.231 0.31,0.619 0.626,1.161 l -0.505,0 c -0.491,-0.654 -0.852,-1.312 -1.087,-1.971 -0.201,-0.569 -0.302,-1.163 -0.302,-1.784 0,-0.703 0.134,-1.384 0.404,-2.041 0.268,-0.657 0.595,-1.231 0.985,-1.721 m 2.882,6.195 -0.173,0 c -0.234,-0.383 -0.446,-0.653 -0.638,-0.808 -0.188,-0.155 -0.427,-0.272 -0.714,-0.351 l -0.04,-0.151 0.591,0 -0.653,-2.265 c -0.083,-0.289 -0.125,-0.504 -0.125,-0.645 0,-0.113 0.036,-0.204 0.109,-0.276 0.074,-0.072 0.166,-0.108 0.282,-0.108 0.149,0 0.296,0.051 0.443,0.149 0.212,0.144 0.44,0.391 0.68,0.74 l -0.129,0.097 c -0.217,-0.267 -0.357,-0.429 -0.419,-0.48 -0.107,-0.093 -0.193,-0.138 -0.258,-0.138 -0.029,0 -0.054,0.012 -0.074,0.036 -0.022,0.023 -0.032,0.057 -0.032,0.102 0,0.072 0.038,0.233 0.11,0.48 l 0.673,2.308 0.61,0 0.066,0.246 -0.614,0 0.305,1.064 m 0.058,-5.389 0.08,-0.125 c 0.346,0.13 0.61,0.314 0.793,0.551 0.182,0.237 0.273,0.472 0.273,0.704 0,0.13 -0.041,0.238 -0.122,0.324 -0.082,0.087 -0.177,0.13 -0.284,0.13 -0.105,0 -0.195,-0.041 -0.272,-0.122 -0.077,-0.08 -0.115,-0.178 -0.115,-0.289 0,-0.058 0.009,-0.108 0.027,-0.153 0.008,-0.024 0.043,-0.066 0.106,-0.13 0.062,-0.061 0.098,-0.104 0.109,-0.125 0.016,-0.039 0.025,-0.081 0.025,-0.127 0,-0.097 -0.048,-0.198 -0.142,-0.302 -0.122,-0.136 -0.282,-0.247 -0.478,-0.336 m 5.843,4.419 -0.621,-0.094 -0.14,-0.446 c -0.056,0.193 -0.136,0.331 -0.242,0.415 -0.105,0.083 -0.237,0.125 -0.396,0.125 -0.266,0 -0.549,-0.11 -0.85,-0.329 -0.383,-0.276 -0.698,-0.645 -0.947,-1.105 -0.25,-0.461 -0.374,-0.897 -0.374,-1.311 0,-0.277 0.069,-0.494 0.208,-0.652 0.138,-0.157 0.301,-0.237 0.491,-0.237 0.199,0 0.402,0.064 0.608,0.192 0.287,0.177 0.6,0.49 0.942,0.935 l -0.081,-0.294 c -0.059,-0.208 -0.087,-0.376 -0.087,-0.504 0,-0.106 0.027,-0.187 0.084,-0.245 0.055,-0.055 0.139,-0.084 0.252,-0.084 0.162,0 0.338,0.071 0.528,0.214 0.19,0.141 0.375,0.349 0.556,0.619 l -0.135,0.095 c -0.168,-0.239 -0.304,-0.394 -0.405,-0.47 -0.055,-0.042 -0.099,-0.062 -0.134,-0.062 -0.031,0 -0.057,0.011 -0.077,0.035 -0.027,0.031 -0.04,0.068 -0.04,0.109 0,0.023 0.005,0.053 0.012,0.086 l 0.087,0.355 0.761,2.653 z m -1.392,-0.204 c 0.148,0 0.266,-0.049 0.352,-0.149 0.086,-0.098 0.129,-0.259 0.129,-0.479 0,-0.588 -0.222,-1.16 -0.668,-1.719 -0.334,-0.419 -0.643,-0.628 -0.927,-0.628 -0.115,0 -0.216,0.051 -0.304,0.153 -0.09,0.104 -0.135,0.244 -0.135,0.421 0,0.352 0.104,0.745 0.312,1.181 0.207,0.436 0.444,0.765 0.71,0.985 0.187,0.158 0.365,0.235 0.531,0.235 m 2.629,-5.021 c 0.385,0.49 0.712,1.064 0.983,1.721 0.27,0.657 0.405,1.338 0.405,2.041 0,0.621 -0.101,1.215 -0.301,1.784 -0.235,0.659 -0.596,1.317 -1.087,1.971 l -0.504,0 c 0.316,-0.548 0.527,-0.939 0.629,-1.174 0.159,-0.359 0.283,-0.735 0.372,-1.126 0.111,-0.481 0.168,-0.968 0.168,-1.458 0,-1.254 -0.391,-2.508 -1.169,-3.759 l 0.504,0"
       style="fill:#231f20;fill-opacity:1;fill-rule:nonzero;stroke:none"
       id="path1598"
       inkscape:connector-curvature="0" /><path
       d="m 93.8,136.315 c 0.855,0 4.085,0 6.097,0 2.032,0 4.065,0 6.097,0 1.906,0 3.811,0 5.716,0 1.906,0 3.811,0 5.715,0 0.637,0 1.271,0 1.907,0"
       style="fill:none;stroke:#231f20;stroke-width:0.5;stroke-linecap:butt;stroke-linejoin:miter;stroke-miterlimit:10;stroke-opacity:1;stroke-dasharray:none"
       id="path1600"
       inkscape:connector-curvature="0" /><path
       d="m 117.521,136.315 -1.509,-1.509 5.282,1.509 -5.282,1.509 1.509,-1.509"
       style="fill:#231f20;fill-opacity:1;fill-rule:evenodd;stroke:none"
       id="path1602"
       inkscape:connector-curvature="0" /><path
       d="m 117.521,136.315 -1.509,-1.509 5.282,1.509 -5.282,1.509 1.509,-1.509 z m 69.803,0.381 c 0.856,0 4.085,0 6.098,0 2.032,0 4.064,0 6.097,0 1.905,0 3.811,0 5.715,0 1.907,0 3.811,0 5.716,0 0.636,0 1.271,0 1.905,0"
       style="fill:none;stroke:#231f20;stroke-width:0.5;stroke-linecap:butt;stroke-linejoin:miter;stroke-miterlimit:10;stroke-opacity:1;stroke-dasharray:none"
       id="path1604"
       inkscape:connector-curvature="0" /><path
       d="m 211.045,136.696 -1.509,-1.508 5.281,1.508 -5.281,1.509 1.509,-1.509"
       style="fill:#231f20;fill-opacity:1;fill-rule:evenodd;stroke:none"
       id="path1606"
       inkscape:connector-curvature="0" /><path
       d="m 211.045,136.696 -1.509,-1.508 5.281,1.508 -5.281,1.509 1.509,-1.509 z m -82.747,20.597 c -13.021,4.343 -0.06,10.202 3.234,12.126"
       style="fill:none;stroke:#231f20;stroke-width:0.5;stroke-linecap:butt;stroke-linejoin:miter;stroke-miterlimit:10;stroke-opacity:1;stroke-dasharray:none"
       id="path1608"
       inkscape:connector-curvature="0" /><path
       d="m 130.75,168.962 -0.271,-1.031 1.9,1.983 -2.661,-0.68 1.032,-0.272"
       style="fill:#231f20;fill-opacity:1;fill-rule:evenodd;stroke:none"
       id="path1610"
       inkscape:connector-curvature="0" /><path
       d="m 130.75,168.962 -0.271,-1.031 1.9,1.983 -2.661,-0.68 1.032,-0.272 z m 47.967,1.092 c 12.617,-2.994 4.236,-9.394 1.616,-12.26"
       style="fill:none;stroke:#231f20;stroke-width:0.5;stroke-linecap:butt;stroke-linejoin:miter;stroke-miterlimit:10;stroke-opacity:1;stroke-dasharray:none"
       id="path1612"
       inkscape:connector-curvature="0" /><path
       d="m 180.944,158.463 -0.049,1.065 -1.223,-2.458 2.338,1.44 -1.066,-0.047"
       style="fill:#231f20;fill-opacity:1;fill-rule:evenodd;stroke:none"
       id="path1614"
       inkscape:connector-curvature="0" /><path
       d="m 180.944,158.463 -0.049,1.065 -1.223,-2.458 2.338,1.44 -1.066,-0.047 z m -42.982,12.034 c 7.377,0 22.385,0 33.355,0 0.742,0 1.483,0 2.224,0"
       style="fill:none;stroke:#231f20;stroke-width:0.5;stroke-linecap:butt;stroke-linejoin:miter;stroke-miterlimit:10;stroke-opacity:1;stroke-dasharray:none"
       id="path1616"
       inkscape:connector-curvature="0" /><path
       d="m 152.517,163.925 -0.12,0 c 0.06,0.185 0.14,0.343 0.238,0.475 0.098,0.133 0.214,0.228 0.346,0.284 0.132,0.056 0.32,0.084 0.564,0.084 l 1.33,0 -0.14,-0.467 -0.812,0 -0.411,-1.24 c -0.08,-0.246 -0.119,-0.439 -0.119,-0.581 0,-0.207 0.096,-0.312 0.291,-0.312 0.182,0 0.33,0.146 0.447,0.438 l 0.133,0 c -0.177,-0.559 -0.454,-0.838 -0.832,-0.838 -0.142,0 -0.263,0.045 -0.365,0.137 -0.101,0.092 -0.152,0.241 -0.152,0.447 0,0.178 0.082,0.507 0.245,0.987 l 0.325,0.962 c -0.27,0 -0.474,-0.018 -0.614,-0.051 -0.139,-0.035 -0.256,-0.143 -0.354,-0.325"
       style="fill:#231f20;fill-opacity:1;fill-rule:nonzero;stroke:none"
       id="path1618"
       inkscape:connector-curvature="0" /><path
       d="m 157.278,160.414 c -0.23,-0.276 -0.462,-0.479 -0.696,-0.608 -0.234,-0.13 -0.482,-0.194 -0.743,-0.194 -0.314,0 -0.559,0.088 -0.734,0.265 -0.176,0.177 -0.264,0.415 -0.264,0.713 0,0.338 0.095,0.671 0.283,0.998 0.189,0.328 0.444,0.593 0.763,0.797 0.32,0.205 0.632,0.307 0.94,0.307 0.241,0 0.421,-0.05 0.541,-0.151 0.119,-0.101 0.179,-0.224 0.179,-0.37 0,-0.136 -0.043,-0.254 -0.127,-0.351 -0.061,-0.075 -0.137,-0.113 -0.229,-0.113 -0.068,0 -0.124,0.022 -0.17,0.067 -0.045,0.044 -0.067,0.099 -0.067,0.165 0,0.042 0.007,0.081 0.024,0.116 0.016,0.035 0.051,0.078 0.103,0.128 0.052,0.05 0.083,0.086 0.094,0.108 0.011,0.022 0.016,0.046 0.016,0.069 0,0.047 -0.02,0.086 -0.063,0.117 -0.063,0.044 -0.154,0.066 -0.271,0.066 -0.216,0 -0.431,-0.076 -0.643,-0.23 -0.213,-0.152 -0.394,-0.368 -0.544,-0.648 -0.182,-0.341 -0.272,-0.682 -0.272,-1.022 0,-0.226 0.065,-0.404 0.192,-0.536 0.129,-0.13 0.303,-0.197 0.524,-0.197 0.171,0 0.339,0.043 0.506,0.128 0.167,0.086 0.354,0.239 0.562,0.462 l 0.096,-0.086"
       style="fill:#231f20;fill-opacity:1;fill-rule:nonzero;stroke:none"
       id="path1620"
       inkscape:connector-curvature="0" /><path
       d="m 151.46,123.317 -0.12,0 c 0.06,0.183 0.139,0.342 0.238,0.474 0.098,0.133 0.213,0.228 0.346,0.283 0.134,0.057 0.321,0.085 0.564,0.085 l 1.329,0 -0.138,-0.466 -0.813,0 -0.411,-1.241 c -0.08,-0.246 -0.12,-0.439 -0.12,-0.581 0,-0.208 0.098,-0.311 0.292,-0.311 0.182,0 0.331,0.146 0.448,0.437 l 0.133,0 c -0.177,-0.559 -0.455,-0.838 -0.833,-0.838 -0.141,0 -0.263,0.045 -0.364,0.137 -0.102,0.091 -0.153,0.241 -0.153,0.446 0,0.179 0.082,0.509 0.245,0.988 l 0.325,0.963 c -0.269,0 -0.474,-0.019 -0.613,-0.053 -0.139,-0.033 -0.258,-0.141 -0.355,-0.323 m 3.641,0.114 -1.137,-0.17 0,-0.128 c 0.115,0.015 0.204,0.022 0.267,0.022 0.072,0 0.124,-0.016 0.159,-0.049 0.033,-0.033 0.051,-0.08 0.051,-0.14 0,-0.044 -0.025,-0.157 -0.077,-0.342 l -0.838,-2.904 c -0.08,-0.28 -0.155,-0.452 -0.227,-0.513 -0.072,-0.062 -0.211,-0.097 -0.417,-0.107 l -0.032,-0.122 1.561,0 0.03,0.122 c -0.171,0 -0.284,0.011 -0.342,0.028 -0.058,0.019 -0.099,0.046 -0.124,0.08 -0.025,0.034 -0.038,0.076 -0.038,0.124 0,0.051 0.024,0.16 0.073,0.328 l 0.242,0.856 c 0.106,-0.062 0.202,-0.106 0.286,-0.129 0.086,-0.024 0.183,-0.036 0.294,-0.036 0.526,0 0.987,0.251 1.383,0.754 0.395,0.503 0.593,0.997 0.593,1.483 0,0.25 -0.069,0.453 -0.209,0.608 -0.139,0.156 -0.308,0.235 -0.504,0.235 -0.197,0 -0.39,-0.057 -0.578,-0.17 -0.189,-0.112 -0.404,-0.311 -0.645,-0.594 l 0.229,0.764 z m -0.773,-2.653 0.289,0.992 c 0.108,0.367 0.279,0.686 0.511,0.961 0.234,0.274 0.47,0.411 0.708,0.411 0.109,0 0.204,-0.048 0.285,-0.142 0.08,-0.092 0.12,-0.228 0.12,-0.405 0,-0.219 -0.036,-0.44 -0.107,-0.663 -0.073,-0.224 -0.154,-0.417 -0.244,-0.582 -0.091,-0.165 -0.193,-0.31 -0.307,-0.436 -0.113,-0.126 -0.23,-0.221 -0.35,-0.286 -0.12,-0.063 -0.236,-0.095 -0.351,-0.095 -0.232,0 -0.417,0.082 -0.554,0.245"
       style="fill:#231f20;fill-opacity:1;fill-rule:nonzero;stroke:none"
       id="path1622"
       inkscape:connector-curvature="0" /><path
       d="m 159.878,122.777 c 0.604,0 2.886,0 4.307,0 1.436,0 2.872,0 4.308,0 1.347,0 2.693,0 4.039,0 1.346,0 2.693,0 4.037,0 0.45,0 0.899,0 1.347,0"
       style="fill:none;stroke:#231f20;stroke-width:0.5;stroke-linecap:butt;stroke-linejoin:miter;stroke-miterlimit:10;stroke-opacity:1;stroke-dasharray:none"
       id="path1624"
       inkscape:connector-curvature="0" /><path
       d="m 176.956,122.777 -0.799,-0.801 2.799,0.801 -2.799,0.799 0.799,-0.799"
       style="fill:#231f20;fill-opacity:1;fill-rule:evenodd;stroke:none"
       id="path1626"
       inkscape:connector-curvature="0" /><path
       d="m 176.956,122.777 -0.799,-0.801 2.799,0.801 -2.799,0.799 0.799,-0.799 z m -28.651,0.269 c -0.603,0 -2.886,0 -4.307,0 -1.435,0 -2.872,0 -4.308,0 -1.346,0 -2.692,0 -4.038,0 -1.346,0 -2.692,0 -4.038,0 -0.449,0 -0.898,0 -1.346,0"
       style="fill:none;stroke:#231f20;stroke-width:0.5;stroke-linecap:butt;stroke-linejoin:miter;stroke-miterlimit:10;stroke-opacity:1;stroke-dasharray:none"
       id="path1628"
       inkscape:connector-curvature="0" /><path
       d="m 131.227,123.046 0.8,0.799 -2.799,-0.799 2.799,-0.801 -0.8,0.801"
       style="fill:#231f20;fill-opacity:1;fill-rule:evenodd;stroke:none"
       id="path1630"
       inkscape:connector-curvature="0" /><path
       d="m 131.227,123.046 0.8,0.799 -2.799,-0.799 2.799,-0.801 -0.8,0.801 z"
       style="fill:none;stroke:#231f20;stroke-width:0.5;stroke-linecap:butt;stroke-linejoin:miter;stroke-miterlimit:10;stroke-opacity:1;stroke-dasharray:none"
       id="path1632"
       inkscape:connector-curvature="0" /><path
       d="m 108.545,145.018 1.238,-1.913 c 0.221,-0.338 0.404,-0.555 0.548,-0.649 0.146,-0.096 0.336,-0.143 0.572,-0.143 l -0.041,-0.136 -2.129,0 0.033,0.136 c 0.17,0.018 0.289,0.058 0.359,0.122 0.07,0.064 0.105,0.136 0.105,0.217 0,0.074 -0.012,0.146 -0.037,0.213 -0.02,0.051 -0.091,0.17 -0.213,0.362 l -1.014,1.588 -0.49,-1.655 c -0.081,-0.264 -0.121,-0.443 -0.121,-0.533 0,-0.094 0.034,-0.165 0.103,-0.214 0.069,-0.05 0.238,-0.082 0.508,-0.1 l -0.059,-0.136 -1.975,0 0.049,0.136 c 0.191,0.004 0.32,0.022 0.387,0.052 0.098,0.044 0.17,0.101 0.217,0.169 0.064,0.1 0.142,0.309 0.236,0.626 l 0.88,3.017 c 0.067,0.232 0.099,0.417 0.099,0.557 0,0.098 -0.03,0.173 -0.093,0.225 -0.063,0.051 -0.185,0.078 -0.367,0.078 l -0.074,0 0.045,0.135 1.875,0 -0.036,-0.135 c -0.156,0.002 -0.271,-0.015 -0.347,-0.053 -0.106,-0.051 -0.183,-0.117 -0.232,-0.198 -0.049,-0.081 -0.122,-0.284 -0.218,-0.609 l -0.387,-1.281 1.776,1.338 c 0.236,0.176 0.39,0.316 0.464,0.419 0.044,0.063 0.067,0.122 0.067,0.173 0,0.045 -0.023,0.087 -0.068,0.129 -0.046,0.041 -0.116,0.069 -0.208,0.082 l 0.036,0.135 1.599,0 -0.033,-0.135 c -0.175,-0.031 -0.322,-0.069 -0.44,-0.117 -0.12,-0.048 -0.241,-0.114 -0.367,-0.197 -0.037,-0.025 -0.276,-0.206 -0.719,-0.546 l -1.528,-1.159"
       style="fill:#231f20;fill-opacity:1;fill-rule:nonzero;stroke:none"
       id="path1634"
       inkscape:connector-curvature="0" /><path
       d="m 153.234,115.643 c 0.096,-11.147 13.052,-11.623 13.052,-11.623"
       style="fill:none;stroke:#231f20;stroke-width:0.5;stroke-linecap:butt;stroke-linejoin:miter;stroke-miterlimit:10;stroke-opacity:1;stroke-dasharray:none"
       id="path1636"
       inkscape:connector-curvature="0" /><path
       d="m 165.381,104.054 -0.781,-0.727 2.666,0.658 -2.611,0.85 0.726,-0.781"
       style="fill:#231f20;fill-opacity:1;fill-rule:evenodd;stroke:none"
       id="path1638"
       inkscape:connector-curvature="0" /><path
       d="m 165.381,104.054 -0.781,-0.727 2.666,0.658 -2.611,0.85 0.726,-0.781 z"
       style="fill:none;stroke:#231f20;stroke-width:0.5;stroke-linecap:butt;stroke-linejoin:miter;stroke-miterlimit:10;stroke-opacity:1;stroke-dasharray:none"
       id="path1640"
       inkscape:connector-curvature="0" /><g
       id="g1642"><g
         id="g1644"
         clip-path="url(#clipPath1646)"><path
           d="m 170.466,101.829 2.073,5.401 0.771,0 2.209,-5.401 -0.814,0 -0.629,1.636 -2.259,0 -0.593,-1.636 -0.758,0 z m 1.557,2.218 1.831,0 -0.563,1.495 c -0.172,0.455 -0.3,0.828 -0.383,1.12 -0.069,-0.345 -0.166,-0.69 -0.292,-1.031 l -0.593,-1.584 m 3.99,-3.718 0,5.413 0.605,0 0,-0.508 c 0.142,0.198 0.303,0.347 0.482,0.447 0.179,0.1 0.397,0.148 0.652,0.148 0.335,0 0.63,-0.085 0.885,-0.257 0.255,-0.172 0.448,-0.413 0.578,-0.728 0.13,-0.312 0.195,-0.656 0.195,-1.029 0,-0.401 -0.071,-0.761 -0.215,-1.081 -0.144,-0.321 -0.353,-0.567 -0.627,-0.738 -0.273,-0.17 -0.562,-0.255 -0.863,-0.255 -0.222,0 -0.42,0.047 -0.596,0.14 -0.175,0.093 -0.319,0.211 -0.432,0.353 l 0,-1.905 -0.664,0 z m 0.601,3.434 c 0,-0.503 0.102,-0.876 0.306,-1.116 0.204,-0.24 0.451,-0.361 0.741,-0.361 0.295,0 0.546,0.124 0.757,0.373 0.209,0.251 0.314,0.636 0.314,1.16 0,0.498 -0.102,0.871 -0.307,1.12 -0.205,0.247 -0.45,0.371 -0.736,0.371 -0.282,0 -0.532,-0.132 -0.749,-0.396 -0.217,-0.264 -0.326,-0.648 -0.326,-1.151 m 3.353,0.022 c 0,0.724 0.201,1.261 0.604,1.61 0.336,0.291 0.746,0.434 1.23,0.434 0.539,0 0.977,-0.175 1.318,-0.528 0.343,-0.352 0.513,-0.84 0.513,-1.461 0,-0.503 -0.075,-0.899 -0.227,-1.187 -0.151,-0.289 -0.37,-0.513 -0.659,-0.672 -0.289,-0.16 -0.603,-0.24 -0.945,-0.24 -0.548,0 -0.99,0.175 -1.328,0.526 -0.337,0.351 -0.506,0.857 -0.506,1.518 z m 0.681,0 c 0,-0.501 0.109,-0.875 0.328,-1.126 0.218,-0.249 0.493,-0.373 0.825,-0.373 0.329,0 0.602,0.125 0.822,0.375 0.219,0.252 0.327,0.633 0.327,1.146 0,0.484 -0.109,0.851 -0.33,1.101 -0.219,0.249 -0.492,0.373 -0.819,0.373 -0.332,0 -0.607,-0.123 -0.825,-0.372 -0.219,-0.249 -0.328,-0.623 -0.328,-1.124 m 3.765,-3.456 0,5.413 0.604,0 0,-0.508 c 0.143,0.198 0.303,0.347 0.482,0.447 0.18,0.1 0.397,0.148 0.652,0.148 0.334,0 0.629,-0.085 0.885,-0.257 0.255,-0.172 0.448,-0.413 0.578,-0.728 0.131,-0.312 0.197,-0.656 0.197,-1.029 0,-0.401 -0.074,-0.761 -0.217,-1.081 -0.143,-0.321 -0.353,-0.567 -0.626,-0.738 -0.275,-0.17 -0.562,-0.255 -0.865,-0.255 -0.22,0 -0.417,0.047 -0.594,0.14 -0.175,0.093 -0.32,0.211 -0.433,0.353 l 0,-1.905 -0.663,0 z m 0.601,3.434 c 0,-0.503 0.101,-0.876 0.305,-1.116 0.204,-0.24 0.45,-0.361 0.741,-0.361 0.294,0 0.546,0.124 0.756,0.373 0.21,0.251 0.316,0.636 0.316,1.16 0,0.498 -0.103,0.871 -0.308,1.12 -0.205,0.247 -0.45,0.371 -0.735,0.371 -0.282,0 -0.532,-0.132 -0.749,-0.396 -0.218,-0.264 -0.326,-0.648 -0.326,-1.151 m 5.047,-1.341 c -0.121,-0.017 -0.217,-0.026 -0.292,-0.026 -0.098,0 -0.173,0.017 -0.226,0.049 -0.053,0.032 -0.091,0.075 -0.114,0.129 -0.024,0.053 -0.035,0.175 -0.035,0.364 l 0,2.288 0.667,0 0,0.516 -0.667,0 0,1.367 -0.66,-0.399 0,-0.968 -0.486,0 0,-0.516 0.486,0 0,-2.251 c 0,-0.398 0.028,-0.659 0.08,-0.783 0.055,-0.124 0.149,-0.224 0.282,-0.3 0.132,-0.076 0.319,-0.114 0.559,-0.114 0.147,0 0.315,0.019 0.501,0.058 l -0.095,0.586 m 0.397,1.363 c 0,0.724 0.202,1.261 0.604,1.61 0.337,0.291 0.748,0.434 1.23,0.434 0.539,0 0.978,-0.175 1.319,-0.528 0.342,-0.352 0.513,-0.84 0.513,-1.461 0,-0.503 -0.075,-0.899 -0.227,-1.187 -0.151,-0.289 -0.371,-0.513 -0.659,-0.672 -0.289,-0.16 -0.603,-0.24 -0.946,-0.24 -0.547,0 -0.989,0.175 -1.327,0.526 -0.337,0.351 -0.507,0.857 -0.507,1.518 z m 0.682,0 c 0,-0.501 0.109,-0.875 0.328,-1.126 0.218,-0.249 0.493,-0.373 0.824,-0.373 0.33,0 0.603,0.125 0.823,0.375 0.218,0.252 0.328,0.633 0.328,1.146 0,0.484 -0.111,0.851 -0.331,1.101 -0.218,0.249 -0.493,0.373 -0.82,0.373 -0.331,0 -0.606,-0.123 -0.824,-0.372 -0.219,-0.249 -0.328,-0.623 -0.328,-1.124 m 3.5,-0.789 c 0.073,-0.415 0.244,-0.727 0.509,-0.939 0.267,-0.211 0.655,-0.316 1.162,-0.316 0.308,0 0.583,0.053 0.826,0.16 0.244,0.106 0.429,0.258 0.557,0.453 0.13,0.195 0.195,0.403 0.195,0.625 0,0.225 -0.053,0.415 -0.159,0.566 -0.105,0.154 -0.251,0.269 -0.436,0.349 -0.185,0.079 -0.513,0.182 -0.983,0.308 -0.323,0.088 -0.519,0.145 -0.584,0.169 -0.116,0.046 -0.202,0.106 -0.254,0.177 -0.055,0.069 -0.082,0.146 -0.082,0.232 0,0.134 0.065,0.253 0.196,0.353 0.129,0.101 0.348,0.151 0.652,0.151 0.258,0 0.457,-0.056 0.598,-0.168 0.141,-0.114 0.226,-0.271 0.256,-0.472 l 0.648,0.088 c -0.041,0.253 -0.118,0.455 -0.228,0.605 -0.11,0.152 -0.282,0.272 -0.514,0.36 -0.232,0.088 -0.502,0.132 -0.808,0.132 -0.205,0 -0.396,-0.026 -0.573,-0.079 -0.179,-0.052 -0.319,-0.117 -0.422,-0.193 -0.137,-0.098 -0.246,-0.222 -0.327,-0.37 -0.078,-0.149 -0.118,-0.31 -0.118,-0.484 0,-0.192 0.048,-0.368 0.144,-0.525 0.097,-0.159 0.24,-0.283 0.428,-0.373 0.189,-0.089 0.526,-0.195 1.011,-0.317 0.361,-0.092 0.587,-0.167 0.679,-0.226 0.13,-0.086 0.194,-0.204 0.194,-0.353 0,-0.167 -0.073,-0.314 -0.221,-0.437 -0.147,-0.124 -0.374,-0.186 -0.677,-0.186 -0.303,0 -0.538,0.07 -0.706,0.209 -0.168,0.141 -0.271,0.342 -0.307,0.606 l -0.656,-0.105 m 4.704,3.471 -0.66299,0 0,0.7626 0.66299,0 0,-0.7626 z m 0,-4.638 -0.66299,0 0,3.9131 0.66299,0 0,-3.9131 z m 0.749,1.167 c 0.072,-0.415 0.243,-0.727 0.509,-0.939 0.266,-0.211 0.654,-0.316 1.163,-0.316 0.306,0 0.581,0.053 0.825,0.16 0.242,0.106 0.429,0.258 0.557,0.453 0.129,0.195 0.194,0.403 0.194,0.625 0,0.225 -0.053,0.415 -0.158,0.566 -0.106,0.154 -0.251,0.269 -0.437,0.349 -0.185,0.079 -0.513,0.182 -0.981,0.308 -0.325,0.088 -0.52,0.145 -0.585,0.169 -0.117,0.046 -0.202,0.106 -0.255,0.177 -0.055,0.069 -0.081,0.146 -0.081,0.232 0,0.134 0.065,0.253 0.195,0.353 0.13,0.101 0.348,0.151 0.651,0.151 0.258,0 0.457,-0.056 0.6,-0.168 0.141,-0.114 0.227,-0.271 0.256,-0.472 l 0.648,0.088 c -0.043,0.253 -0.118,0.455 -0.229,0.605 -0.111,0.152 -0.281,0.272 -0.513,0.36 -0.232,0.088 -0.502,0.132 -0.809,0.132 -0.204,0 -0.395,-0.026 -0.574,-0.079 -0.176,-0.052 -0.317,-0.117 -0.421,-0.193 -0.138,-0.098 -0.247,-0.222 -0.326,-0.37 -0.08,-0.149 -0.12,-0.31 -0.12,-0.484 0,-0.192 0.049,-0.368 0.146,-0.525 0.096,-0.159 0.24,-0.283 0.426,-0.373 0.189,-0.089 0.527,-0.195 1.012,-0.317 0.361,-0.092 0.587,-0.167 0.678,-0.226 0.131,-0.086 0.196,-0.204 0.196,-0.353 0,-0.167 -0.074,-0.314 -0.222,-0.437 -0.147,-0.124 -0.373,-0.186 -0.677,-0.186 -0.302,0 -0.537,0.07 -0.706,0.209 -0.168,0.141 -0.27,0.342 -0.307,0.606 l -0.655,-0.105 m -14.721,-11.003 -0.557,0 c 0.185,0.306 0.33,0.647 0.44,1.023 l 1.107,3.769 c 0.157,0.533 0.301,0.932 0.427,1.201 0.129,0.268 0.304,0.477 0.523,0.63 0.222,0.151 0.486,0.228 0.793,0.228 0.307,0 0.559,-0.087 0.753,-0.26 0.197,-0.172 0.293,-0.406 0.293,-0.697 0,-0.646 -0.395,-1.109 -1.186,-1.39 0.488,-0.236 0.733,-0.6 0.733,-1.093 0,-0.473 -0.169,-0.905 -0.509,-1.298 -0.338,-0.393 -0.764,-0.589 -1.278,-0.589 -0.142,0 -0.279,0.018 -0.414,0.052 -0.135,0.035 -0.286,0.125 -0.459,0.272 -0.233,-0.861 -0.455,-1.478 -0.666,-1.848 z m 0.77,2.143 c 0.169,-0.285 0.407,-0.428 0.714,-0.428 0.367,0 0.666,0.23 0.901,0.689 0.234,0.46 0.351,0.859 0.351,1.202 0,0.38 -0.121,0.657 -0.364,0.828 -0.157,-0.031 -0.271,-0.048 -0.343,-0.048 -0.157,0 -0.235,0.054 -0.235,0.163 0,0.098 0.066,0.147 0.199,0.147 0.132,0 0.272,-0.035 0.42,-0.107 0.231,0.126 0.427,0.338 0.588,0.637 0.16,0.3 0.241,0.592 0.241,0.877 0,0.183 -0.045,0.325 -0.136,0.43 -0.089,0.104 -0.209,0.156 -0.362,0.156 -0.162,0 -0.316,-0.064 -0.464,-0.193 -0.147,-0.129 -0.266,-0.319 -0.357,-0.568 -0.091,-0.249 -0.241,-0.721 -0.449,-1.417 l -0.704,-2.368"
           style="fill:#231f20;fill-opacity:1;fill-rule:nonzero;stroke:none"
           id="path1650"
           inkscape:connector-curvature="0" /></g></g><path
       d="m 256.436,114.719 c 0.095,-11.145 13.052,-11.622 13.052,-11.622"
       style="fill:none;stroke:#231f20;stroke-width:0.5;stroke-linecap:butt;stroke-linejoin:miter;stroke-miterlimit:10;stroke-opacity:1;stroke-dasharray:none"
       id="path1652"
       inkscape:connector-curvature="0" /><path
       d="m 268.583,103.13 -0.781,-0.725 2.667,0.656 -2.612,0.85 0.726,-0.781"
       style="fill:#231f20;fill-opacity:1;fill-rule:evenodd;stroke:none"
       id="path1654"
       inkscape:connector-curvature="0" /><path
       d="m 268.583,103.13 -0.781,-0.725 2.667,0.656 -2.612,0.85 0.726,-0.781 z"
       style="fill:none;stroke:#231f20;stroke-width:0.5;stroke-linecap:butt;stroke-linejoin:miter;stroke-miterlimit:10;stroke-opacity:1;stroke-dasharray:none"
       id="path1656"
       inkscape:connector-curvature="0" /><g
       id="g1658"><g
         id="g1660"
         clip-path="url(#clipPath1662)"><path
           d="m 273.042,104.678 0,5.4 1.86,0 c 0.421,0 0.742,-0.025 0.962,-0.077 0.31,-0.071 0.573,-0.2 0.792,-0.386 0.284,-0.241 0.498,-0.549 0.639,-0.922 0.142,-0.376 0.212,-0.804 0.212,-1.285 0,-0.411 -0.048,-0.773 -0.144,-1.091 -0.095,-0.317 -0.219,-0.578 -0.368,-0.785 -0.149,-0.208 -0.313,-0.372 -0.492,-0.492 -0.177,-0.118 -0.393,-0.208 -0.645,-0.269 -0.252,-0.062 -0.541,-0.093 -0.867,-0.093 l -1.949,0 z m 0.715,0.637 1.153,0 c 0.356,0 0.635,0.033 0.838,0.099 0.202,0.067 0.363,0.161 0.485,0.281 0.169,0.17 0.301,0.397 0.395,0.683 0.096,0.286 0.142,0.633 0.142,1.041 0,0.565 -0.092,0.998 -0.278,1.302 -0.185,0.304 -0.411,0.507 -0.676,0.61 -0.192,0.074 -0.5,0.11 -0.924,0.11 l -1.135,0 0,-4.126 m 7.331,0.623 0.685,-0.084 c -0.108,-0.402 -0.308,-0.712 -0.6,-0.933 -0.292,-0.22 -0.666,-0.332 -1.121,-0.332 -0.572,0 -1.026,0.177 -1.361,0.529 -0.335,0.352 -0.502,0.847 -0.502,1.483 0,0.658 0.169,1.169 0.507,1.532 0.34,0.364 0.78,0.546 1.32,0.546 0.523,0 0.95,-0.178 1.282,-0.534 0.332,-0.357 0.498,-0.858 0.498,-1.503 0,-0.039 -0.002,-0.099 -0.004,-0.178 l -2.919,0 c 0.025,-0.43 0.146,-0.759 0.366,-0.987 0.218,-0.229 0.491,-0.342 0.818,-0.342 0.243,0 0.45,0.064 0.622,0.191 0.173,0.128 0.308,0.332 0.409,0.612 z m -2.177,1.072 2.184,0 c -0.029,0.328 -0.113,0.576 -0.25,0.74 -0.211,0.256 -0.485,0.383 -0.822,0.383 -0.304,0 -0.56,-0.101 -0.767,-0.306 -0.208,-0.203 -0.323,-0.475 -0.345,-0.817 m 6.252,-1.849 c -0.246,-0.21 -0.482,-0.357 -0.709,-0.443 -0.227,-0.085 -0.473,-0.129 -0.732,-0.129 -0.43,0 -0.76,0.106 -0.992,0.316 -0.23,0.21 -0.344,0.477 -0.344,0.804 0,0.192 0.043,0.367 0.13,0.525 0.087,0.159 0.201,0.286 0.342,0.382 0.141,0.095 0.3,0.168 0.478,0.217 0.13,0.034 0.326,0.068 0.589,0.1 0.535,0.064 0.929,0.14 1.182,0.228 0.003,0.091 0.003,0.148 0.003,0.173 0,0.27 -0.061,0.46 -0.187,0.572 -0.169,0.149 -0.422,0.224 -0.756,0.224 -0.311,0 -0.541,-0.054 -0.689,-0.165 -0.15,-0.108 -0.259,-0.302 -0.331,-0.579 l -0.648,0.088 c 0.059,0.277 0.155,0.502 0.291,0.673 0.135,0.17 0.33,0.302 0.586,0.393 0.256,0.093 0.551,0.139 0.888,0.139 0.334,0 0.606,-0.04 0.814,-0.118 0.208,-0.079 0.361,-0.178 0.46,-0.297 0.099,-0.119 0.167,-0.27 0.206,-0.45 0.023,-0.114 0.033,-0.319 0.033,-0.613 l 0,-0.884 c 0,-0.616 0.015,-1.006 0.043,-1.169 0.029,-0.164 0.084,-0.32 0.168,-0.47 l -0.692,0 c -0.07,0.138 -0.114,0.298 -0.133,0.483 z m -0.056,1.481 c -0.241,-0.099 -0.602,-0.183 -1.083,-0.251 -0.273,-0.039 -0.465,-0.083 -0.578,-0.133 -0.113,-0.049 -0.2,-0.12 -0.261,-0.215 -0.062,-0.094 -0.093,-0.2 -0.093,-0.315 0,-0.177 0.067,-0.324 0.201,-0.443 0.134,-0.117 0.33,-0.176 0.588,-0.176 0.255,0 0.482,0.056 0.68,0.168 0.2,0.111 0.346,0.264 0.44,0.459 0.07,0.149 0.106,0.371 0.106,0.663 l 0,0.243 m 3.151,-1.371 c -0.122,-0.017 -0.219,-0.027 -0.292,-0.027 -0.099,0 -0.174,0.018 -0.227,0.049 -0.052,0.033 -0.091,0.075 -0.113,0.129 -0.024,0.054 -0.035,0.176 -0.035,0.364 l 0,2.289 0.667,0 0,0.515 -0.667,0 0,1.367 -0.659,-0.398 0,-0.969 -0.488,0 0,-0.515 0.488,0 0,-2.251 c 0,-0.398 0.025,-0.659 0.08,-0.784 0.054,-0.124 0.148,-0.223 0.28,-0.299 0.133,-0.077 0.319,-0.115 0.561,-0.115 0.146,0 0.313,0.02 0.5,0.059 l -0.095,0.586 m 0.644,-0.593 0.663,0 0,2.141 c 0,0.307 0.037,0.548 0.11,0.721 0.074,0.175 0.197,0.313 0.371,0.414 0.173,0.103 0.358,0.155 0.555,0.155 0.262,0 0.465,-0.077 0.609,-0.228 0.143,-0.151 0.216,-0.392 0.216,-0.723 l 0,-2.48 0.663,0 0,2.48 c 0,0.382 -0.046,0.674 -0.139,0.876 -0.092,0.202 -0.245,0.359 -0.459,0.473 -0.214,0.114 -0.465,0.172 -0.755,0.172 -0.471,0 -0.862,-0.18 -1.171,-0.538 l 0,1.937 -0.663,0 0,-5.4 m -7.4,-4.128 c 0.102,0.35 0.256,0.524 0.461,0.524 0.096,0 0.179,-0.055 0.253,-0.164 0.074,-0.107 0.128,-0.369 0.165,-0.784 0.035,-0.415 0.053,-0.751 0.053,-1.005 0,-0.132 -0.008,-0.341 -0.023,-0.626 -0.562,-0.791 -0.843,-1.324 -0.843,-1.6 0,-0.193 0.069,-0.29 0.206,-0.29 0.299,0 0.586,0.634 0.859,1.899 0.577,0.65 0.966,1.169 1.165,1.558 0.201,0.39 0.301,0.737 0.301,1.045 0,0.306 -0.106,0.46 -0.318,0.46 -0.1,0 -0.186,-0.033 -0.26,-0.1 -0.071,-0.065 -0.107,-0.163 -0.107,-0.291 0,-0.115 0.02,-0.249 0.059,-0.401 0.042,-0.153 0.062,-0.271 0.062,-0.354 0,-0.397 -0.308,-0.964 -0.924,-1.698 0.011,0.233 0.018,0.405 0.018,0.519 0,0.464 -0.009,0.895 -0.026,1.292 -0.017,0.4 -0.083,0.67 -0.197,0.815 -0.114,0.146 -0.247,0.218 -0.4,0.218 -0.176,0 -0.321,-0.093 -0.433,-0.279 -0.111,-0.184 -0.18,-0.417 -0.204,-0.697 l 0.133,-0.041"
           style="fill:#231f20;fill-opacity:1;fill-rule:nonzero;stroke:none"
           id="path1666"
           inkscape:connector-curvature="0" /></g></g><path
       d="m 240.629,158.527 c 0,24.936 -49.033,25.125 -49.033,25.125"
       style="fill:none;stroke:#231f20;stroke-width:0.5;stroke-linecap:butt;stroke-linejoin:miter;stroke-miterlimit:10;stroke-opacity:1;stroke-dasharray:2.9254, 2.9254;stroke-dashoffset:0"
       id="path1668"
       inkscape:connector-curvature="0" /><path
       d="m 191.609,187.116 -0.027,-6.928"
       style="fill:none;stroke:#231f20;stroke-width:0.5;stroke-linecap:butt;stroke-linejoin:miter;stroke-miterlimit:10;stroke-opacity:1;stroke-dasharray:none"
       id="path1670"
       inkscape:connector-curvature="0" /><path
       d="m 240.302,115.372 c 0,-15.605 -31.473,-15.723 -31.473,-15.723"
       style="fill:none;stroke:#231f20;stroke-width:0.5;stroke-linecap:butt;stroke-linejoin:miter;stroke-miterlimit:10;stroke-opacity:1;stroke-dasharray:2.9137, 2.9137;stroke-dashoffset:0"
       id="path1672"
       inkscape:connector-curvature="0" /><path
       d="m 212.83,97.817 -5.012,1.821 4.997,1.859 c -0.795,-1.088 -0.785,-2.576 0.015,-3.68"
       style="fill:#231f20;fill-opacity:1;fill-rule:evenodd;stroke:none"
       id="path1674"
       inkscape:connector-curvature="0" /><path
       d="m 229.432,155.513 c -9.655,-18.545 -9.655,-18.545 -9.655,-18.545 m -0.224,0.24 c 9.858,-19.765 9.858,-19.765 9.858,-19.765"
       style="fill:none;stroke:#231f20;stroke-width:0.5;stroke-linecap:butt;stroke-linejoin:miter;stroke-miterlimit:10;stroke-opacity:1;stroke-dasharray:none"
       id="path1676"
       inkscape:connector-curvature="0" /><path
       d="m 227.381,139.675 -0.455,-4.987 c -0.025,-0.233 -0.035,-0.385 -0.035,-0.459 0,-0.118 0.021,-0.208 0.065,-0.27 0.057,-0.086 0.132,-0.148 0.229,-0.19 0.095,-0.041 0.256,-0.062 0.483,-0.062 l -0.049,-0.164 -2.36,0 0.049,0.164 0.102,0 c 0.191,0 0.347,0.041 0.468,0.123 0.086,0.057 0.152,0.15 0.198,0.28 0.033,0.091 0.065,0.305 0.094,0.645 l 0.07,0.761 -1.715,0 -0.61,-0.828 c -0.139,-0.185 -0.226,-0.319 -0.262,-0.4 -0.035,-0.081 -0.051,-0.156 -0.051,-0.227 0,-0.094 0.038,-0.176 0.114,-0.243 0.077,-0.068 0.203,-0.105 0.381,-0.111 l -0.049,-0.164 -1.774,0 0.049,0.164 c 0.219,0.009 0.411,0.082 0.577,0.219 0.166,0.137 0.415,0.43 0.745,0.878 l 3.581,4.871 0.155,0 z m -0.875,-1.472 -1.737,-2.365 1.506,0 0.231,2.365"
       style="fill:#231f20;fill-opacity:1;fill-rule:nonzero;stroke:none"
       id="path1678"
       inkscape:connector-curvature="0" /><path
       d="m 58.62,141.236 0.719,0.063 c 0.033,-0.288 0.112,-0.524 0.235,-0.709 0.122,-0.185 0.314,-0.334 0.572,-0.448 0.259,-0.115 0.55,-0.171 0.873,-0.171 0.288,0 0.541,0.043 0.761,0.13 0.22,0.086 0.384,0.204 0.491,0.355 0.108,0.151 0.162,0.314 0.162,0.491 0,0.179 -0.053,0.335 -0.158,0.469 -0.105,0.134 -0.277,0.246 -0.514,0.338 -0.152,0.06 -0.489,0.152 -1.011,0.279 -0.521,0.126 -0.888,0.245 -1.099,0.358 -0.273,0.143 -0.477,0.322 -0.611,0.534 -0.134,0.213 -0.201,0.451 -0.201,0.715 0,0.289 0.082,0.56 0.245,0.812 0.164,0.251 0.402,0.443 0.717,0.573 0.314,0.13 0.663,0.196 1.048,0.196 0.423,0 0.796,-0.069 1.12,-0.206 0.323,-0.138 0.571,-0.34 0.746,-0.607 0.174,-0.266 0.267,-0.569 0.28,-0.906 l -0.734,-0.062 c -0.039,0.365 -0.17,0.642 -0.393,0.829 -0.224,0.186 -0.554,0.28 -0.99,0.28 -0.454,0 -0.785,-0.084 -0.993,-0.252 -0.208,-0.168 -0.312,-0.371 -0.312,-0.608 0,-0.206 0.073,-0.375 0.221,-0.508 0.144,-0.133 0.522,-0.27 1.133,-0.409 0.61,-0.14 1.03,-0.261 1.26,-0.365 0.334,-0.153 0.581,-0.348 0.741,-0.583 0.159,-0.236 0.239,-0.507 0.239,-0.813 0,-0.304 -0.087,-0.591 -0.261,-0.861 -0.174,-0.268 -0.424,-0.478 -0.75,-0.626 -0.326,-0.15 -0.693,-0.225 -1.101,-0.225 -0.517,0 -0.95,0.076 -1.299,0.227 -0.35,0.15 -0.623,0.378 -0.822,0.681 -0.199,0.303 -0.304,0.647 -0.314,1.029"
       style="fill:#231f20;fill-opacity:1;fill-rule:nonzero;stroke:none"
       id="path1680"
       inkscape:connector-curvature="0" /><path
       d="m 65.675,140.02 0.093,-0.621 c -0.199,-0.043 -0.377,-0.065 -0.534,-0.065 -0.256,0 -0.455,0.041 -0.596,0.121 -0.142,0.082 -0.241,0.188 -0.299,0.32 -0.057,0.132 -0.086,0.411 -0.086,0.834 l 0,2.397 -0.516,0 0,0.547 0.516,0 0,1.027 0.703,0.422 0,-1.449 0.719,0 0,-0.547 -0.719,0 0,-2.426 c 0,-0.201 0.013,-0.33 0.038,-0.386 0.024,-0.058 0.066,-0.104 0.123,-0.137 0.057,-0.034 0.138,-0.051 0.244,-0.051 0.079,0 0.184,0.004 0.314,0.014"
       style="fill:#231f20;fill-opacity:1;fill-rule:nonzero;stroke:none"
       id="path1682"
       inkscape:connector-curvature="0" /><path
       d="m 69.218,140.736 0.704,-0.093 c -0.116,-0.426 -0.328,-0.756 -0.638,-0.991 -0.311,-0.236 -0.707,-0.353 -1.189,-0.353 -0.608,0 -1.089,0.188 -1.445,0.561 -0.356,0.374 -0.534,0.9 -0.534,1.576 0,0.699 0.18,1.241 0.54,1.628 0.36,0.385 0.826,0.579 1.399,0.579 0.556,0 1.009,-0.19 1.361,-0.57 0.352,-0.379 0.528,-0.913 0.528,-1.601 0,-0.042 -0.001,-0.105 -0.004,-0.189 l -3.105,0 c 0.026,-0.455 0.157,-0.802 0.392,-1.044 0.236,-0.241 0.529,-0.362 0.88,-0.362 0.262,0 0.485,0.068 0.67,0.205 0.185,0.137 0.332,0.355 0.441,0.654 z m -2.368,1.125 2.375,0 c -0.032,0.353 -0.123,0.617 -0.272,0.793 -0.23,0.274 -0.527,0.411 -0.893,0.411 -0.331,0 -0.609,-0.11 -0.835,-0.327 -0.226,-0.219 -0.351,-0.511 -0.375,-0.877"
       style="fill:#231f20;fill-opacity:1;fill-rule:nonzero;stroke:none"
       id="path1684"
       inkscape:connector-curvature="0" /><path
       d="m 70.8,139.393 0,4.156 0.625,0 0,-0.582 c 0.13,0.203 0.304,0.366 0.521,0.49 0.217,0.124 0.464,0.186 0.74,0.186 0.309,0 0.561,-0.064 0.759,-0.192 0.197,-0.128 0.336,-0.306 0.417,-0.535 0.33,0.484 0.76,0.727 1.289,0.727 0.414,0 0.733,-0.115 0.955,-0.343 0.223,-0.228 0.334,-0.58 0.334,-1.055 l 0,-2.852 -0.703,0 0,2.619 c 0,0.281 -0.023,0.484 -0.069,0.608 -0.046,0.124 -0.129,0.224 -0.249,0.3 -0.121,0.075 -0.263,0.113 -0.425,0.113 -0.294,0 -0.538,-0.097 -0.731,-0.292 -0.195,-0.194 -0.291,-0.505 -0.291,-0.933 l 0,-2.415 -0.704,0 0,2.701 c 0,0.313 -0.057,0.548 -0.172,0.704 -0.115,0.157 -0.303,0.235 -0.564,0.235 -0.198,0 -0.381,-0.052 -0.55,-0.156 -0.168,-0.105 -0.29,-0.258 -0.366,-0.458 -0.075,-0.201 -0.113,-0.491 -0.113,-0.869 l 0,-2.157 -0.703,0"
       style="fill:#231f20;fill-opacity:1;fill-rule:nonzero;stroke:none"
       id="path1686"
       inkscape:connector-curvature="0" /><path
       d="m 62.964,131.907 0.765,-0.19 c -0.159,-0.624 -0.444,-1.1 -0.857,-1.427 -0.413,-0.327 -0.917,-0.491 -1.514,-0.491 -0.617,0 -1.119,0.125 -1.506,0.377 -0.386,0.251 -0.681,0.615 -0.882,1.092 -0.202,0.476 -0.303,0.988 -0.303,1.535 0,0.596 0.114,1.116 0.342,1.56 0.228,0.444 0.552,0.782 0.973,1.012 0.421,0.231 0.884,0.346 1.39,0.346 0.573,0 1.056,-0.147 1.446,-0.439 0.391,-0.293 0.664,-0.704 0.818,-1.233 l -0.75,-0.176 c -0.133,0.415 -0.326,0.718 -0.578,0.907 -0.253,0.19 -0.571,0.285 -0.954,0.285 -0.44,0 -0.808,-0.106 -1.103,-0.316 -0.296,-0.21 -0.504,-0.492 -0.623,-0.846 -0.12,-0.355 -0.18,-0.72 -0.18,-1.096 0,-0.486 0.071,-0.909 0.213,-1.272 0.141,-0.361 0.361,-0.632 0.66,-0.811 0.299,-0.179 0.622,-0.269 0.971,-0.269 0.423,0 0.782,0.122 1.075,0.366 0.294,0.244 0.493,0.606 0.597,1.086"
       style="fill:#231f20;fill-opacity:1;fill-rule:nonzero;stroke:none"
       id="path1688"
       inkscape:connector-curvature="0" /><path
       d="m 67.436,131.237 0.705,-0.094 c -0.116,-0.426 -0.328,-0.756 -0.638,-0.991 -0.311,-0.236 -0.707,-0.353 -1.189,-0.353 -0.608,0 -1.089,0.188 -1.446,0.562 -0.355,0.374 -0.533,0.899 -0.533,1.575 0,0.699 0.18,1.241 0.539,1.628 0.36,0.385 0.827,0.579 1.4,0.579 0.556,0 1.009,-0.19 1.361,-0.57 0.352,-0.379 0.528,-0.913 0.528,-1.601 0,-0.042 -10e-4,-0.105 -0.004,-0.189 l -3.105,0 c 0.026,-0.455 0.157,-0.802 0.392,-1.044 0.236,-0.241 0.529,-0.362 0.88,-0.362 0.262,0 0.485,0.069 0.67,0.205 0.185,0.137 0.332,0.355 0.44,0.655 z m -2.367,1.125 2.375,0 c -0.032,0.352 -0.123,0.617 -0.272,0.793 -0.23,0.273 -0.528,0.41 -0.893,0.41 -0.331,0 -0.61,-0.11 -0.835,-0.327 -0.226,-0.219 -0.351,-0.511 -0.375,-0.876"
       style="fill:#231f20;fill-opacity:1;fill-rule:nonzero;stroke:none"
       id="path1690"
       inkscape:connector-curvature="0" /><path
       d="m 69.003,129.893 0.70309,0 0,5.7343 -0.70309,0 0,-5.7343 z"
       style="fill:#231f20;fill-opacity:1;fill-rule:nonzero;stroke:none"
       id="path1692"
       inkscape:connector-curvature="0" /><path
       d="m 70.78,129.893 0.70309,0 0,5.7343 -0.70309,0 0,-5.7343 z"
       style="fill:#231f20;fill-opacity:1;fill-rule:nonzero;stroke:none"
       id="path1694"
       inkscape:connector-curvature="0" /><path
       d="m 72.307,131.143 0.704,0.094 c 0.039,-0.278 0.147,-0.491 0.324,-0.638 0.177,-0.148 0.425,-0.222 0.744,-0.222 0.32,0 0.559,0.067 0.714,0.197 0.155,0.133 0.233,0.288 0.233,0.465 0,0.159 -0.069,0.285 -0.207,0.376 -0.097,0.063 -0.334,0.143 -0.712,0.24 -0.509,0.13 -0.864,0.243 -1.064,0.337 -0.2,0.096 -0.352,0.228 -0.455,0.396 -0.104,0.168 -0.156,0.354 -0.156,0.558 0,0.185 0.042,0.356 0.126,0.514 0.085,0.157 0.2,0.288 0.345,0.394 0.109,0.08 0.257,0.148 0.444,0.205 0.189,0.055 0.39,0.084 0.605,0.084 0.324,0 0.608,-0.047 0.853,-0.142 0.245,-0.095 0.426,-0.222 0.542,-0.384 0.117,-0.161 0.198,-0.377 0.242,-0.646 l -0.688,-0.094 c -0.031,0.216 -0.12,0.385 -0.268,0.506 -0.148,0.121 -0.357,0.182 -0.626,0.182 -0.319,0 -0.546,-0.054 -0.683,-0.16 -0.136,-0.108 -0.204,-0.234 -0.204,-0.377 0,-0.092 0.028,-0.174 0.085,-0.247 0.057,-0.076 0.145,-0.138 0.266,-0.188 0.069,-0.026 0.273,-0.087 0.613,-0.181 0.491,-0.132 0.834,-0.242 1.031,-0.326 0.196,-0.085 0.35,-0.209 0.462,-0.37 0.112,-0.161 0.168,-0.362 0.168,-0.603 0,-0.234 -0.068,-0.456 -0.205,-0.663 -0.136,-0.208 -0.333,-0.368 -0.59,-0.481 -0.258,-0.113 -0.548,-0.17 -0.873,-0.17 -0.538,0 -0.948,0.113 -1.23,0.339 -0.282,0.225 -0.461,0.56 -0.54,1.005"
       style="fill:#231f20;fill-opacity:1;fill-rule:nonzero;stroke:none"
       id="path1696"
       inkscape:connector-curvature="0" /><path
       d="m 133.362,187.676 0.719,0.063 c 0.034,-0.288 0.112,-0.525 0.235,-0.71 0.123,-0.184 0.313,-0.334 0.572,-0.448 0.259,-0.113 0.55,-0.17 0.874,-0.17 0.287,0 0.54,0.043 0.76,0.129 0.221,0.087 0.384,0.205 0.492,0.355 0.107,0.151 0.161,0.315 0.161,0.492 0,0.179 -0.053,0.335 -0.158,0.469 -0.105,0.134 -0.276,0.246 -0.514,0.337 -0.152,0.06 -0.489,0.154 -1.01,0.28 -0.522,0.127 -0.888,0.246 -1.099,0.358 -0.273,0.144 -0.477,0.321 -0.612,0.534 -0.134,0.213 -0.201,0.45 -0.201,0.714 0,0.29 0.082,0.561 0.246,0.812 0.163,0.252 0.402,0.443 0.716,0.574 0.314,0.13 0.664,0.196 1.048,0.196 0.423,0 0.796,-0.069 1.119,-0.207 0.324,-0.137 0.573,-0.339 0.747,-0.606 0.173,-0.267 0.267,-0.569 0.28,-0.906 l -0.734,-0.063 c -0.039,0.366 -0.17,0.642 -0.393,0.829 -0.224,0.187 -0.553,0.281 -0.989,0.281 -0.455,0 -0.786,-0.085 -0.994,-0.253 -0.208,-0.168 -0.312,-0.37 -0.312,-0.607 0,-0.206 0.074,-0.376 0.221,-0.509 0.145,-0.133 0.522,-0.269 1.132,-0.408 0.611,-0.14 1.032,-0.261 1.261,-0.365 0.335,-0.154 0.582,-0.348 0.741,-0.583 0.16,-0.236 0.239,-0.507 0.239,-0.813 0,-0.305 -0.087,-0.591 -0.261,-0.86 -0.174,-0.269 -0.424,-0.479 -0.75,-0.628 -0.326,-0.15 -0.693,-0.224 -1.101,-0.224 -0.517,0 -0.95,0.075 -1.299,0.226 -0.349,0.151 -0.623,0.379 -0.822,0.682 -0.199,0.303 -0.303,0.646 -0.314,1.029"
       style="fill:#231f20;fill-opacity:1;fill-rule:nonzero;stroke:none"
       id="path1698"
       inkscape:connector-curvature="0" /><path
       d="m 141.737,187.176 0.704,-0.094 c -0.114,-0.425 -0.327,-0.756 -0.638,-0.991 -0.31,-0.235 -0.706,-0.352 -1.188,-0.352 -0.608,0 -1.09,0.187 -1.446,0.561 -0.356,0.375 -0.533,0.9 -0.533,1.575 0,0.699 0.179,1.242 0.539,1.628 0.36,0.387 0.826,0.579 1.4,0.579 0.555,0 1.009,-0.19 1.361,-0.569 0.352,-0.379 0.528,-0.913 0.528,-1.601 0,-0.042 -0.002,-0.105 -0.004,-0.189 l -3.105,0 c 0.026,-0.455 0.156,-0.802 0.392,-1.044 0.235,-0.242 0.528,-0.362 0.88,-0.362 0.262,0 0.485,0.068 0.67,0.204 0.185,0.137 0.331,0.355 0.44,0.655 z m -2.367,1.125 2.375,0 c -0.032,0.352 -0.123,0.617 -0.272,0.793 -0.23,0.274 -0.528,0.41 -0.893,0.41 -0.331,0 -0.61,-0.109 -0.835,-0.327 -0.226,-0.218 -0.351,-0.51 -0.375,-0.876"
       style="fill:#231f20;fill-opacity:1;fill-rule:nonzero;stroke:none"
       id="path1700"
       inkscape:connector-curvature="0" /><path
       d="m 143.304,185.832 0.70309,0 0,5.7343 -0.70309,0 0,-5.7343 z"
       style="fill:#231f20;fill-opacity:1;fill-rule:nonzero;stroke:none"
       id="path1702"
       inkscape:connector-curvature="0" /><path
       d="m 145.252,185.832 0,3.61 -0.609,0 0,0.547 0.609,0 0,0.44 c 0,0.278 0.025,0.484 0.075,0.62 0.068,0.181 0.188,0.329 0.359,0.442 0.172,0.113 0.412,0.17 0.719,0.17 0.198,0 0.416,-0.024 0.656,-0.07 l -0.105,-0.61 c -0.146,0.026 -0.284,0.039 -0.415,0.039 -0.213,0 -0.364,-0.045 -0.453,-0.137 -0.088,-0.091 -0.132,-0.262 -0.132,-0.512 l 0,-0.382 0.812,0 0,-0.547 -0.812,0 0,-3.61 -0.704,0"
       style="fill:#231f20;fill-opacity:1;fill-rule:nonzero;stroke:none"
       id="path1704"
       inkscape:connector-curvature="0" /><path
       d="m 149.651,185.832 0,5.735 2.535,0 c 0.508,0 0.894,-0.051 1.158,-0.155 0.263,-0.103 0.474,-0.285 0.633,-0.545 0.157,-0.261 0.236,-0.549 0.236,-0.865 0,-0.406 -0.131,-0.749 -0.392,-1.028 -0.261,-0.279 -0.665,-0.457 -1.211,-0.532 0.2,-0.096 0.352,-0.192 0.455,-0.285 0.221,-0.203 0.43,-0.458 0.625,-0.764 l 0.986,-1.561 -0.944,0 -0.754,1.193 c -0.219,0.345 -0.4,0.608 -0.542,0.791 -0.143,0.182 -0.271,0.31 -0.383,0.383 -0.113,0.073 -0.227,0.124 -0.344,0.153 -0.085,0.018 -0.225,0.027 -0.419,0.027 l -0.874,0 0,-2.547 -0.765,0 z m 0.765,3.219 1.619,0 c 0.345,0 0.613,0.036 0.806,0.106 0.193,0.071 0.34,0.185 0.44,0.341 0.101,0.155 0.151,0.325 0.151,0.508 0,0.268 -0.097,0.488 -0.292,0.661 -0.195,0.173 -0.502,0.259 -0.922,0.259 l -1.802,0 0,-1.875"
       style="fill:#231f20;fill-opacity:1;fill-rule:nonzero;stroke:none"
       id="path1706"
       inkscape:connector-curvature="0" /><path
       d="m 158.186,187.176 0.704,-0.094 c -0.115,-0.425 -0.328,-0.756 -0.638,-0.991 -0.31,-0.235 -0.706,-0.352 -1.189,-0.352 -0.607,0 -1.089,0.187 -1.445,0.561 -0.356,0.375 -0.534,0.9 -0.534,1.575 0,0.699 0.18,1.242 0.54,1.628 0.36,0.387 0.826,0.579 1.4,0.579 0.555,0 1.009,-0.19 1.361,-0.569 0.351,-0.379 0.528,-0.913 0.528,-1.601 0,-0.042 -0.002,-0.105 -0.004,-0.189 l -3.106,0 c 0.027,-0.455 0.157,-0.802 0.392,-1.044 0.236,-0.242 0.529,-0.362 0.881,-0.362 0.261,0 0.485,0.068 0.67,0.204 0.185,0.137 0.331,0.355 0.44,0.655 z m -2.367,1.125 2.375,0 c -0.032,0.352 -0.123,0.617 -0.273,0.793 -0.229,0.274 -0.527,0.41 -0.893,0.41 -0.331,0 -0.609,-0.109 -0.835,-0.327 -0.225,-0.218 -0.35,-0.51 -0.374,-0.876"
       style="fill:#231f20;fill-opacity:1;fill-rule:nonzero;stroke:none"
       id="path1708"
       inkscape:connector-curvature="0" /><path
       d="m 159.768,185.832 0,4.157 0.625,0 0,-0.59 c 0.306,0.455 0.748,0.683 1.326,0.683 0.251,0 0.482,-0.045 0.692,-0.135 0.211,-0.09 0.368,-0.208 0.473,-0.354 0.104,-0.146 0.177,-0.32 0.219,-0.52 0.027,-0.131 0.04,-0.359 0.04,-0.685 l 0,-2.556 -0.719,0 0,2.529 c 0,0.287 -0.027,0.502 -0.081,0.644 -0.055,0.142 -0.151,0.256 -0.289,0.341 -0.139,0.085 -0.302,0.127 -0.488,0.127 -0.297,0 -0.554,-0.095 -0.771,-0.286 -0.216,-0.19 -0.324,-0.552 -0.324,-1.084 l 0,-2.271 -0.703,0"
       style="fill:#231f20;fill-opacity:1;fill-rule:nonzero;stroke:none"
       id="path1710"
       inkscape:connector-curvature="0" /><path
       d="m 167.084,187.176 0.704,-0.094 c -0.114,-0.425 -0.327,-0.756 -0.638,-0.991 -0.31,-0.235 -0.706,-0.352 -1.188,-0.352 -0.608,0 -1.089,0.187 -1.445,0.561 -0.356,0.375 -0.534,0.9 -0.534,1.575 0,0.699 0.18,1.242 0.539,1.628 0.36,0.387 0.827,0.579 1.4,0.579 0.556,0 1.009,-0.19 1.361,-0.569 0.352,-0.379 0.528,-0.913 0.528,-1.601 0,-0.042 -0.001,-0.105 -0.003,-0.189 l -3.106,0 c 0.026,-0.455 0.156,-0.802 0.392,-1.044 0.235,-0.242 0.529,-0.362 0.88,-0.362 0.262,0 0.485,0.068 0.67,0.204 0.185,0.137 0.332,0.355 0.44,0.655 z m -2.367,1.125 2.375,0 c -0.032,0.352 -0.123,0.617 -0.272,0.793 -0.23,0.274 -0.528,0.41 -0.893,0.41 -0.331,0 -0.61,-0.109 -0.835,-0.327 -0.226,-0.218 -0.351,-0.51 -0.375,-0.876"
       style="fill:#231f20;fill-opacity:1;fill-rule:nonzero;stroke:none"
       id="path1712"
       inkscape:connector-curvature="0" /><path
       d="m 169.429,185.832 -1.278,4.157 0.734,0 0.671,-2.397 0.236,-0.895 c 0.01,0.044 0.085,0.327 0.224,0.85 l 0.659,2.442 0.718,0 0.621,-2.412 0.199,-0.794 0.24,0.798 0.733,2.408 0.683,0 -1.334,-4.157 -0.711,0 -0.651,2.489 -0.163,0.709 -0.856,-3.198 -0.725,0"
       style="fill:#231f20;fill-opacity:1;fill-rule:nonzero;stroke:none"
       id="path1714"
       inkscape:connector-curvature="0" /><path
       d="m 177.162,186.348 c -0.256,-0.223 -0.506,-0.38 -0.748,-0.472 -0.242,-0.091 -0.502,-0.137 -0.779,-0.137 -0.458,0 -0.811,0.111 -1.057,0.335 -0.246,0.223 -0.369,0.508 -0.369,0.856 0,0.203 0.047,0.389 0.14,0.558 0.092,0.168 0.214,0.303 0.365,0.405 0.15,0.102 0.32,0.179 0.509,0.231 0.138,0.037 0.347,0.072 0.629,0.106 0.57,0.068 0.99,0.149 1.259,0.243 0.003,0.097 0.004,0.158 0.004,0.184 0,0.288 -0.066,0.49 -0.198,0.608 -0.18,0.16 -0.446,0.239 -0.8,0.239 -0.33,0 -0.573,-0.058 -0.73,-0.175 -0.158,-0.117 -0.274,-0.324 -0.35,-0.622 l -0.703,0.094 c 0.062,0.296 0.166,0.534 0.31,0.715 0.143,0.182 0.35,0.321 0.622,0.419 0.271,0.098 0.586,0.147 0.944,0.147 0.354,0 0.643,-0.041 0.865,-0.125 0.222,-0.083 0.385,-0.189 0.489,-0.315 0.105,-0.126 0.178,-0.287 0.219,-0.479 0.024,-0.12 0.035,-0.337 0.035,-0.65 l 0,-0.942 c 0,-0.656 0.016,-1.07 0.045,-1.242 0.03,-0.173 0.088,-0.338 0.174,-0.497 l -0.719,0 c -0.08,0.147 -0.132,0.319 -0.156,0.516 z m -0.047,1.578 c -0.257,-0.105 -0.643,-0.195 -1.158,-0.268 -0.292,-0.042 -0.498,-0.09 -0.619,-0.142 -0.121,-0.053 -0.215,-0.129 -0.28,-0.231 -0.066,-0.101 -0.099,-0.213 -0.099,-0.337 0,-0.189 0.072,-0.347 0.215,-0.473 0.142,-0.126 0.352,-0.189 0.628,-0.189 0.272,0 0.514,0.059 0.727,0.178 0.213,0.119 0.369,0.282 0.469,0.49 0.076,0.161 0.113,0.398 0.113,0.711 l 0.004,0.261"
       style="fill:#231f20;fill-opacity:1;fill-rule:nonzero;stroke:none"
       id="path1716"
       inkscape:connector-curvature="0" /><path
       d="m 178.877,185.832 0.70297,0 0,5.7343 -0.70297,0 0,-5.7343 z"
       style="fill:#231f20;fill-opacity:1;fill-rule:nonzero;stroke:none"
       id="path1718"
       inkscape:connector-curvature="0" /><path
       d="m 155.715,181.364 c 0.272,-0.312 0.528,-0.816 0.528,-1.376 0,-1.016 -0.992,-1.728 -1.744,-1.728 -0.72,0 -1.24,0.528 -1.24,1.448 0,0.392 0.096,0.976 0.664,1.536 0.449,0.456 0.984,0.656 1.816,0.656 l 1.408,0 -0.112,-0.536 -1.32,0 z m -1.312,-0.472 c -0.384,-0.384 -0.56,-1.024 -0.56,-1.424 0,-0.536 0.224,-1.04 0.648,-1.04 0.424,0 0.8,0.576 0.952,1.024 0.336,0.976 0.352,1.4 0.152,1.904 -0.639,-0.04 -0.904,-0.184 -1.192,-0.464"
       style="fill:#231f20;fill-opacity:1;fill-rule:nonzero;stroke:none"
       id="path1720"
       inkscape:connector-curvature="0" /></g></svg>