<?xml version="1.0" encoding="UTF-8" standalone="no"?>
<!-- Created with Inkscape (http://www.inkscape.org/) -->

<svg
   xmlns:dc="http://purl.org/dc/elements/1.1/"
   xmlns:cc="http://creativecommons.org/ns#"
   xmlns:rdf="http://www.w3.org/1999/02/22-rdf-syntax-ns#"
   xmlns:svg="http://www.w3.org/2000/svg"
   xmlns="http://www.w3.org/2000/svg"
   xmlns:sodipodi="http://sodipodi.sourceforge.net/DTD/sodipodi-0.dtd"
   xmlns:inkscape="http://www.inkscape.org/namespaces/inkscape"
   id="svg2"
   version="1.1"
   inkscape:version="0.48.4 r9939"
   width="449.23624"
   height="212.75845"
   xml:space="preserve"
   sodipodi:docname="1-s2.0-S0022519307004778-main.pdf"><metadata
     id="metadata8"><rdf:RDF><cc:Work
         rdf:about=""><dc:format>image/svg+xml</dc:format><dc:type
           rdf:resource="http://purl.org/dc/dcmitype/StillImage" /><dc:title></dc:title></cc:Work></rdf:RDF></metadata><defs
     id="defs6"><clipPath
       clipPathUnits="userSpaceOnUse"
       id="clipPath634"><path
         d="m 121.039,723.725 343.389,0 0,-154.999 -343.389,0 0,154.999 z"
         id="path636"
         inkscape:connector-curvature="0" /></clipPath><clipPath
       clipPathUnits="userSpaceOnUse"
       id="clipPath648"><path
         d="m 121.039,723.725 343.389,0 0,-154.999 -343.389,0 0,154.999 z"
         id="path650"
         inkscape:connector-curvature="0" /></clipPath><clipPath
       clipPathUnits="userSpaceOnUse"
       id="clipPath662"><path
         d="m 121.039,723.725 343.389,0 0,-154.999 -343.389,0 0,154.999 z"
         id="path664"
         inkscape:connector-curvature="0" /></clipPath><clipPath
       clipPathUnits="userSpaceOnUse"
       id="clipPath676"><path
         d="m 121.039,723.725 343.389,0 0,-154.999 -343.389,0 0,154.999 z"
         id="path678"
         inkscape:connector-curvature="0" /></clipPath><clipPath
       clipPathUnits="userSpaceOnUse"
       id="clipPath690"><path
         d="m 121.039,723.725 343.389,0 0,-154.999 -343.389,0 0,154.999 z"
         id="path692"
         inkscape:connector-curvature="0" /></clipPath><clipPath
       clipPathUnits="userSpaceOnUse"
       id="clipPath704"><path
         d="m 121.039,723.725 343.389,0 0,-154.999 -343.389,0 0,154.999 z"
         id="path706"
         inkscape:connector-curvature="0" /></clipPath><clipPath
       clipPathUnits="userSpaceOnUse"
       id="clipPath718"><path
         d="m 121.039,723.725 343.389,0 0,-154.999 -343.389,0 0,154.999 z"
         id="path720"
         inkscape:connector-curvature="0" /></clipPath><clipPath
       clipPathUnits="userSpaceOnUse"
       id="clipPath732"><path
         d="m 121.039,723.725 343.389,0 0,-154.999 -343.389,0 0,154.999 z"
         id="path734"
         inkscape:connector-curvature="0" /></clipPath><clipPath
       clipPathUnits="userSpaceOnUse"
       id="clipPath746"><path
         d="m 121.039,723.725 343.389,0 0,-154.999 -343.389,0 0,154.999 z"
         id="path748"
         inkscape:connector-curvature="0" /></clipPath><clipPath
       clipPathUnits="userSpaceOnUse"
       id="clipPath760"><path
         d="m 121.039,723.725 343.389,0 0,-154.999 -343.389,0 0,154.999 z"
         id="path762"
         inkscape:connector-curvature="0" /></clipPath><clipPath
       clipPathUnits="userSpaceOnUse"
       id="clipPath802"><path
         d="m 121.039,723.725 343.389,0 0,-154.999 -343.389,0 0,154.999 z"
         id="path804"
         inkscape:connector-curvature="0" /></clipPath></defs><sodipodi:namedview
     pagecolor="#ffffff"
     bordercolor="#666666"
     borderopacity="1"
     objecttolerance="10"
     gridtolerance="10"
     guidetolerance="10"
     inkscape:pageopacity="0"
     inkscape:pageshadow="2"
     inkscape:window-width="1855"
     inkscape:window-height="1056"
     id="namedview4"
     showgrid="false"
     fit-margin-top="10"
     fit-margin-left="10"
     fit-margin-right="10"
     fit-margin-bottom="10"
     inkscape:zoom="1.3456127"
     inkscape:cx="141.57003"
     inkscape:cy="19.580791"
     inkscape:window-x="65"
     inkscape:window-y="24"
     inkscape:window-maximized="1"
     inkscape:current-layer="g10" /><g
     id="g10"
     inkscape:groupmode="layer"
     inkscape:label="1-s2.0-S0022519307004778-main"
     transform="matrix(1.25,0,0,-1.25,-141.29875,914.65625)"><path
       d="m 150.217,594.621 0,110.369 140.006,0 0,-110.369 -140.006,0"
       style="fill:none;stroke:#ffffff;stroke-width:0.19400001;stroke-linecap:butt;stroke-linejoin:round;stroke-miterlimit:10;stroke-opacity:1;stroke-dasharray:none"
       id="path432"
       inkscape:connector-curvature="0" /><path
       d="m 150.217,704.99 140.006,0 m -140.006,-110.369 140.006,0 0,110.369 m -140.006,-110.369 0,110.369 m 0,-110.369 140.006,0 m -140.006,0 0,110.369 m 11.646,-110.369 0,1.409 m 0,108.96 0,-1.383"
       style="fill:none;stroke:#000000;stroke-width:0.5;stroke-linecap:butt;stroke-linejoin:round;stroke-miterlimit:10;stroke-opacity:1;stroke-dasharray:none"
       id="path434"
       inkscape:connector-curvature="0" /><text
       transform="matrix(1,0,0,-1,159.702,583.5162)"
       id="text436"><tspan
         style="font-size:8px;font-variant:normal;font-weight:normal;writing-mode:lr-tb;fill:#000000;fill-opacity:1;fill-rule:nonzero;stroke:none;font-family:ArialMT;-inkscape-font-specification:ArialMT"
         x="0"
         y="0"
         id="tspan438">0</tspan></text>
<path
       d="m 176.459,594.621 0,1.409 m 0,108.96 0,-1.383"
       style="fill:none;stroke:#000000;stroke-width:0.5;stroke-linecap:butt;stroke-linejoin:round;stroke-miterlimit:10;stroke-opacity:1;stroke-dasharray:none"
       id="path440"
       inkscape:connector-curvature="0" /><text
       transform="matrix(1,0,0,-1,174.3176,583.5162)"
       id="text442"><tspan
         style="font-size:8px;font-variant:normal;font-weight:normal;writing-mode:lr-tb;fill:#000000;fill-opacity:1;fill-rule:nonzero;stroke:none;font-family:ArialMT;-inkscape-font-specification:ArialMT"
         x="0"
         y="0"
         id="tspan444">5</tspan></text>
<path
       d="m 191.028,594.621 0,1.409 m 0,108.96 0,-1.383"
       style="fill:none;stroke:#000000;stroke-width:0.5;stroke-linecap:butt;stroke-linejoin:round;stroke-miterlimit:10;stroke-opacity:1;stroke-dasharray:none"
       id="path446"
       inkscape:connector-curvature="0" /><text
       transform="matrix(1,0,0,-1,186.7979,583.5162)"
       id="text448"><tspan
         style="font-size:8px;font-variant:normal;font-weight:normal;writing-mode:lr-tb;fill:#000000;fill-opacity:1;fill-rule:nonzero;stroke:none;font-family:ArialMT;-inkscape-font-specification:ArialMT"
         x="0 4.448"
         y="0"
         sodipodi:role="line"
         id="tspan450">10</tspan></text>
<path
       d="m 205.625,594.621 0,1.409 m 0,108.96 0,-1.383"
       style="fill:none;stroke:#000000;stroke-width:0.5;stroke-linecap:butt;stroke-linejoin:round;stroke-miterlimit:10;stroke-opacity:1;stroke-dasharray:none"
       id="path452"
       inkscape:connector-curvature="0" /><text
       transform="matrix(1,0,0,-1,201.4137,583.5162)"
       id="text454"><tspan
         style="font-size:8px;font-variant:normal;font-weight:normal;writing-mode:lr-tb;fill:#000000;fill-opacity:1;fill-rule:nonzero;stroke:none;font-family:ArialMT;-inkscape-font-specification:ArialMT"
         x="0 4.448"
         y="0"
         sodipodi:role="line"
         id="tspan456">15</tspan></text>
<path
       d="m 220.221,594.621 0,1.409 m 0,108.96 0,-1.383"
       style="fill:none;stroke:#000000;stroke-width:0.5;stroke-linecap:butt;stroke-linejoin:round;stroke-miterlimit:10;stroke-opacity:1;stroke-dasharray:none"
       id="path458"
       inkscape:connector-curvature="0" /><text
       transform="matrix(1,0,0,-1,216.0293,583.5162)"
       id="text460"><tspan
         style="font-size:8px;font-variant:normal;font-weight:normal;writing-mode:lr-tb;fill:#000000;fill-opacity:1;fill-rule:nonzero;stroke:none;font-family:ArialMT;-inkscape-font-specification:ArialMT"
         x="0 4.448"
         y="0"
         sodipodi:role="line"
         id="tspan462">20</tspan></text>
<path
       d="m 234.79,594.621 0,1.409 m 0,108.96 0,-1.383"
       style="fill:none;stroke:#000000;stroke-width:0.5;stroke-linecap:butt;stroke-linejoin:round;stroke-miterlimit:10;stroke-opacity:1;stroke-dasharray:none"
       id="path464"
       inkscape:connector-curvature="0" /><text
       transform="matrix(1,0,0,-1,230.6451,583.5162)"
       id="text466"><tspan
         style="font-size:8px;font-variant:normal;font-weight:normal;writing-mode:lr-tb;fill:#000000;fill-opacity:1;fill-rule:nonzero;stroke:none;font-family:ArialMT;-inkscape-font-specification:ArialMT"
         x="0 4.448"
         y="0"
         sodipodi:role="line"
         id="tspan468">25</tspan></text>
<path
       d="m 249.387,594.621 0,1.409 m 0,108.96 0,-1.383"
       style="fill:none;stroke:#000000;stroke-width:0.5;stroke-linecap:butt;stroke-linejoin:round;stroke-miterlimit:10;stroke-opacity:1;stroke-dasharray:none"
       id="path470"
       inkscape:connector-curvature="0" /><text
       transform="matrix(1,0,0,-1,245.261,583.5162)"
       id="text472"><tspan
         style="font-size:8px;font-variant:normal;font-weight:normal;writing-mode:lr-tb;fill:#000000;fill-opacity:1;fill-rule:nonzero;stroke:none;font-family:ArialMT;-inkscape-font-specification:ArialMT"
         x="0 4.448"
         y="0"
         sodipodi:role="line"
         id="tspan474">30</tspan></text>
<path
       d="m 263.956,594.621 0,1.409 m 0,108.96 0,-1.383"
       style="fill:none;stroke:#000000;stroke-width:0.5;stroke-linecap:butt;stroke-linejoin:round;stroke-miterlimit:10;stroke-opacity:1;stroke-dasharray:none"
       id="path476"
       inkscape:connector-curvature="0" /><text
       transform="matrix(1,0,0,-1,259.8759,583.5162)"
       id="text478"><tspan
         style="font-size:8px;font-variant:normal;font-weight:normal;writing-mode:lr-tb;fill:#000000;fill-opacity:1;fill-rule:nonzero;stroke:none;font-family:ArialMT;-inkscape-font-specification:ArialMT"
         x="0 4.448"
         y="0"
         sodipodi:role="line"
         id="tspan480">35</tspan></text>
<path
       d="m 278.552,594.621 0,1.409 m 0,108.96 0,-1.383"
       style="fill:none;stroke:#000000;stroke-width:0.5;stroke-linecap:butt;stroke-linejoin:round;stroke-miterlimit:10;stroke-opacity:1;stroke-dasharray:none"
       id="path482"
       inkscape:connector-curvature="0" /><text
       transform="matrix(1,0,0,-1,274.4909,583.5162)"
       id="text484"><tspan
         style="font-size:8px;font-variant:normal;font-weight:normal;writing-mode:lr-tb;fill:#000000;fill-opacity:1;fill-rule:nonzero;stroke:none;font-family:ArialMT;-inkscape-font-specification:ArialMT"
         x="0 4.448"
         y="0"
         sodipodi:role="line"
         id="tspan486">40</tspan></text>
<path
       d="m 150.217,594.621 1.384,0 m 138.622,0 -1.41,0"
       style="fill:none;stroke:#000000;stroke-width:0.5;stroke-linecap:butt;stroke-linejoin:round;stroke-miterlimit:10;stroke-opacity:1;stroke-dasharray:none"
       id="path488"
       inkscape:connector-curvature="0" /><text
       transform="matrix(1,0,0,-1,136.7475,593.0011)"
       id="text490"><tspan
         style="font-size:8px;font-variant:normal;font-weight:normal;writing-mode:lr-tb;fill:#000000;fill-opacity:1;fill-rule:nonzero;stroke:none;font-family:ArialMT;-inkscape-font-specification:ArialMT"
         x="0 4.448"
         y="0"
         sodipodi:role="line"
         id="tspan492">15</tspan></text>
<path
       d="m 150.217,606.893 1.384,0 m 138.622,0 -1.41,0"
       style="fill:none;stroke:#000000;stroke-width:0.5;stroke-linecap:butt;stroke-linejoin:round;stroke-miterlimit:10;stroke-opacity:1;stroke-dasharray:none"
       id="path494"
       inkscape:connector-curvature="0" /><text
       transform="matrix(1,0,0,-1,136.7475,605.158)"
       id="text496"><tspan
         style="font-size:8px;font-variant:normal;font-weight:normal;writing-mode:lr-tb;fill:#000000;fill-opacity:1;fill-rule:nonzero;stroke:none;font-family:ArialMT;-inkscape-font-specification:ArialMT"
         x="0 4.448"
         y="0"
         sodipodi:role="line"
         id="tspan498">20</tspan></text>
<path
       d="m 150.217,619.165 1.384,0 m 138.622,0 -1.41,0"
       style="fill:none;stroke:#000000;stroke-width:0.5;stroke-linecap:butt;stroke-linejoin:round;stroke-miterlimit:10;stroke-opacity:1;stroke-dasharray:none"
       id="path500"
       inkscape:connector-curvature="0" /><text
       transform="matrix(1,0,0,-1,136.7475,617.315)"
       id="text502"><tspan
         style="font-size:8px;font-variant:normal;font-weight:normal;writing-mode:lr-tb;fill:#000000;fill-opacity:1;fill-rule:nonzero;stroke:none;font-family:ArialMT;-inkscape-font-specification:ArialMT"
         x="0 4.448"
         y="0"
         sodipodi:role="line"
         id="tspan504">25</tspan></text>
<path
       d="m 150.217,631.411 1.384,0 m 138.622,0 -1.41,0"
       style="fill:none;stroke:#000000;stroke-width:0.5;stroke-linecap:butt;stroke-linejoin:round;stroke-miterlimit:10;stroke-opacity:1;stroke-dasharray:none"
       id="path506"
       inkscape:connector-curvature="0" /><text
       transform="matrix(1,0,0,-1,136.7475,629.471)"
       id="text508"><tspan
         style="font-size:8px;font-variant:normal;font-weight:normal;writing-mode:lr-tb;fill:#000000;fill-opacity:1;fill-rule:nonzero;stroke:none;font-family:ArialMT;-inkscape-font-specification:ArialMT"
         x="0 4.448"
         y="0"
         sodipodi:role="line"
         id="tspan510">30</tspan></text>
<path
       d="m 150.217,643.683 1.384,0 m 138.622,0 -1.41,0"
       style="fill:none;stroke:#000000;stroke-width:0.5;stroke-linecap:butt;stroke-linejoin:round;stroke-miterlimit:10;stroke-opacity:1;stroke-dasharray:none"
       id="path512"
       inkscape:connector-curvature="0" /><text
       transform="matrix(1,0,0,-1,136.7475,641.6287)"
       id="text514"><tspan
         style="font-size:8px;font-variant:normal;font-weight:normal;writing-mode:lr-tb;fill:#000000;fill-opacity:1;fill-rule:nonzero;stroke:none;font-family:ArialMT;-inkscape-font-specification:ArialMT"
         x="0 4.448"
         y="0"
         sodipodi:role="line"
         id="tspan516">35</tspan></text>
<path
       d="m 150.217,655.954 1.384,0 m 138.622,0 -1.41,0"
       style="fill:none;stroke:#000000;stroke-width:0.5;stroke-linecap:butt;stroke-linejoin:round;stroke-miterlimit:10;stroke-opacity:1;stroke-dasharray:none"
       id="path518"
       inkscape:connector-curvature="0" /><text
       transform="matrix(1,0,0,-1,136.7475,653.7849)"
       id="text520"><tspan
         style="font-size:8px;font-variant:normal;font-weight:normal;writing-mode:lr-tb;fill:#000000;fill-opacity:1;fill-rule:nonzero;stroke:none;font-family:ArialMT;-inkscape-font-specification:ArialMT"
         x="0 4.448"
         y="0"
         sodipodi:role="line"
         id="tspan522">40</tspan></text>
<path
       d="m 150.217,668.2 1.384,0 m 138.622,0 -1.41,0"
       style="fill:none;stroke:#000000;stroke-width:0.5;stroke-linecap:butt;stroke-linejoin:round;stroke-miterlimit:10;stroke-opacity:1;stroke-dasharray:none"
       id="path524"
       inkscape:connector-curvature="0" /><text
       transform="matrix(1,0,0,-1,136.7475,665.942)"
       id="text526"><tspan
         style="font-size:8px;font-variant:normal;font-weight:normal;writing-mode:lr-tb;fill:#000000;fill-opacity:1;fill-rule:nonzero;stroke:none;font-family:ArialMT;-inkscape-font-specification:ArialMT"
         x="0 4.448"
         y="0"
         sodipodi:role="line"
         id="tspan528">45</tspan></text>
<path
       d="m 150.217,680.472 1.384,0 m 138.622,0 -1.41,0"
       style="fill:none;stroke:#000000;stroke-width:0.5;stroke-linecap:butt;stroke-linejoin:round;stroke-miterlimit:10;stroke-opacity:1;stroke-dasharray:none"
       id="path530"
       inkscape:connector-curvature="0" /><text
       transform="matrix(1,0,0,-1,136.7475,678.0987)"
       id="text532"><tspan
         style="font-size:8px;font-variant:normal;font-weight:normal;writing-mode:lr-tb;fill:#000000;fill-opacity:1;fill-rule:nonzero;stroke:none;font-family:ArialMT;-inkscape-font-specification:ArialMT"
         x="0 4.448"
         y="0"
         sodipodi:role="line"
         id="tspan534">50</tspan></text>
<path
       d="m 150.217,692.745 1.384,0 m 138.622,0 -1.41,0"
       style="fill:none;stroke:#000000;stroke-width:0.5;stroke-linecap:butt;stroke-linejoin:round;stroke-miterlimit:10;stroke-opacity:1;stroke-dasharray:none"
       id="path536"
       inkscape:connector-curvature="0" /><text
       transform="matrix(1,0,0,-1,136.7475,690.2549)"
       id="text538"><tspan
         style="font-size:8px;font-variant:normal;font-weight:normal;writing-mode:lr-tb;fill:#000000;fill-opacity:1;fill-rule:nonzero;stroke:none;font-family:ArialMT;-inkscape-font-specification:ArialMT"
         x="0 4.448"
         y="0"
         sodipodi:role="line"
         id="tspan540">55</tspan></text>
<path
       d="m 150.217,704.99 1.384,0 m 138.622,0 -1.41,0"
       style="fill:none;stroke:#000000;stroke-width:0.5;stroke-linecap:butt;stroke-linejoin:round;stroke-miterlimit:10;stroke-opacity:1;stroke-dasharray:none"
       id="path542"
       inkscape:connector-curvature="0" /><text
       transform="matrix(1,0,0,-1,136.7475,702.412)"
       id="text544"><tspan
         style="font-size:8px;font-variant:normal;font-weight:normal;writing-mode:lr-tb;fill:#000000;fill-opacity:1;fill-rule:nonzero;stroke:none;font-family:ArialMT;-inkscape-font-specification:ArialMT"
         x="0 4.448"
         y="0"
         sodipodi:role="line"
         id="tspan546">60</tspan></text>
<path
       d="m 150.217,704.99 140.006,0 m -140.006,-110.369 140.006,0 0,110.369 m -140.006,-110.369 0,110.369"
       style="fill:none;stroke:#000000;stroke-width:0.5;stroke-linecap:butt;stroke-linejoin:round;stroke-miterlimit:10;stroke-opacity:1;stroke-dasharray:none"
       id="path548"
       inkscape:connector-curvature="0" /><path
       d="m 202.726,670.916 0.079,0.052 0.26,0.183 0.366,0.261 0.731,0.574 0.366,0.314 0.365,0.313 0.366,0.313 0.366,0.34 0.574,0.549 0.549,0.548 1.749,1.749 0.652,0.652 0.679,0.654 0.81,0.756 0.809,0.705 0.809,0.653 0.758,0.523 0.627,0.417 0.574,0.313 0.548,0.261 0.549,0.236 0.548,0.156 0.548,0.157 0.549,0.105 0.548,0.052 0.575,0.026 0.6,-0.026 0.6,-0.052 0.653,-0.131 0.68,-0.157 0.729,-0.208 0.81,-0.288 0.888,-0.366 0.992,-0.469 0.993,-0.496 1.018,-0.549 1.018,-0.574 1.071,-0.6 1.096,-0.602 1.149,-0.573 1.202,-0.575 1.226,-0.522 1.228,-0.444 1.149,-0.313 1.043,-0.236 1.019,-0.157 0.967,-0.077 0.914,-0.027 0.887,0.052 0.862,0.079 0.835,0.13 1.619,0.365 0.81,0.236 0.809,0.261 0.81,0.288 0.809,0.313 0.862,0.313 0.887,0.366 0.967,0.365 1.097,0.418 1.122,0.417 1.201,0.392 1.227,0.339 1.044,0.235 0.915,0.158 0.861,0.13 0.836,0.079 0.809,0.025 0.836,0 0.862,-0.025 0.861,-0.053 0.888,-0.104 0.966,-0.131 0.992,-0.183 1.045,-0.209 1.175,-0.234 1.253,-0.314 1.359,-0.313 1.409,-0.339 1.435,-0.314 1.516,-0.287 1.618,-0.262 1.698,-0.208 1.462,-0.105 1.279,-0.026 1.149,0.026 1.07,0.026 1.098,0.079 1.096,0.104 1.07,0.131 1.124,0.157 1.148,0.155 1.201,0.184 1.097,0.183 1.122,0.183 m -93.476,-7.991 0.052,-0.025 0.104,0 0.053,-0.027 0.156,0 0.052,-0.025 0.157,0 0.053,-0.027 0.365,0 0.027,-0.026 0.417,0 0.078,0.026 0.366,0 0.078,0.027 0.157,0 0.025,0.025 0.106,0 0.078,0.027 0.13,0 0.026,0.025 0.052,0 0.079,0.027 0.079,0 0.052,0.026 0.078,0 0.234,0.079 0.053,0 0.157,0.051 0.078,0.026 0.078,0.026 0.053,0 0.077,0.027 0.236,0.078 0,0.026 0.052,0 0.078,0.026 0.157,0.079 0.078,0.025 0.053,0.027 0.077,0.026 0.158,0.079 0.078,0.026 0.078,0.051 0.053,0.027 0.156,0.052 0.052,0.052 0.027,0 0.079,0.053 0.051,0.025 0.209,0.131 0.026,0 0.052,0.026 0.08,0.052 0.208,0.131 0.025,0 0.079,0.052 0.261,0.183 0.026,0 m -10.601,0.809 0.027,-0.026 0.052,-0.026 0.025,-0.026 0.079,-0.052 -0.026,0 0.026,0 0.052,-0.052 0.079,-0.053 0.052,-0.052 0.026,0 0.052,-0.052 0.027,0 0.051,-0.052 0.079,-0.053 0.052,-0.052 0.026,0 0.053,-0.053 0.025,0 0.053,-0.051 0.026,0 0.052,-0.053 0.157,-0.104 0.052,-0.052 0.026,0 0.052,-0.026 0.026,-0.027 0.053,-0.025 0.078,-0.054 0.052,-0.051 0.026,0 0.053,-0.026 0.026,-0.026 0.052,-0.026 0.025,0 0.053,-0.053 0.078,-0.052 0.053,-0.025 0.026,0 0.052,-0.053 0.027,0 0.051,-0.027 0.027,-0.026 0.051,-0.025 0.079,-0.053 0.052,-0.025 0.026,0 0.053,-0.027 0.026,-0.026 0.052,-0.026 0.079,-0.026 0.051,-0.026 0.027,-0.026 0.052,-0.027 0.026,0 0.052,-0.026 0.026,0 0.052,-0.051 0.157,-0.052 0.053,-0.027 0.026,0 0.052,-0.053 0.026,0 0.053,-0.025 0.077,-0.027 0.053,-0.026 0.026,0 0.051,-0.026 0.027,0 0.052,-0.026 0.026,0 0.052,-0.026 0.079,-0.026 0.053,-0.026 0.025,0 0.053,-0.026 0.025,0 0.053,-0.027 0.026,0 0.052,-0.026 0.079,-0.026 0.051,0 0.027,-0.026 0.078,0 0.053,-0.025 0.078,-0.027 0.052,0 0.026,-0.026 0.078,0 0.053,-0.026 0.026,0 0.052,-0.026 0.078,0 0.078,-0.027 0.079,0 m -8.851,6.476 0.026,-0.026 0.052,-0.052 0.026,-0.027 0.078,-0.078 -0.026,0 0.026,0 0.052,-0.077 0.078,-0.079 0,-0.027 0.079,-0.052 0,-0.026 0.209,-0.208 0,-0.027 0.078,-0.052 0,-0.026 0.078,-0.078 0.052,-0.079 0.028,0 0.051,-0.078 0.026,0 0.052,-0.078 0.053,-0.078 0.078,-0.079 0.026,-0.026 0.052,-0.053 0.026,0 0.053,-0.078 0.025,-0.026 0.053,-0.053 0.052,-0.077 0.027,0 0.051,-0.079 0.027,0 0.052,-0.078 0.026,0 0.051,-0.078 0.028,0 0.051,-0.079 0.079,-0.052 0,-0.026 0.13,-0.13 0.026,-0.026 0.418,-0.419 0.078,-0.051 0,-0.027 0.079,-0.052 0,-0.026 0.078,-0.052 0.053,-0.079 0.026,0 0.052,-0.078 0.052,-0.053 0.027,0 0.051,-0.077 0.027,0 0.26,-0.262 0.027,0 0.131,-0.131 0.026,0 0.052,-0.078 0.078,-0.052 0.052,-0.052 0.027,-0.026 0.078,-0.053 -0.026,0 0.026,0 0.051,-0.052 0.027,0 0.053,-0.078 0.078,-0.052 0.052,-0.053 0.026,0 0.131,-0.13 0.026,0 0.052,-0.052 0.078,-0.052 0.052,-0.053 m -7.781,8.461 0.079,-0.079 0.052,-0.079 0.078,-0.077 0,-0.027 0.157,-0.156 0,-0.027 0.078,-0.078 0.052,-0.078 0.078,-0.079 0,-0.026 0.079,-0.079 0,-0.025 0.078,-0.053 0,-0.026 0.078,-0.078 0.053,-0.078 0.026,-0.026 0.052,-0.079 0.079,-0.078 0,-0.025 0.078,-0.054 0,-0.025 0.078,-0.079 0.079,-0.105 -0.027,0 0.027,0 0.052,-0.078 0.078,-0.079 0,-0.025 0.078,-0.079 -0.026,0 0.026,0 0.053,-0.078 0.026,-0.025 0.078,-0.079 -0.025,0 0.025,0 0.052,-0.078 0.079,-0.079 0,-0.026 0.026,-0.026 0.052,-0.052 0.052,-0.079 0.027,-0.025 0.078,-0.079 -0.027,0 0.027,0 0.052,-0.078 0.078,-0.078 0,-0.027 0.078,-0.078 -0.025,0 0.025,0 0.053,-0.079 0.026,0 0.053,-0.078 0.025,-0.026 0.053,-0.079 0.026,0 0.025,-0.078 0.028,0 0.025,-0.052 0.131,-0.13 -0.027,0 0.027,0 0.052,-0.079 0.078,-0.078 0,-0.027 0.104,-0.103 0.026,-0.053 0.183,-0.182 -0.025,0 0.025,0 0.053,-0.079 0,-0.026 0.078,-0.052 0,-0.027 0.156,-0.156 -0.025,0 0.025,0 0.052,-0.078 0.027,0 0.052,-0.105 0.053,-0.052 m -7.782,8.956 0,-0.026 0.079,-0.052 0.052,-0.078 0.026,0 0.079,-0.079 0.052,-0.052 0.208,-0.209 0.027,0 0.077,-0.078 0.053,-0.079 0.053,-0.053 0.025,0 0.053,-0.077 0.025,0 0.053,-0.052 0.027,-0.026 0.051,-0.079 0.078,-0.052 0,-0.026 0.079,-0.052 0.053,-0.078 0.025,0 0.052,-0.08 0.026,0 0.053,-0.077 0.078,-0.079 0.052,-0.052 0.027,-0.026 0.052,-0.079 0.026,0 0.052,-0.078 0.027,0 0.051,-0.078 0.078,-0.053 0,-0.025 0.157,-0.157 0.053,-0.079 0.026,0 0.053,-0.078 0.077,-0.079 0.052,-0.078 0.235,-0.235 0,-0.026 0.157,-0.157 0.053,-0.078 0.078,-0.078 0,-0.026 0.078,-0.052 0,-0.026 0.079,-0.078 0.052,-0.079 0.157,-0.157 0,-0.026 0.156,-0.157 0,-0.026 0.053,-0.052 0.025,-0.025 0.079,-0.08 0.052,-0.077 0,-0.026 0.079,-0.053 0,-0.026 0.078,-0.078 0.052,-0.079 0.026,-0.026 0.078,-0.078 -0.026,0 0.026,0 0.053,-0.079 0.078,-0.077 0,-0.027 0.078,-0.079 -0.026,0 0.026,0 0.053,-0.078 0.104,-0.104 0.052,-0.078 0.079,-0.079 0,-0.025 m -8.591,6.788 0.365,0 0.053,-0.026 0.078,0 0.052,-0.026 0.104,0 0.053,-0.026 0.026,0 0.052,-0.026 0.078,-0.027 0.053,0 0.026,-0.026 0.078,0 0.052,-0.026 0.026,0 0.105,-0.053 0.026,0 0.053,-0.025 0.025,0 0.052,-0.026 0.027,0 0.052,-0.026 0.026,0 0.052,-0.027 0.052,-0.026 0.026,0 0.053,-0.025 0.025,0 0.054,-0.027 0.025,0 0.052,-0.026 0.079,-0.052 0.053,-0.026 0.025,0 0.052,-0.026 0.027,0 0.051,-0.027 0.027,0 0.052,-0.051 0.078,-0.027 0.052,-0.026 0.027,-0.025 0.052,-0.028 0.026,0 0.052,-0.025 0.027,0 0.052,-0.052 0.078,-0.053 0.052,-0.025 0.027,0 0.051,-0.027 0.027,-0.026 0.051,-0.026 0.028,0 0.051,-0.052 0.079,-0.053 0.052,-0.025 0.026,-0.027 0.052,-0.026 0.026,-0.026 0.053,-0.025 0.025,0 0.053,-0.054 0.078,-0.052 0.052,-0.052 0.026,0 0.053,-0.052 0.026,0 0.13,-0.13 0.053,-0.027 0.078,-0.078 0.026,0 0.052,-0.052 0.026,0 0.053,-0.078 0.078,-0.027 0,-0.025 0.079,-0.054 0.052,-0.051 0.025,-0.026 0.078,-0.052 -0.025,0 0.025,0 0.053,-0.053 0.078,-0.052 m -7.885,-2.767 0.078,0.156 0,0.052 0.053,0.156 0.026,0.027 0,0.026 0.052,0.157 0,0.025 0.026,0.027 0.052,0.156 0.027,0.027 0.052,0.157 0,0.051 0.078,0.157 0,0.027 0.078,0.156 0,0.026 0.052,0.131 0,0.025 0.026,0.027 0.053,0.131 0.026,0.026 0.052,0.13 0,0.053 0.078,0.13 0,0.025 0.078,0.132 0,0.026 0.053,0.104 0.026,0.026 0.052,0.131 0.026,0.025 0.052,0.106 0,0.026 0.079,0.13 0,0.026 0.079,0.104 0,0.027 0.077,0.105 0,0.026 0.054,0.077 0.025,0.026 0.052,0.106 0,0.025 0.078,0.079 0,0.025 0.079,0.079 0,0.026 0.079,0.105 -0.027,0 0.027,0 0.051,0.079 0,0.025 0.157,0.157 0,0.026 0.078,0.078 -0.026,0 0.026,0 0.053,0.078 0.026,0 0.052,0.079 0.079,0.053 0,0.025 0.025,0.026 0.053,0.027 0,0.025 0.078,0.053 0.078,0.078 0.052,0.026 0.027,0.026 0.079,0.052 -0.028,0 0.028,0 0.051,0.026 0,0.027 0.079,0.026 0.052,0.051 0.025,0 0.053,0.027 0.026,0 0.053,0.052 0.025,0 0.026,0.026 0.027,0 0.052,0.027 0.026,0 0.051,0.026 0.028,0 0.052,0.026 0.078,0 0.026,0.026 0.105,0 0.026,0.026 0.078,0 m -6.579,-19.139 0,0.078 0.078,0.392 0,0.077 0.052,0.341 0,0.026 0.026,0.078 0.052,0.34 0,0.026 0.026,0.078 0.052,0.339 0,0.105 0.078,0.313 0,0.104 0.053,0.34 0.025,0.026 0,0.052 0.053,0.34 0,0.026 0.026,0.052 0.053,0.34 0,0.026 0.025,0.052 0.053,0.339 0,0.079 0.078,0.313 0,0.078 0.079,0.34 0,0.051 0.051,0.315 0,0.026 0.027,0.077 0.052,0.288 0,0.026 0.026,0.053 0.052,0.313 0,0.078 0.078,0.287 0,0.079 0.053,0.312 0.026,0.053 0.052,0.313 0.026,0.052 0.053,0.288 0,0.078 0.078,0.287 0,0.053 0.052,0.286 0.027,0.027 0,0.052 0.051,0.261 0,0.027 0.026,0.052 0.053,0.26 0,0.027 0.026,0.051 0.051,0.261 0,0.053 0.08,0.261 0,0.078 0.078,0.262 0,0.052 0.052,0.235 0,0.026 0.026,0.052 0.053,0.236 0,0.026 0.025,0.052 0.053,0.236 0,0.051 0.078,0.235 0,0.052 0.052,0.235 0.026,0.026 0,0.027 0.052,0.234 0.027,0.053 0.052,0.235 0.025,0.052 0.053,0.209 0,0.052 0.079,0.209 0,0.051 0.078,0.236 0,0.026 0.052,0.209 0,0.027 0.026,0.026 0.053,0.208 0.026,0.026 0.052,0.209 0,0.053 0.078,0.182 0,0.052 0.078,0.183 0,0.053 0.053,0.182 0.025,0.027 0.053,0.182 0,0.053 m -5.901,-34.362 0,0.104 0.078,0.418 0,0.13 0.053,0.444 0.026,0.027 0,0.078 0.052,0.418 0,0.051 0.026,0.079 0.052,0.418 0,0.026 0.026,0.078 0.053,0.469 0,0.079 0.078,0.444 0,0.131 0.052,0.418 0,0.026 0.026,0.078 0.052,0.444 0,0.025 0.026,0.08 0.053,0.417 0,0.105 0.077,0.444 0,0.103 0.053,0.418 0.026,0.027 0,0.105 0.053,0.418 0,0.025 0.026,0.078 0.052,0.445 0,0.025 0.026,0.079 0.052,0.392 0,0.13 0.079,0.418 0,0.104 0.078,0.444 0,0.105 0.051,0.418 0,0.026 0.028,0.078 0.051,0.418 0,0.026 0.027,0.078 0.052,0.392 0,0.13 0.078,0.418 0,0.105 0.053,0.417 0.025,0.027 0,0.078 0.053,0.418 0,0.026 0.026,0.078 0.052,0.418 0,0.026 0.026,0.078 0.053,0.418 0,0.104 0.078,0.392 0,0.105 0.051,0.418 0.027,0.026 0,0.078 0.052,0.391 0,0.027 0.026,0.078 0.053,0.391 0,0.027 0.025,0.078 0.053,0.391 0,0.105 0.078,0.391 0,0.105 0.052,0.392 0,0.026 0.027,0.078 0.052,0.392 0,0.026 0.026,0.079 0.053,0.364 0,0.106 0.077,0.391 0,0.105 0.053,0.365 0.025,0.026 0,0.079 0.053,0.365 0,0.026 0.026,0.078 0.053,0.366 0,0.026 0.025,0.079 0.052,0.339 0,0.104 0.08,0.366 m -5.692,-42.404 0.077,0.522 0,0.157 0.053,0.419 0.026,0.024 0,0.156 0.051,0.419 0,0.027 0.027,0.129 0.052,0.47 0.027,0.131 0.051,0.523 0.079,0.522 0,0.13 0.078,0.472 0,0.128 0.052,0.418 0,0.027 0.026,0.13 0.053,0.445 0,0.025 0.026,0.131 0.052,0.418 0,0.052 0.027,0.105 0.052,0.443 0,0.13 0.051,0.444 0.027,0.027 0,0.104 0.052,0.418 0,0.053 0.026,0.103 0.052,0.444 0,0.026 0.026,0.132 0.052,0.443 0,0.027 0.026,0.104 0.052,0.443 0,0.132 0.054,0.444 0.025,0.025 0,0.105 0.052,0.418 0,0.051 0.027,0.079 0.052,0.47 0,0.025 0.026,0.105 0.052,0.444 0,0.131 0.078,0.418 0,0.156 0.053,0.418 0,0.026 0.025,0.131 0.053,0.418 0,0.025 0.026,0.105 0.053,0.445 0,0.024 0.025,0.105 0.052,0.444 0,0.13 0.053,0.419 0.026,0.025 0,0.105 0.052,0.444 0,0.026 0.026,0.105 0.053,0.417 0,0.053 0.026,0.079 0.051,0.443 0,0.026 0.027,0.104 0.052,0.445 0,0.13 0.078,0.418 0,0.13 0.052,0.444 0.027,0.131 0.052,0.391 0,0.053 0.026,0.078 0.052,0.443 0,0.132 0.079,0.443 0,0.131 0.052,0.417 0.026,0.027 0,0.078 0.052,0.444 0,0.026 0.027,0.104 0.051,0.418 0,0.026 0.027,0.079 0.052,0.47 m -5.222,-30.027 0,-0.183 0.026,-0.026 0,-0.184 0.025,-0.025 0,-0.158 0.027,-0.025 0,-0.185 0.027,-0.024 0,-0.156 0.025,-0.028 0,-0.181 0.027,-0.027 0,-0.183 0.025,-0.025 0,-0.158 0.026,-0.027 0,-0.181 0.027,-0.027 0,-0.156 0.025,-0.026 0,-0.184 0.027,-0.025 0,-0.183 0.026,-0.026 0,-0.155 0.027,-0.027 0,-0.184 0.025,-0.024 0,-0.184 0.027,-0.026 0,-0.157 0.026,-0.027 0,-0.181 0.026,-0.028 0,-0.155 0.026,-0.028 0,-0.183 0.026,-0.024 0,-0.157 0.026,-0.027 0,-0.155 0.027,-0.028 0,-0.182 0.026,-0.025 0,-0.183 0.025,-0.028 0,-0.156 0.027,-0.025 0,-0.183 0.026,-0.027 0,-0.157 0.025,-0.026 0,-0.182 0.027,-0.027 0,-0.183 0.026,-0.025 0,-0.158 0.026,-0.025 0,-0.158 0,0.028 0.027,0.027 0,0.155 0.078,0.627 0.13,1.15 0.131,1.174 0.026,0.025 0,0.159 0.078,0.624 0.131,1.072 0,0.026 0.026,0.13 0.052,0.523 0.052,0.549 0,0.025 0.026,0.026 0,0.105 0.078,0.627 0.131,1.07 0,0.026 0.026,0.131 0.053,0.522 0.053,0.521 0,0.027 0.025,0.026 0,0.105 0.052,0.443 0,0.052 0.026,0.132 0.052,0.521 0.079,0.524 0,0.154 0.078,0.499 0.052,0.521 0,0.052 0.026,0.13 0.053,0.444 0,0.026 0.025,0.132 0.054,0.521 m -3.682,1.959 0.025,-0.027 0,-0.184 0.027,-0.024 0,-0.157 0.026,-0.026 0,-0.184 0.025,-0.025 0,-0.184 0.027,-0.026 0,-0.156 0.026,-0.027 0,-0.181 0.026,-0.027 0,-0.157 0.027,-0.026 0,-0.156 0.025,-0.028 0,-0.18 0.026,-0.028 0,-0.156 0.026,-0.026 0,-0.183 0.027,-0.025 0,-0.184 0.026,-0.026 0,-0.157 0.026,-0.026 0,-0.183 0.026,-0.024 0,-0.159 0.026,-0.026 0,-0.182 0.025,-0.027 0,-0.182 0.027,-0.026 0,-0.157 0.026,-0.026 0,-0.183 0.027,-0.024 0,-0.159 0.026,-0.026 0,-0.182 0.026,-0.027 0,-0.181 0.025,-0.028 0,-0.156 0.027,-0.026 0,-0.184 0.026,-0.025 0,-0.156 0.026,-0.027 0,-0.182 0.027,-0.026 0,-0.157 0.025,-0.025 0,-0.157 0.026,-0.028 0,-0.183 0.027,-0.024 0,-0.183 0.026,-0.027 0,-0.156 0.026,-0.027 0,-0.182 0.026,-0.028 0,-0.182 0.026,-0.025 0,-0.158 0.026,-0.024 0,-0.184 0.027,-0.027 0,-0.155 0.026,-0.027 0,-0.182 0.025,-0.028 0,-0.182 0.028,-0.025 0,-0.157 0.024,-0.025 0,-0.184 0.027,-0.026 0,-0.158 0.026,-0.025 0,-0.183 0.027,-0.027 0,-0.181 0.025,-0.026 0,-0.157 0.027,-0.028 0,-0.183 0.026,-0.025 0,-0.156 0.025,-0.026 0,-0.183 0.026,-0.025 0,-0.158 0.027,-0.026 0,-0.155 0.026,-0.027 m -2.585,19.557 0,-0.184 0.027,-0.026 0,-0.184 0.025,-0.024 0,-0.156 0.026,-0.027 0,-0.183 0.026,-0.025 0,-0.159 0.026,-0.025 0,-0.183 0.027,-0.027 0,-0.181 0.026,-0.027 0,-0.156 0.026,-0.027 0,-0.182 0.026,-0.026 0,-0.157 0.026,-0.026 0,-0.183 0.026,-0.025 0,-0.183 0.026,-0.027 0,-0.156 0.027,-0.027 0,-0.184 0.025,-0.025 0,-0.156 0.026,-0.027 0,-0.157 0.027,-0.026 0,-0.184 0.026,-0.023 0,-0.157 0.026,-0.027 0,-0.182 0.026,-0.027 0,-0.182 0.026,-0.028 0,-0.156 0.026,-0.026 0,-0.182 0.026,-0.026 0,-0.183 0.027,-0.026 0,-0.157 0.026,-0.026 0,-0.182 0.026,-0.028 0,-0.156 0.026,-0.026 0,-0.182 0.026,-0.025 0,-0.186 0.026,-0.024 0,-0.158 0.026,-0.025 0,-0.182 0.027,-0.027 0,-0.157 0.025,-0.026 0,-0.182 0.027,-0.029 0,-0.181 0.025,-0.026 0,-0.157 0.026,-0.024 0,-0.183 0.027,-0.027 0,-0.155 0.026,-0.029 0,-0.155 0.026,-0.026 0,-0.183 0.026,-0.027 0,-0.156 0.026,-0.027 0,-0.183 0.026,-0.024 0,-0.185 0.027,-0.026 0,-0.156 0.026,-0.026 0,-0.182 0.026,-0.028 0,-0.155 0.026,-0.027 0,-0.182 0.026,-0.027 0,-0.184 0.025,-0.024 0,-0.158 0.028,-0.025 0,-0.182 0.025,-0.028 0,-0.181 0.027,-0.028 0,-0.155 m -2.586,19.556 0.027,-0.026 0,-0.183 0.026,-0.025 0,-0.132 0.025,-0.025 0,-0.183 0.027,-0.027 0,-0.182 0.026,-0.026 0,-0.157 0.025,-0.027 0,-0.182 0.027,-0.026 0,-0.182 0.026,-0.027 0,-0.156 0.026,-0.027 0,-0.183 0.027,-0.025 0,-0.157 0.025,-0.026 0,-0.183 0.026,-0.026 0,-0.182 0.027,-0.027 0,-0.157 0.026,-0.026 0,-0.183 0.026,-0.025 0,-0.157 0.026,-0.026 0,-0.183 0.026,-0.026 0,-0.183 0.026,-0.026 0,-0.157 0.027,-0.026 0,-0.183 0.026,-0.026 0,-0.156 0.025,-0.027 0,-0.182 0.027,-0.026 0,-0.157 0.026,-0.027 0,-0.156 0.026,-0.026 0,-0.183 0.026,-0.026 0,-0.183 0.027,-0.025 0,-0.158 0.025,-0.026 0,-0.182 0.027,-0.026 0,-0.158 0.026,-0.025 0,-0.183 0.025,-0.026 0,-0.183 0.027,-0.027 0,-0.156 0.026,-0.026 0,-0.182 0.026,-0.027 0,-0.156 0.027,-0.027 0,-0.182 0.025,-0.026 0,-0.184 0.026,-0.025 0,-0.157 0.026,-0.026 0,-0.183 0.027,-0.026 0,-0.182 0.026,-0.027 0,-0.157 0.025,-0.026 0,-0.183 0.027,-0.025 0,-0.157 0.026,-0.026 0,-0.184 0.026,-0.025 0,-0.157 0.027,-0.026 0,-0.155 0.025,-0.028 0,-0.182 0.026,-0.027 0,-0.183 0.027,-0.025 0,-0.158 0.026,-0.025 0,-0.182 0.025,-0.027 0,-0.158 0.027,-0.024 m -2.585,19.557 0,-0.184 0.026,-0.026 0,-0.183 0.027,-0.026 0,-0.156 0.025,-0.027 0,-0.182 0.026,-0.026 0,-0.157 0.027,-0.027 0,-0.182 0.026,-0.026 0,-0.183 0.025,-0.026 0,-0.157 0.028,-0.026 0,-0.182 0.025,-0.026 0,-0.157 0.026,-0.027 0,-0.155 0.026,-0.028 0,-0.182 0.026,-0.025 0,-0.157 0.027,-0.027 0,-0.183 0.025,-0.025 0,-0.183 0.027,-0.027 0,-0.157 0.025,-0.025 0,-0.183 0.027,-0.026 0,-0.156 0.026,-0.028 0,-0.182 0.026,-0.026 0,-0.183 0.026,-0.026 0,-0.157 0.027,-0.025 0,-0.183 0.025,-0.027 0,-0.183 0.026,-0.025 0,-0.157 0.027,-0.026 0,-0.183 0.026,-0.026 0,-0.157 0.026,-0.026 0,-0.182 0.026,-0.027 0,-0.182 0.026,-0.026 0,-0.157 0.026,-0.026 0,-0.184 0.026,-0.025 0,-0.157 0.026,-0.026 0,-0.157 0.027,-0.025 0,-0.184 0.026,-0.026 0,-0.156 0.026,-0.026 0,-0.183 0.026,-0.026 0,-0.183 0.026,-0.026 0,-0.157 0.026,-0.025 0,-0.183 0.026,-0.027 0,-0.156 0.027,-0.026 0,-0.183 0.025,-0.027 0,-0.183 0.026,-0.025 0,-0.157 0.028,-0.026 0,-0.184 0.024,-0.025 0,-0.157 0.027,-0.026 0,-0.182 0.026,-0.027 0,-0.182 0.026,-0.027 0,-0.156 0.026,-0.027 0,-0.182 0.026,-0.026 0,-0.157 0.027,-0.026 0,-0.183 m -2.585,19.584 0.025,-0.027 0,-0.183 0.027,-0.026 0,-0.156 0.026,-0.027 0,-0.183 0.026,-0.025 0,-0.183 0.026,-0.026 0,-0.157 0.026,-0.026 0,-0.183 0.026,-0.026 0,-0.156 0.026,-0.026 0,-0.183 0.027,-0.027 0,-0.183 0.025,-0.026 0,-0.156 0.027,-0.027 0,-0.182 0.026,-0.026 0,-0.183 0.026,-0.026 0,-0.157 0.026,-0.026 0,-0.182 0.026,-0.027 0,-0.157 0.026,-0.025 0,-0.183 0.027,-0.026 0,-0.184 0.025,-0.025 0,-0.131 0.026,-0.026 0,-0.183 0.027,-0.026 0,-0.183 0.026,-0.026 0,-0.156 0.026,-0.026 0,-0.183 0.027,-0.027 0,-0.156 0.025,-0.026 0,-0.182 0.026,-0.027 0,-0.182 0.026,-0.027 0,-0.157 0.027,-0.026 0,-0.183 0.026,-0.025 0,-0.158 0.025,-0.025 0,-0.183 0.027,-0.026 0,-0.183 0.026,-0.026 0,-0.157 0.025,-0.026 0,-0.182 0.028,-0.027 0,-0.157 0.025,-0.025 0,-0.183 0.026,-0.027 0,-0.182 0.027,-0.026 0,-0.157 0.025,-0.026 0,-0.183 0.026,-0.026 0,-0.156 0.027,-0.027 0,-0.157 0.026,-0.025 0,-0.184 0.026,-0.026 0,-0.156 0.026,-0.026 0,-0.182 0.027,-0.028 0,-0.182 0.025,-0.026 0,-0.156 0.027,-0.026 0,-0.184 0.026,-0.025 0,-0.183 0.026,-0.027 0,-0.156 0.026,-0.027 0,-0.182 0.026,-0.026 0,-0.157 0.026,-0.025 m -2.585,19.556 0,-0.183 0.026,-0.026 0,-0.182 0.026,-0.027 0,-0.157 0.026,-0.025 0,-0.183 0.026,-0.026 0,-0.157 0.027,-0.027 0,-0.156 0.025,-0.026 0,-0.183 0.027,-0.026 0,-0.156 0.025,-0.027 0,-0.182 0.027,-0.027 0,-0.182 0.027,-0.027 0,-0.156 0.025,-0.026 0,-0.182 0.026,-0.027 0,-0.156 0.026,-0.026 0,-0.184 0.027,-0.025 0,-0.183 0.026,-0.027 0,-0.156 0.026,-0.026 0,-0.183 0.026,-0.027 0,-0.155 0.026,-0.028 0,-0.182 0.026,-0.026 0,-0.183 0.026,-0.026 0,-0.157 0.026,-0.025 0,-0.183 0.027,-0.027 0,-0.156 0.026,-0.026 0,-0.183 0.025,-0.026 0,-0.183 0.027,-0.026 0,-0.131 0.026,-0.026 0,-0.183 0.026,-0.025 0,-0.184 0.026,-0.025 0,-0.157 0.027,-0.026 0,-0.183 0.025,-0.027 0,-0.182 0.027,-0.026 0,-0.156 0.025,-0.026 0,-0.184 0.027,-0.026 0,-0.156 0.027,-0.027 0,-0.182 0.025,-0.026 0,-0.183 0.026,-0.026 0,-0.157 0.026,-0.026 0,-0.183 0.027,-0.026 0,-0.157 0.025,-0.025 0,-0.184 0.026,-0.026 0,-0.182 0.027,-0.026 0,-0.157 0.026,-0.027 0,-0.182 0.025,-0.026 0,-0.157 0.027,-0.025 0,-0.184 0.026,-0.026 0,-0.183 0.026,-0.026 0,-0.13 0.026,-0.026 0,-0.183 0.026,-0.026 0,-0.183 0.027,-0.025 0,-0.157 m -3.656,11.488 2.116,0 0.025,-0.026 0.026,-0.026 0,-0.183 0.027,-0.027 0,-0.182 0.026,-0.026 0,-0.156 0.026,-0.027 0,-0.183 0.026,-0.025 0,-0.183 0.026,-0.027 0,-0.156 0.026,-0.027 0,-0.182 0.027,-0.026 0,-0.157 0.025,-0.026 m -3.134,1.645 0.758,0"
       style="fill:none;stroke:#0000ff;stroke-width:0.77600002;stroke-linecap:butt;stroke-linejoin:round;stroke-miterlimit:10;stroke-opacity:1;stroke-dasharray:none"
       id="path550"
       inkscape:connector-curvature="0" /><path
       d="m 153.116,693.737 0,-17.808 m -1.358,17.808 2.741,0 m -2.741,-17.808 2.741,0 m 1.541,-32.351 0,-13.395 m -1.384,13.395 2.742,0 m -2.742,-13.395 2.742,0 m 1.567,-11.985 0,-9.505 m -1.384,9.505 2.742,0 m -2.742,-9.505 2.742,0 m 1.54,11.829 0,-14.726 m -1.358,14.726 2.742,0 m -2.742,-14.726 2.742,0 m 1.54,34.91 0,-33.84 m -1.358,33.84 2.742,0 m -2.742,-33.84 2.742,0 m 1.541,57.444 0,-41.255 m -1.384,41.255 2.742,0 m -2.742,-41.255 2.742,0 m 4.464,76.504 0,-21.253 m -1.358,21.253 2.743,0 m -2.743,-21.253 2.743,0 m 1.54,20.131 0,-14.126 m -1.384,14.126 2.742,0 m -2.742,-14.126 2.742,0 m 1.566,19.426 0,-21.437 m -1.384,21.437 2.742,0 m -2.742,-21.437 2.742,0 m 1.54,11.124 0,-19.897 m -1.358,19.897 2.743,0 m -2.743,-19.897 2.743,0 m 1.54,13.264 0,-17.52 m -1.384,17.52 2.768,0 m -2.768,-17.52 2.768,0 m 1.54,7.363 0,-22.272 m -1.383,22.272 2.741,0 m -2.741,-22.272 2.741,0 m 4.465,26.006 0,-11.228 m -1.357,11.228 2.74,0 m -2.74,-11.228 2.74,0 m 1.542,11.332 0,-14.178 m -1.385,14.178 2.742,0 m -2.742,-14.178 2.742,0 m 1.566,9.008 0,-22.35 m -1.383,22.35 2.742,0 m -2.742,-22.35 2.742,0 m 4.465,32.768 0,-18.669 m -1.385,18.669 2.742,0 m -2.742,-18.669 2.742,0 m 7.39,18.33 0,-10.914 m -1.358,10.914 2.741,0 m -2.741,-10.914 2.741,0 m 4.466,9.087 0,-6.686 m -1.385,6.686 2.742,0 m -2.742,-6.686 2.742,0 m 4.465,6.398 0,-8.851 m -1.384,8.851 2.742,0 m -2.742,-8.851 2.742,0 m 7.389,10.549 0,-10.053 m -1.359,10.053 2.743,0 m -2.743,-10.053 2.743,0 m 4.439,7.05 0,-11.698 m -1.358,11.698 2.742,0 m -2.742,-11.698 2.742,0 m 4.465,16.607 0,-18.801 m -1.385,18.801 2.742,0 m -2.742,-18.801 2.742,0 m 7.389,21.463 0,-17.571 m -1.383,17.571 2.767,0 m -2.767,-17.571 2.767,0 m 4.439,5.691 0,-10.705 m -1.357,10.705 2.741,0 m -2.741,-10.705 2.741,0 m 4.466,14.778 0,-13.394 m -1.385,13.394 2.742,0 m -2.742,-13.394 2.742,0 m 7.39,12.664 0,-9.74 m -1.384,9.74 2.741,0 m -2.741,-9.74 2.741,0 m 7.39,10.47 0,-13.394 m -1.358,13.394 2.742,0 m -2.742,-13.394 2.742,0 m 4.464,12.351 0,-16.215 m -1.383,16.215 1.41,0 m -1.41,-16.215 1.41,0"
       style="fill:none;stroke:#ff0000;stroke-width:0.38800001;stroke-linecap:butt;stroke-linejoin:round;stroke-miterlimit:10;stroke-opacity:1;stroke-dasharray:2.3269, 2.3269;stroke-dashoffset:0"
       id="path552"
       inkscape:connector-curvature="0" /><path
       d="m 153.116,684.833 2.924,-47.967 2.925,-23.419 2.898,-0.287 2.924,10.626 2.925,19.897 5.822,45.25 2.925,2.454 2.924,1.618 2.898,-9.53 2.925,-5.457 2.925,-12.534 5.822,9.271 2.925,-1.359 2.923,-9.269 5.824,12.272 8.747,3.525 5.849,0.287 5.822,-1.357 8.747,1.07 5.823,-3.812 5.849,1.358 8.746,3.29 5.823,-8.46 5.85,2.715 8.747,1.097 8.747,-1.097 5.848,-2.454"
       style="fill:none;stroke:#ff0000;stroke-width:0.77600002;stroke-linecap:butt;stroke-linejoin:round;stroke-miterlimit:10;stroke-opacity:1;stroke-dasharray:2.3269, 2.3269;stroke-dashoffset:0"
       id="path554"
       inkscape:connector-curvature="0" /><text
       transform="matrix(1,0,0,-1,199.9601,571.1823)"
       id="text556"><tspan
         style="font-size:8px;font-variant:normal;font-weight:normal;writing-mode:lr-tb;fill:#000000;fill-opacity:1;fill-rule:nonzero;stroke:none;font-family:ArialMT;-inkscape-font-specification:ArialMT"
         x="0 4.888 6.664 13.328 17.775999 20 22.664 27.112 31.559999 35.560001 39.560001"
         y="0"
         sodipodi:role="line"
         id="tspan558">Time (days)</tspan></text>
<text
       transform="matrix(0,1,1,0,129.0283,625.6224)"
       id="text560"><tspan
         style="font-size:8px;font-variant:normal;font-weight:normal;writing-mode:lr-tb;fill:#000000;fill-opacity:1;fill-rule:nonzero;stroke:none;font-family:ArialMT;-inkscape-font-specification:ArialMT"
         x="0 5.776 10.224 16.888 21.336 23.559999 28.007999 32.007999 34.672001 36.448002 38.672001 40.896 43.560001 50.672001"
         y="0"
         sodipodi:role="line"
         id="tspan562">Hematocrit (%)</tspan></text>
<text
       transform="matrix(1,0,0,-1,240.1171,617.277)"
       id="text564"><tspan
         style="font-size:8px;font-variant:normal;font-weight:normal;writing-mode:lr-tb;fill:#000000;fill-opacity:1;fill-rule:nonzero;stroke:none;font-family:ArialMT;-inkscape-font-specification:ArialMT"
         x="0 5.336 7.112 13.776 18.224001 20 24.448 26.672001 28.448 32.896"
         y="0"
         sodipodi:role="line"
         id="tspan566">Simulation</tspan><tspan
         style="font-size:8px;font-variant:normal;font-weight:normal;writing-mode:lr-tb;fill:#000000;fill-opacity:1;fill-rule:nonzero;stroke:none;font-family:ArialMT;-inkscape-font-specification:ArialMT"
         x="0 5.336 9.3360004 13.784 18.232 20.896 22.672001 29.336 33.784 38.231998 40.456001"
         y="10.04"
         sodipodi:role="line"
         id="tspan568">Experiments</tspan></text>
<path
       d="m 230.325,619.765 7.338,0"
       style="fill:none;stroke:#0000ff;stroke-width:0.77600002;stroke-linecap:butt;stroke-linejoin:round;stroke-miterlimit:10;stroke-opacity:1;stroke-dasharray:none"
       id="path570"
       inkscape:connector-curvature="0" /><path
       d="m 230.325,609.726 7.338,0"
       style="fill:none;stroke:#ff0000;stroke-width:0.38800001;stroke-linecap:butt;stroke-linejoin:round;stroke-miterlimit:10;stroke-opacity:1;stroke-dasharray:2.3269, 2.3269;stroke-dashoffset:0"
       id="path572"
       inkscape:connector-curvature="0" /><path
       d="m 327.131,594.921 0,107.564 136.411,0 0,-107.564 -136.411,0"
       style="fill:none;stroke:#ffffff;stroke-width:0.189;stroke-linecap:butt;stroke-linejoin:round;stroke-miterlimit:10;stroke-opacity:1;stroke-dasharray:none"
       id="path574"
       inkscape:connector-curvature="0" /><path
       d="m 327.131,702.485 136.411,0 m -136.411,-107.564 136.411,0 0,107.564 m -136.411,-107.564 0,107.564 m 0,-107.564 136.411,0 m -136.411,0 0,107.564 m 11.346,-107.564 0,1.375 m 0,106.164 0,-1.348"
       style="fill:none;stroke:#000000;stroke-width:0.5;stroke-linecap:butt;stroke-linejoin:round;stroke-miterlimit:10;stroke-opacity:1;stroke-dasharray:none"
       id="path576"
       inkscape:connector-curvature="0" /><text
       transform="matrix(1,0,0,-1,336.1706,583.5162)"
       id="text578"><tspan
         style="font-size:8px;font-variant:normal;font-weight:normal;writing-mode:lr-tb;fill:#000000;fill-opacity:1;fill-rule:nonzero;stroke:none;font-family:ArialMT;-inkscape-font-specification:ArialMT"
         x="0"
         y="0"
         id="tspan580">0</tspan></text>
<path
       d="m 352.698,594.921 0,1.375 m 0,106.164 0,-1.348"
       style="fill:none;stroke:#000000;stroke-width:0.5;stroke-linecap:butt;stroke-linejoin:round;stroke-miterlimit:10;stroke-opacity:1;stroke-dasharray:none"
       id="path582"
       inkscape:connector-curvature="0" /><text
       transform="matrix(1,0,0,-1,350.4805,583.5162)"
       id="text584"><tspan
         style="font-size:8px;font-variant:normal;font-weight:normal;writing-mode:lr-tb;fill:#000000;fill-opacity:1;fill-rule:nonzero;stroke:none;font-family:ArialMT;-inkscape-font-specification:ArialMT"
         x="0"
         y="0"
         id="tspan586">5</tspan></text>
<path
       d="m 366.893,594.921 0,1.375 m 0,106.164 0,-1.348"
       style="fill:none;stroke:#000000;stroke-width:0.5;stroke-linecap:butt;stroke-linejoin:round;stroke-miterlimit:10;stroke-opacity:1;stroke-dasharray:none"
       id="path588"
       inkscape:connector-curvature="0" /><text
       transform="matrix(1,0,0,-1,362.6544,583.5162)"
       id="text590"><tspan
         style="font-size:8px;font-variant:normal;font-weight:normal;writing-mode:lr-tb;fill:#000000;fill-opacity:1;fill-rule:nonzero;stroke:none;font-family:ArialMT;-inkscape-font-specification:ArialMT"
         x="0 4.448"
         y="0"
         sodipodi:role="line"
         id="tspan592">10</tspan></text>
<path
       d="m 381.115,594.921 0,1.375 m 0,106.164 0,-1.348"
       style="fill:none;stroke:#000000;stroke-width:0.5;stroke-linecap:butt;stroke-linejoin:round;stroke-miterlimit:10;stroke-opacity:1;stroke-dasharray:none"
       id="path594"
       inkscape:connector-curvature="0" /><text
       transform="matrix(1,0,0,-1,376.9653,583.5162)"
       id="text596"><tspan
         style="font-size:8px;font-variant:normal;font-weight:normal;writing-mode:lr-tb;fill:#000000;fill-opacity:1;fill-rule:nonzero;stroke:none;font-family:ArialMT;-inkscape-font-specification:ArialMT"
         x="0 4.448"
         y="0"
         sodipodi:role="line"
         id="tspan598">15</tspan></text>
<path
       d="m 395.337,594.921 0,1.375 m 0,106.164 0,-1.348"
       style="fill:none;stroke:#000000;stroke-width:0.5;stroke-linecap:butt;stroke-linejoin:round;stroke-miterlimit:10;stroke-opacity:1;stroke-dasharray:none"
       id="path600"
       inkscape:connector-curvature="0" /><text
       transform="matrix(1,0,0,-1,391.2753,583.5162)"
       id="text602"><tspan
         style="font-size:8px;font-variant:normal;font-weight:normal;writing-mode:lr-tb;fill:#000000;fill-opacity:1;fill-rule:nonzero;stroke:none;font-family:ArialMT;-inkscape-font-specification:ArialMT"
         x="0 4.448"
         y="0"
         sodipodi:role="line"
         id="tspan604">20</tspan></text>
<path
       d="m 409.533,594.921 0,1.375 m 0,106.164 0,-1.348"
       style="fill:none;stroke:#000000;stroke-width:0.5;stroke-linecap:butt;stroke-linejoin:round;stroke-miterlimit:10;stroke-opacity:1;stroke-dasharray:none"
       id="path606"
       inkscape:connector-curvature="0" /><text
       transform="matrix(1,0,0,-1,405.5852,583.5162)"
       id="text608"><tspan
         style="font-size:8px;font-variant:normal;font-weight:normal;writing-mode:lr-tb;fill:#000000;fill-opacity:1;fill-rule:nonzero;stroke:none;font-family:ArialMT;-inkscape-font-specification:ArialMT"
         x="0 4.448"
         y="0"
         sodipodi:role="line"
         id="tspan610">25</tspan></text>
<path
       d="m 423.754,594.921 0,1.375 m 0,106.164 0,-1.348"
       style="fill:none;stroke:#000000;stroke-width:0.5;stroke-linecap:butt;stroke-linejoin:round;stroke-miterlimit:10;stroke-opacity:1;stroke-dasharray:none"
       id="path612"
       inkscape:connector-curvature="0" /><text
       transform="matrix(1,0,0,-1,419.8941,583.5162)"
       id="text614"><tspan
         style="font-size:8px;font-variant:normal;font-weight:normal;writing-mode:lr-tb;fill:#000000;fill-opacity:1;fill-rule:nonzero;stroke:none;font-family:ArialMT;-inkscape-font-specification:ArialMT"
         x="0 4.448"
         y="0"
         sodipodi:role="line"
         id="tspan616">30</tspan></text>
<path
       d="m 438.951,594.921 0,1.375 m 0,106.164 0,-1.348"
       style="fill:none;stroke:#000000;stroke-width:0.5;stroke-linecap:butt;stroke-linejoin:round;stroke-miterlimit:10;stroke-opacity:1;stroke-dasharray:none"
       id="path618"
       inkscape:connector-curvature="0" /><text
       transform="matrix(1,0,0,-1,434.204,583.5162)"
       id="text620"><tspan
         style="font-size:8px;font-variant:normal;font-weight:normal;writing-mode:lr-tb;fill:#000000;fill-opacity:1;fill-rule:nonzero;stroke:none;font-family:ArialMT;-inkscape-font-specification:ArialMT"
         x="0 4.448"
         y="0"
         sodipodi:role="line"
         id="tspan622">35</tspan></text>
<path
       d="m 453.172,594.921 0,1.375 m 0,106.164 0,-1.348"
       style="fill:none;stroke:#000000;stroke-width:0.5;stroke-linecap:butt;stroke-linejoin:round;stroke-miterlimit:10;stroke-opacity:1;stroke-dasharray:none"
       id="path624"
       inkscape:connector-curvature="0" /><text
       transform="matrix(1,0,0,-1,449.514,583.5162)"
       id="text626"><tspan
         style="font-size:8px;font-variant:normal;font-weight:normal;writing-mode:lr-tb;fill:#000000;fill-opacity:1;fill-rule:nonzero;stroke:none;font-family:ArialMT;-inkscape-font-specification:ArialMT"
         x="0 4.448"
         y="0"
         sodipodi:role="line"
         id="tspan628">40</tspan></text>
<g
       id="g630"><g
         id="g632"
         clip-path="url(#clipPath634)"><path
           d="m 327.131,594.921 1.348,0 m 136.063,0 -1.372,0"
           style="fill:none;stroke:#000000;stroke-width:0.5;stroke-linecap:butt;stroke-linejoin:round;stroke-miterlimit:10;stroke-opacity:1;stroke-dasharray:none"
           id="path638"
           inkscape:connector-curvature="0" /></g></g><text
       transform="matrix(1,0,0,-1,317.4136,593.1171)"
       id="text640"><tspan
         style="font-size:8px;font-variant:normal;font-weight:normal;writing-mode:lr-tb;fill:#000000;fill-opacity:1;fill-rule:nonzero;stroke:none;font-family:ArialMT;-inkscape-font-specification:ArialMT"
         x="0"
         y="0"
         id="tspan642">2</tspan></text>
<g
       id="g644"><g
         id="g646"
         clip-path="url(#clipPath648)"><path
           d="m 327.131,606.88 1.348,0 m 136.063,0 -1.372,0"
           style="fill:none;stroke:#000000;stroke-width:0.5;stroke-linecap:butt;stroke-linejoin:round;stroke-miterlimit:10;stroke-opacity:1;stroke-dasharray:none"
           id="path652"
           inkscape:connector-curvature="0" /></g></g><text
       transform="matrix(1,0,0,-1,317.4136,604.9451)"
       id="text654"><tspan
         style="font-size:8px;font-variant:normal;font-weight:normal;writing-mode:lr-tb;fill:#000000;fill-opacity:1;fill-rule:nonzero;stroke:none;font-family:ArialMT;-inkscape-font-specification:ArialMT"
         x="0"
         y="0"
         id="tspan656">3</tspan></text>
<g
       id="g658"><g
         id="g660"
         clip-path="url(#clipPath662)"><path
           d="m 327.131,618.836 1.348,0 m 136.063,0 -1.372,0"
           style="fill:none;stroke:#000000;stroke-width:0.5;stroke-linecap:butt;stroke-linejoin:round;stroke-miterlimit:10;stroke-opacity:1;stroke-dasharray:none"
           id="path666"
           inkscape:connector-curvature="0" /></g></g><text
       transform="matrix(1,0,0,-1,317.4136,616.772)"
       id="text668"><tspan
         style="font-size:8px;font-variant:normal;font-weight:normal;writing-mode:lr-tb;fill:#000000;fill-opacity:1;fill-rule:nonzero;stroke:none;font-family:ArialMT;-inkscape-font-specification:ArialMT"
         x="0"
         y="0"
         id="tspan670">4</tspan></text>
<g
       id="g672"><g
         id="g674"
         clip-path="url(#clipPath676)"><path
           d="m 327.131,630.768 1.348,0 m 136.063,0 -1.372,0"
           style="fill:none;stroke:#000000;stroke-width:0.5;stroke-linecap:butt;stroke-linejoin:round;stroke-miterlimit:10;stroke-opacity:1;stroke-dasharray:none"
           id="path680"
           inkscape:connector-curvature="0" /></g></g><text
       transform="matrix(1,0,0,-1,317.4136,628.5989)"
       id="text682"><tspan
         style="font-size:8px;font-variant:normal;font-weight:normal;writing-mode:lr-tb;fill:#000000;fill-opacity:1;fill-rule:nonzero;stroke:none;font-family:ArialMT;-inkscape-font-specification:ArialMT"
         x="0"
         y="0"
         id="tspan684">5</tspan></text>
<g
       id="g686"><g
         id="g688"
         clip-path="url(#clipPath690)"><path
           d="m 327.131,642.725 1.348,0 m 136.063,0 -1.372,0"
           style="fill:none;stroke:#000000;stroke-width:0.5;stroke-linecap:butt;stroke-linejoin:round;stroke-miterlimit:10;stroke-opacity:1;stroke-dasharray:none"
           id="path694"
           inkscape:connector-curvature="0" /></g></g><text
       transform="matrix(1,0,0,-1,317.4136,640.4271)"
       id="text696"><tspan
         style="font-size:8px;font-variant:normal;font-weight:normal;writing-mode:lr-tb;fill:#000000;fill-opacity:1;fill-rule:nonzero;stroke:none;font-family:ArialMT;-inkscape-font-specification:ArialMT"
         x="0"
         y="0"
         id="tspan698">6</tspan></text>
<g
       id="g700"><g
         id="g702"
         clip-path="url(#clipPath704)"><path
           d="m 327.131,654.683 1.348,0 m 136.063,0 -1.372,0"
           style="fill:none;stroke:#000000;stroke-width:0.5;stroke-linecap:butt;stroke-linejoin:round;stroke-miterlimit:10;stroke-opacity:1;stroke-dasharray:none"
           id="path708"
           inkscape:connector-curvature="0" /></g></g><text
       transform="matrix(1,0,0,-1,317.4136,652.2546)"
       id="text710"><tspan
         style="font-size:8px;font-variant:normal;font-weight:normal;writing-mode:lr-tb;fill:#000000;fill-opacity:1;fill-rule:nonzero;stroke:none;font-family:ArialMT;-inkscape-font-specification:ArialMT"
         x="0"
         y="0"
         id="tspan712">7</tspan></text>
<g
       id="g714"><g
         id="g716"
         clip-path="url(#clipPath718)"><path
           d="m 327.131,666.614 1.348,0 m 136.063,0 -1.372,0"
           style="fill:none;stroke:#000000;stroke-width:0.5;stroke-linecap:butt;stroke-linejoin:round;stroke-miterlimit:10;stroke-opacity:1;stroke-dasharray:none"
           id="path722"
           inkscape:connector-curvature="0" /></g></g><text
       transform="matrix(1,0,0,-1,317.4136,664.0822)"
       id="text724"><tspan
         style="font-size:8px;font-variant:normal;font-weight:normal;writing-mode:lr-tb;fill:#000000;fill-opacity:1;fill-rule:nonzero;stroke:none;font-family:ArialMT;-inkscape-font-specification:ArialMT"
         x="0"
         y="0"
         id="tspan726">8</tspan></text>
<g
       id="g728"><g
         id="g730"
         clip-path="url(#clipPath732)"><path
           d="m 327.131,678.571 1.348,0 m 136.063,0 -1.372,0"
           style="fill:none;stroke:#000000;stroke-width:0.5;stroke-linecap:butt;stroke-linejoin:round;stroke-miterlimit:10;stroke-opacity:1;stroke-dasharray:none"
           id="path736"
           inkscape:connector-curvature="0" /></g></g><text
       transform="matrix(1,0,0,-1,317.4136,675.9103)"
       id="text738"><tspan
         style="font-size:8px;font-variant:normal;font-weight:normal;writing-mode:lr-tb;fill:#000000;fill-opacity:1;fill-rule:nonzero;stroke:none;font-family:ArialMT;-inkscape-font-specification:ArialMT"
         x="0"
         y="0"
         id="tspan740">9</tspan></text>
<g
       id="g742"><g
         id="g744"
         clip-path="url(#clipPath746)"><path
           d="m 327.131,690.528 1.348,0 m 136.063,0 -1.372,0"
           style="fill:none;stroke:#000000;stroke-width:0.5;stroke-linecap:butt;stroke-linejoin:round;stroke-miterlimit:10;stroke-opacity:1;stroke-dasharray:none"
           id="path750"
           inkscape:connector-curvature="0" /></g></g><text
       transform="matrix(1,0,0,-1,313.1437,687.7373)"
       id="text752"><tspan
         style="font-size:8px;font-variant:normal;font-weight:normal;writing-mode:lr-tb;fill:#000000;fill-opacity:1;fill-rule:nonzero;stroke:none;font-family:ArialMT;-inkscape-font-specification:ArialMT"
         x="0 4.448"
         y="0"
         sodipodi:role="line"
         id="tspan754">10</tspan></text>
<g
       id="g756"><g
         id="g758"
         clip-path="url(#clipPath760)"><path
           d="m 327.131,702.46 1.348,0 m 136.063,0 -1.372,0"
           style="fill:none;stroke:#000000;stroke-width:0.5;stroke-linecap:butt;stroke-linejoin:round;stroke-miterlimit:10;stroke-opacity:1;stroke-dasharray:none"
           id="path764"
           inkscape:connector-curvature="0" /></g></g><text
       transform="matrix(1,0,0,-1,313.1437,699.5653)"
       id="text766"><tspan
         style="font-size:8px;font-variant:normal;font-weight:normal;writing-mode:lr-tb;fill:#000000;fill-opacity:1;fill-rule:nonzero;stroke:none;font-family:ArialMT;-inkscape-font-specification:ArialMT"
         x="0 4.448"
         y="0"
         sodipodi:role="line"
         id="tspan768">11</tspan><tspan
         style="font-size:8px;font-variant:normal;font-weight:normal;writing-mode:lr-tb;fill:#000000;fill-opacity:1;fill-rule:nonzero;stroke:none;font-family:ArialMT;-inkscape-font-specification:ArialMT"
         x="13.9872 17.9872 20.211201 24.659201"
         y="-6.2680001"
         sodipodi:role="line"
         id="tspan770">x 10</tspan></text>
<text
       transform="matrix(1,0,0,-1,342.2515,708.8329)"
       id="text772"><tspan
         style="font-size:6px;font-variant:normal;font-weight:normal;writing-mode:lr-tb;fill:#000000;fill-opacity:1;fill-rule:nonzero;stroke:none;font-family:ArialMT;-inkscape-font-specification:ArialMT"
         x="0"
         y="0"
         id="tspan774">7</tspan></text>
<path
       d="m 327.131,702.485 136.411,0 m -136.411,-107.564 136.411,0 0,107.564 m -136.411,-107.564 0,107.564"
       style="fill:none;stroke:#000000;stroke-width:0.5;stroke-linecap:butt;stroke-linejoin:round;stroke-miterlimit:10;stroke-opacity:1;stroke-dasharray:none"
       id="path776"
       inkscape:connector-curvature="0" /><path
       d="m 378.292,663.663 0.075,0.076 0.255,0.28 0.355,0.407 0.358,0.433 0.356,0.432 0.712,0.967 0.357,0.509 0.355,0.534 0.56,0.84 0.535,0.89 0.56,0.916 0.558,0.941 0.586,0.992 0.636,1.069 0.661,1.119 0.789,1.272 0.789,1.196 0.787,1.145 0.738,0.916 0.612,0.712 0.56,0.559 0.533,0.484 0.535,0.382 0.534,0.331 0.535,0.254 0.533,0.178 0.535,0.102 0.56,0.026 0.584,-0.026 0.585,-0.102 0.637,-0.204 0.66,-0.279 0.713,-0.407 0.789,-0.51 0.866,-0.66 0.967,-0.815 0.965,-0.89 0.994,-0.941 0.992,-0.968 1.044,-1.017 1.068,-0.991 1.118,-0.994 1.171,-0.941 1.194,-0.865 1.197,-0.712 1.121,-0.535 1.014,-0.356 0.994,-0.255 0.942,-0.126 0.89,-0.026 0.865,0.077 0.839,0.127 0.815,0.229 0.788,0.255 0.789,0.331 0.788,0.38 0.789,0.408 0.79,0.458 0.787,0.509 0.839,0.56 1.807,1.22 1.069,0.687 1.094,0.687 1.169,0.662 1.196,0.584 1.019,0.407 0.89,0.28 0.839,0.204 0.814,0.127 0.789,0.077 0.814,0 0.84,-0.051 0.84,-0.102 0.864,-0.178 0.941,-0.229 0.967,-0.305 1.018,-0.357 1.144,-0.432 1.222,-0.509 1.323,-0.535 1.373,-0.558 1.4,-0.536 1.475,-0.482 1.578,-0.432 1.652,-0.331 1.426,-0.153 1.248,-0.077 1.119,0.026 1.042,0.076 1.069,0.128 1.068,0.152 1.044,0.229 1.093,0.229 1.121,0.305 1.169,0.306 1.068,0.305 1.093,0.28 m -91.076,-12.619 0.05,-0.025 0.026,0 0.051,-0.025 0.025,0 0.052,-0.026 0.075,0 0.05,-0.026 0.103,0 0.05,-0.025 0.078,0 0.051,-0.026 0.178,0 0.05,-0.025 0.737,0 0.052,0.025 0.127,0 0.077,0.026 0.151,0 0.052,0.025 0.052,0 0.024,0.026 0.076,0 0.077,0.026 0.051,0 0.077,0.025 0.024,0 0.026,0.025 0.025,0 0.077,0.026 0.075,0.025 0.052,0.026 0.075,0.025 0.076,0.026 0.078,0.025 0.075,0.026 0.051,0.025 0.077,0.025 0.076,0.026 0.077,0.051 0.076,0.025 0.05,0.025 0.077,0.051 0.077,0.025 0.076,0.052 0.077,0.05 0.05,0.026 0.076,0.051 0.154,0.076 0.076,0.051 0.05,0.051 0.076,0.025 0.153,0.102 0.052,0.051 0.024,0.025 0.078,0.051 0.051,0.026 0.152,0.127 0.052,0.051 0.024,0.026 0.077,0.051 0.051,0.05 0.202,0.178 0.026,0 0.051,0.051 0.076,0.076 0.203,0.204 0.025,0 0.077,0.076 0.255,0.255 0.026,0.025 m -9.973,0.788 0.025,0 0.051,-0.075 0.025,0 0.051,-0.102 0.077,-0.051 0,-0.026 0.075,-0.051 0,-0.025 0.077,-0.077 -0.024,0 0.024,0 0.076,-0.076 -0.025,0 0.025,0 0.051,-0.051 0,-0.026 0.077,-0.051 0,-0.024 0.075,-0.051 0,-0.026 0.078,-0.076 0.05,-0.051 0.027,-0.025 0.049,-0.051 0,-0.026 0.078,-0.05 0.05,-0.051 0.025,-0.026 0.05,-0.051 0.026,-0.025 0.077,-0.051 0.051,-0.051 0,-0.026 0.075,-0.05 0.128,-0.128 0.025,0 0.051,-0.076 0.027,0 0.051,-0.051 0.074,-0.076 0.079,-0.051 -0.027,0 0.027,0 0.049,-0.05 0.027,0 0.128,-0.128 0.049,-0.025 0.026,-0.026 0.076,-0.051 -0.025,0 0.025,0 0.05,-0.051 0.027,0 0.05,-0.051 0.076,-0.025 0,-0.025 0.077,-0.025 0,-0.026 0.05,-0.026 0.026,-0.025 0.076,-0.026 0.052,-0.05 0.077,-0.051 0.049,-0.026 0.025,-0.025 0.053,-0.026 0.023,0 0.053,-0.051 0.025,0 0.051,-0.05 0.075,-0.026 0.052,-0.026 0.025,-0.025 0.05,-0.026 0.026,0 0.051,-0.025 0.026,0 0.05,-0.05 0.076,-0.026 0.053,-0.025 0.024,0 0.05,-0.026 0.026,-0.025 0.051,-0.026 0.076,-0.025 0.053,-0.025 0.024,0 0.051,-0.026 0.024,0 0.051,-0.025 0.027,0 0.051,-0.026 0.152,-0.051 0.077,0 m -7.684,8.344 0.053,-0.075 0.024,-0.026 0,-0.025 0.052,-0.102 0.024,-0.026 0.051,-0.102 0.025,-0.025 0.052,-0.076 0,-0.026 0.024,-0.025 0.052,-0.076 0,-0.027 0.076,-0.101 0,-0.025 0.051,-0.102 0.025,-0.025 0.051,-0.102 0.026,-0.026 0.05,-0.102 0.025,-0.024 0.051,-0.077 0,-0.025 0.076,-0.102 0,-0.025 0.051,-0.102 0.026,-0.026 0.077,-0.102 0.05,-0.102 0,-0.025 0.076,-0.101 0,-0.026 0.078,-0.076 0,-0.026 0.05,-0.102 0.026,-0.025 0.05,-0.076 0.027,-0.025 0.051,-0.102 0,-0.026 0.076,-0.076 0,-0.025 0.075,-0.102 0.051,-0.102 0.026,-0.026 0.051,-0.077 0.025,-0.024 0.051,-0.078 0,-0.025 0.05,-0.075 0.026,-0.026 0.051,-0.102 0.025,-0.025 0.05,-0.077 0.029,-0.025 0.049,-0.076 0,-0.026 0.076,-0.076 0,-0.026 0.077,-0.076 0,-0.025 0.051,-0.076 0.025,-0.026 0.051,-0.077 0.025,-0.025 0.052,-0.077 0,-0.025 0.076,-0.076 0,-0.025 0.075,-0.077 0,-0.025 0.051,-0.076 0.102,-0.102 0.051,-0.076 0,-0.025 0.077,-0.077 0,-0.025 0.076,-0.077 0,-0.025 0.076,-0.077 -0.027,0 0.027,0 0.052,-0.076 0.024,-0.026 0.052,-0.076 0.076,-0.076 0,-0.025 0.075,-0.078 0.052,-0.075 0.102,-0.102 -0.026,0 0.026,0 0.051,-0.076 0,-0.026 0.075,-0.051 0,-0.025 0.077,-0.077 -0.025,0 m -6.361,10.966 0.052,-0.102 0,-0.051 0.076,-0.102 0,-0.051 0.025,-0.05 0.026,-0.077 0.023,-0.025 0.053,-0.102 0.025,-0.025 0.051,-0.128 0,-0.026 0.025,-0.025 0.051,-0.102 0,-0.025 0.025,-0.025 0.052,-0.102 0,-0.026 0.025,-0.05 0.05,-0.077 0,-0.025 0.053,-0.102 0,-0.026 0.025,-0.025 0.05,-0.102 0,-0.025 0.026,-0.025 0.05,-0.101 0,-0.027 0.027,-0.025 0.052,-0.101 0,-0.027 0.024,-0.05 0.051,-0.076 0,-0.027 0.049,-0.101 0,-0.025 0.028,-0.025 0.048,-0.102 0.028,-0.051 0.05,-0.102 0,-0.026 0.075,-0.101 0,-0.026 0.027,-0.076 0.024,-0.051 0.026,-0.051 0.051,-0.101 0.025,-0.026 0.051,-0.102 0,-0.026 0.027,-0.025 0.05,-0.101 0,-0.025 0.051,-0.102 0.025,-0.026 0,-0.025 0.051,-0.102 0.027,-0.026 0.05,-0.101 0,-0.025 0.025,-0.027 0.051,-0.101 0.024,-0.025 0.054,-0.102 0,-0.051 0.05,-0.102 0.025,-0.026 0.051,-0.101 0.025,-0.025 0.051,-0.102 0,-0.026 0.026,-0.025 0.05,-0.102 0,-0.026 0.077,-0.101 0,-0.026 0.05,-0.102 0.026,-0.024 0,-0.026 0.05,-0.077 0,-0.025 0.027,-0.025 0.049,-0.102 0.027,-0.026 0.051,-0.101 0,-0.026 0.076,-0.102 0,-0.025 0.05,-0.103 0.025,-0.025 0,-0.024 0.053,-0.077 0,-0.025 0.023,-0.025 0.053,-0.077 0,-0.026 0.024,-0.025 0.051,-0.102 0,-0.026 m -6.181,12.95 0,-0.026 0.077,-0.126 0,-0.026 0.049,-0.127 0.025,-0.026 0.053,-0.127 0.023,-0.026 0.053,-0.127 0,-0.025 0.076,-0.127 0,-0.026 0.075,-0.126 0,-0.026 0.052,-0.127 0.025,-0.025 0.05,-0.128 0.026,-0.025 0.051,-0.129 0,-0.024 0.076,-0.129 0,-0.024 0.076,-0.127 0,-0.025 0.077,-0.153 -0.024,0 0.024,0 0.05,-0.127 0,-0.025 0.027,-0.026 0.05,-0.102 0,-0.051 0.078,-0.128 0,-0.024 0.075,-0.128 0,-0.025 0.051,-0.128 0.024,-0.024 0.051,-0.129 0.027,-0.024 0.051,-0.127 0,-0.026 0.076,-0.127 0,-0.026 0.076,-0.153 0,-0.024 0.052,-0.128 0.025,-0.025 0.05,-0.128 0.027,-0.025 0.05,-0.128 0,-0.024 0.077,-0.129 0,-0.024 0.077,-0.128 0,-0.025 0.049,-0.127 0.026,-0.026 0.05,-0.127 0,-0.051 0.078,-0.101 0,-0.051 0.076,-0.128 0,-0.025 0.051,-0.128 0.023,-0.025 0.051,-0.128 0.027,-0.024 0.051,-0.127 0,-0.026 0.076,-0.127 0,-0.026 0.077,-0.127 0,-0.025 0.076,-0.153 -0.025,0 0.025,0 0.05,-0.127 0,-0.026 0.026,-0.025 0.052,-0.102 0,-0.05 0.076,-0.127 0,-0.026 0.075,-0.127 0,-0.026 0.053,-0.127 0.025,-0.026 0.049,-0.127 0.026,-0.026 0.05,-0.127 0,-0.025 0.078,-0.126 0,-0.027 0.075,-0.126 0,-0.027 0.051,-0.126 0.026,-0.027 0.051,-0.126 0.025,-0.025 m -6.767,13.56 0.077,-0.078 0,-0.024 0.05,-0.077 0.026,-0.025 0.049,-0.077 0.027,-0.025 0.051,-0.076 0,-0.026 0.077,-0.076 0,-0.025 0.076,-0.102 0.052,-0.102 0.023,-0.025 0.052,-0.077 0.025,-0.025 0.051,-0.101 0,-0.027 0.077,-0.075 0,-0.026 0.076,-0.102 0,-0.025 0.075,-0.101 0.078,-0.129 -0.026,0 0.026,0 0.05,-0.101 0,-0.025 0.077,-0.102 0,-0.026 0.076,-0.101 0,-0.026 0.051,-0.103 0.025,-0.024 0.051,-0.102 0.025,-0.025 0.051,-0.102 0,-0.025 0.077,-0.102 0,-0.026 0.075,-0.102 0,-0.025 0.051,-0.102 0.027,-0.025 0.076,-0.128 -0.026,0 0.026,0 0.049,-0.126 0,-0.026 0.078,-0.102 0,-0.025 0.076,-0.127 -0.025,0 0.025,0 0.051,-0.128 0.026,-0.025 0.051,-0.102 0,-0.025 0.076,-0.102 0,-0.051 0.051,-0.102 0.027,-0.025 0.05,-0.102 0,-0.025 0.024,-0.026 0.051,-0.101 0.025,-0.026 0.053,-0.127 0,-0.026 0.076,-0.102 0,-0.025 0.075,-0.127 0,-0.025 0.077,-0.128 -0.026,0 0.026,0 0.05,-0.127 0.027,-0.026 0.05,-0.127 0,-0.025 0.077,-0.127 0,-0.025 0.076,-0.102 0,-0.025 0.051,-0.128 0.025,-0.026 0.051,-0.127 0.026,-0.025 0.05,-0.127 0,-0.026 0.076,-0.102 0,-0.051 0.053,-0.102 0.024,-0.025 0,-0.025 0.051,-0.101 0.024,-0.026 0.051,-0.127 0.026,-0.026 0.052,-0.127 m -7.328,8.243 0.027,0.025 0.05,0.051 0.025,0.026 0.051,0.051 0.025,0.024 0.025,0.027 0.028,0.024 0.049,0.026 0.026,0.025 0.051,0.027 0.024,0.024 0.052,0.026 0.026,0 0.051,0.051 0.025,0 0.025,0.025 0.026,0 0.051,0.026 0.101,0 0.05,0.024 0.229,0 0.053,-0.024 0.1,0 0.051,-0.026 0.053,-0.025 0.025,-0.026 0.051,-0.025 0.024,0 0.051,-0.026 0.024,0 0.053,-0.051 0.076,-0.051 0.05,-0.024 0.027,0 0.05,-0.051 0.026,0 0.049,-0.051 0.027,0 0.05,-0.051 0.051,-0.026 0.026,-0.025 0.051,-0.026 0.024,0 0.052,-0.051 0.024,0 0.051,-0.051 0.027,0 0.05,-0.051 0.051,-0.05 0.025,-0.025 0.053,-0.026 0.024,-0.026 0.077,-0.051 -0.025,0 0.025,0 0.049,-0.05 0.079,-0.051 0,-0.025 0.076,-0.051 0.05,-0.051 0.026,-0.026 0.051,-0.051 0.025,0 0.051,-0.076 0.078,-0.051 0,-0.026 0.075,-0.051 0,-0.025 0.075,-0.05 0.052,-0.077 0.026,0 0.05,-0.076 0.075,-0.076 0.051,-0.077 0.028,-0.026 0.05,-0.05 0.025,-0.025 0.051,-0.077 0.025,0 0.052,-0.101 0.076,-0.051 0,-0.026 0.075,-0.076 0,-0.026 0.077,-0.076 0.076,-0.101 -0.025,0 0.025,0 0.051,-0.077 0,-0.025 m -6.895,-8.497 0,0.076 0.078,0.33 0,0.101 0.052,0.332 0.025,0.024 0,0.052 0.049,0.331 0,0.025 0.025,0.052 0.053,0.329 0,0.077 0.076,0.305 0,0.077 0.05,0.305 0.025,0.026 0,0.051 0.052,0.304 0.025,0.078 0.051,0.278 0,0.026 0.025,0.052 0.05,0.279 0,0.077 0.078,0.279 0,0.051 0.076,0.28 0,0.076 0.05,0.255 0,0.025 0.026,0.026 0.052,0.279 0.025,0.052 0.049,0.254 0,0.051 0.077,0.255 0,0.05 0.077,0.254 0,0.05 0.051,0.23 0.024,0.052 0.051,0.228 0.026,0.05 0.051,0.203 0,0.053 0.076,0.203 0,0.051 0.051,0.203 0.026,0.025 0,0.026 0.051,0.178 0,0.026 0.025,0.025 0,0.026 0.052,0.178 0.024,0.05 0.051,0.179 0,0.025 0.076,0.178 0,0.051 0.052,0.152 0.025,0.026 0,0.025 0.051,0.152 0,0.027 0.024,0.024 0.054,0.153 0,0.026 0.074,0.153 0,0.025 0.076,0.153 0,0.051 0.052,0.102 0,0.025 0.026,0.025 0.05,0.128 0.026,0.025 0.049,0.127 0,0.026 0.078,0.101 0,0.025 0.026,0.077 0.05,0.051 0,0.025 0.051,0.102 0.026,0.026 0.051,0.076 0,0.026 0.024,0.025 0.051,0.076 0.025,0.025 0.052,0.077 0,0.026 0.025,0.025 0.051,0.05 0,0.026 0.076,0.076 -0.025,0 0.025,0 0.051,0.077 m -5.901,-33.862 0,0.026 0.024,0.102 0.052,0.534 0,0.025 0.026,0.102 0.049,0.535 0,0.126 0.077,0.535 0,0.127 0.078,0.534 0,0.127 0.05,0.535 0,0.025 0.027,0.077 0.049,0.534 0,0.05 0.025,0.077 0.051,0.509 0,0.152 0.077,0.509 0,0.127 0.051,0.534 0.025,0.026 0,0.076 0.053,0.509 0,0.026 0.025,0.101 0.049,0.509 0,0.026 0.025,0.102 0.051,0.507 0,0.128 0.078,0.484 0,0.127 0.051,0.508 0.025,0.026 0,0.102 0.049,0.458 0,0.051 0.026,0.102 0.052,0.483 0,0.026 0.026,0.076 0.051,0.509 0,0.102 0.075,0.483 0,0.102 0.05,0.507 0.027,0.103 0.051,0.484 0,0.024 0.025,0.077 0.05,0.458 0,0.127 0.076,0.458 0,0.102 0.052,0.457 0.025,0.026 0,0.102 0.051,0.458 0.024,0.102 0.052,0.457 0,0.026 0.025,0.076 0.051,0.433 0,0.102 0.075,0.433 0,0.101 0.08,0.458 0,0.102 0.049,0.406 0,0.026 0.026,0.077 0.05,0.432 0,0.025 0.026,0.077 0.052,0.382 0,0.126 0.075,0.408 0,0.076 0.051,0.433 0.026,0 0,0.075 0.051,0.408 0.025,0.076 0.052,0.406 0.026,0.078 0.049,0.407 0,0.075 0.076,0.382 0,0.077 0.051,0.381 0.026,0.026 0,0.05 0.049,0.382 0.029,0.077 0.048,0.355 0.026,0.077 0.05,0.357 m -5.747,-49.076 0.05,0.458 0.026,0.025 0,0.102 0.051,0.459 0,0.025 0.024,0.127 0.053,0.434 0,0.049 0.024,0.103 0.051,0.482 0,0.128 0.076,0.483 0,0.128 0.052,0.482 0.025,0.026 0,0.075 0.05,0.485 0,0.051 0.025,0.101 0.051,0.459 0,0.051 0.026,0.1 0.051,0.51 0,0.102 0.076,0.508 0,0.128 0.05,0.483 0,0.027 0.027,0.101 0.051,0.508 0,0.026 0.025,0.101 0.052,0.485 0,0.126 0.075,0.534 0,0.127 0.077,0.509 0,0.127 0.051,0.509 0,0.026 0.025,0.102 0.05,0.507 0,0.052 0.025,0.076 0.052,0.51 0,0.127 0.076,0.533 0,0.128 0.076,0.534 0,0.126 0.051,0.51 0,0.026 0.026,0.102 0.051,0.534 0,0.025 0.025,0.101 0.051,0.51 0,0.177 0.078,0.509 0,0.128 0.05,0.559 0.024,0.026 0,0.102 0.051,0.509 0,0.025 0.027,0.101 0.051,0.561 0,0.024 0.025,0.102 0.05,0.534 0,0.153 0.077,0.534 0,0.128 0.076,0.56 0,0.101 0.051,0.534 0,0.051 0.024,0.102 0.052,0.534 0,0.026 0.026,0.102 0.05,0.534 0,0.153 0.077,0.534 0,0.127 0.049,0.56 0,0.025 0.029,0.102 0.049,0.534 0,0.025 0.025,0.102 0.052,0.535 0,0.126 0.076,0.535 0,0.152 0.051,0.509 0.026,0.026 0,0.127 0.05,0.534 m -5.673,-47.344 0.075,0.433 0,0.1 0.077,0.433 0.051,0.433 0,0.025 0.026,0.103 0.05,0.379 0,0.028 0.025,0.1 0.053,0.433 0.075,0.459 0,0.101 0.05,0.381 0.026,0.026 0,0.126 0.053,0.357 0,0.025 0.025,0.103 0.051,0.406 0,0.026 0.024,0.103 0.05,0.432 0.078,0.458 0,0.126 0.076,0.408 0,0.102 0.05,0.38 0,0.026 0.026,0.127 0.051,0.382 0,0.025 0.026,0.103 0.049,0.381 0,0.051 0.027,0.101 0.05,0.383 0,0.127 0.051,0.406 0.026,0.025 0,0.102 0.05,0.383 0,0.05 0.025,0.102 0.052,0.406 0,0.027 0.026,0.102 0.051,0.406 0,0.026 0.025,0.101 0.05,0.407 0,0.127 0.051,0.434 0.027,0.025 0,0.101 0.051,0.382 0,0.05 0.024,0.078 0.052,0.432 0,0.025 0.025,0.127 0.051,0.408 0,0.127 0.076,0.432 0,0.128 0.051,0.432 0.026,0.128 0.05,0.405 0,0.051 0.026,0.077 0.052,0.433 0,0.025 0.024,0.128 0.051,0.432 0,0.126 0.077,0.433 0,0.128 0.05,0.431 0,0.026 0.026,0.127 0.05,0.409 0,0.05 0.025,0.077 0.052,0.459 0,0.024 0.026,0.126 0.05,0.433 0,0.152 0.075,0.433 0,0.128 0.053,0.457 0,0.025 0.025,0.103 0.051,0.432 0,0.051 0.025,0.1 0.051,0.459 0,0.127 0.077,0.457 0,0.154 m -4.987,-24.345 0,-0.128 0.026,-0.026 0,-0.153 0.025,-0.025 0,-0.128 0.025,-0.024 0,-0.129 0.025,-0.023 0,-0.128 0.026,-0.025 0,-0.104 0.025,-0.025 0,-0.126 0.026,-0.024 0,-0.129 0.026,-0.026 0,-0.127 0.025,-0.025 0,-0.128 0.025,-0.024 0,-0.129 0.026,-0.024 0,-0.128 0.025,-0.024 0,-0.129 0.026,-0.025 0,-0.125 0.025,-0.028 0,-0.127 0.026,-0.024 0,-0.128 0.026,-0.025 0,-0.128 0.026,-0.025 0,-0.127 0.023,-0.027 0,-0.125 0.026,-0.027 0,-0.127 0.025,-0.025 0,-0.101 0.027,-0.027 0,-0.127 0.023,-0.025 0,-0.127 0.028,-0.025 0,-0.128 0.026,-0.025 0,-0.127 0.024,-0.027 0,-0.126 0.026,-0.026 0,-0.101 0.025,-0.026 0,-0.1 0.025,-0.026 0,-0.128 0.025,-0.026 0,-0.127 0.025,-0.026 0,-0.127 0.024,-0.025 0,-0.101 0.029,-0.027 0,-0.127 0.025,-0.024 0,-0.128 0.025,-0.026 0,-0.127 0.026,-0.023 0,-0.104 0.024,-0.025 0,-0.102 0.026,0.026 0,0.101 0.077,0.457 0.126,0.866 0.128,0.866 0.025,0.026 0,0.1 0.076,0.483 0.127,0.814 0,0.026 0.026,0.102 0.052,0.407 0.05,0.408 0,0.025 0.027,0.025 0,0.075 0.076,0.485 0.126,0.865 0.026,0.101 0.05,0.434 0.077,0.432 0,0.101 0.051,0.357 0,0.05 0.025,0.103 0.051,0.432 m -3.408,5.342 0.024,-0.025 0,-0.154 0.027,-0.025 0,-0.153 0.024,-0.025 0,-0.126 0.025,-0.027 0,-0.15 0.026,-0.027 0,-0.153 0.025,-0.026 0,-0.152 0.026,-0.025 0,-0.128 0.026,-0.025 0,-0.152 0.025,-0.027 0,-0.152 0.025,-0.026 0,-0.127 0.026,-0.024 0,-0.154 0.025,-0.025 0,-0.152 0.025,-0.027 0,-0.126 0.026,-0.026 0,-0.127 0.025,-0.026 0,-0.152 0.026,-0.024 0,-0.129 0.025,-0.026 0,-0.152 0.026,-0.026 0,-0.152 0.024,-0.026 0,-0.127 0.027,-0.025 0,-0.153 0.024,-0.024 0,-0.128 0.025,-0.024 0,-0.155 0.027,-0.025 0,-0.127 0.026,-0.025 0,-0.153 0.026,-0.026 0,-0.127 0.024,-0.025 0,-0.153 0.025,-0.025 0,-0.126 0.025,-0.028 0,-0.125 0.026,-0.026 0,-0.153 0.027,-0.025 0,-0.129 0.023,-0.024 0,-0.153 0.028,-0.025 0,-0.127 0.025,-0.026 0,-0.127 0.025,-0.024 0,-0.128 0.025,-0.026 0,-0.128 0.026,-0.025 0,-0.151 0.025,-0.028 0,-0.126 0.025,-0.026 0,-0.127 0.025,-0.025 0,-0.128 0.025,-0.025 0,-0.152 0.028,-0.027 0,-0.126 0.024,-0.024 0,-0.129 0.026,-0.025 0,-0.128 0.026,-0.025 0,-0.153 0.024,-0.025 0,-0.128 0.027,-0.025 0,-0.127 0.024,-0.025 0,-0.127 0.026,-0.026 0,-0.125 0.025,-0.029 0,-0.126 0.026,-0.024 m -2.518,17.146 0,-0.153 0.025,-0.025 0,-0.153 0.026,-0.025 0,-0.179 0.025,-0.026 0,-0.152 0.024,-0.026 0,-0.178 0.026,-0.025 0,-0.177 0.025,-0.026 0,-0.153 0.025,-0.025 0,-0.179 0.027,-0.024 0,-0.152 0.025,-0.028 0,-0.176 0.026,-0.028 0,-0.151 0.025,-0.025 0,-0.178 0.025,-0.026 0,-0.153 0.026,-0.024 0,-0.155 0.025,-0.024 0,-0.179 0.026,-0.025 0,-0.152 0.026,-0.026 0,-0.178 0.024,-0.025 0,-0.154 0.027,-0.024 0,-0.152 0.025,-0.027 0,-0.177 0.025,-0.027 0,-0.152 0.026,-0.025 0,-0.127 0.024,-0.026 0,-0.177 0.026,-0.026 0,-0.154 0.026,-0.025 0,-0.151 0.025,-0.026 0,-0.153 0.026,-0.024 0,-0.18 0.025,-0.024 0,-0.153 0.026,-0.026 0,-0.152 0.024,-0.025 0,-0.153 0.027,-0.026 0,-0.153 0.024,-0.026 0,-0.152 0.027,-0.026 0,-0.151 0.027,-0.026 0,-0.18 0.024,-0.022 0,-0.154 0.024,-0.027 0,-0.152 0.026,-0.024 0,-0.154 0.025,-0.025 0,-0.153 0.027,-0.025 0,-0.154 0.024,-0.024 0,-0.152 0.027,-0.027 0,-0.153 0.025,-0.024 0,-0.152 0.026,-0.027 0,-0.127 0.024,-0.025 0,-0.153 0.026,-0.025 0,-0.154 0.025,-0.024 0,-0.152 0.025,-0.026 0,-0.127 0.024,-0.027 0,-0.15 0.026,-0.027 0,-0.153 0.028,-0.026 0,-0.152 m -2.519,19.258 0.025,-0.025 0,-0.205 0.025,-0.024 0,-0.204 0.025,-0.026 0,-0.177 0.026,-0.026 0,-0.203 0.024,-0.025 0,-0.178 0.029,-0.025 0,-0.203 0.022,-0.027 0,-0.179 0.027,-0.024 0,-0.204 0.027,-0.024 0,-0.154 0.024,-0.026 0,-0.202 0.026,-0.027 0,-0.178 0.025,-0.024 0,-0.205 0.025,-0.024 0,-0.179 0.024,-0.025 0,-0.178 0.026,-0.026 0,-0.204 0.025,-0.024 0,-0.178 0.027,-0.026 0,-0.179 0.026,-0.024 0,-0.204 0.025,-0.026 0,-0.178 0.025,-0.025 0,-0.178 0.025,-0.026 0,-0.178 0.026,-0.024 0,-0.205 0.025,-0.025 0,-0.178 0.026,-0.026 0,-0.178 0.026,-0.025 0,-0.178 0.024,-0.026 0,-0.178 0.027,-0.024 0,-0.18 0.024,-0.025 0,-0.178 0.026,-0.026 0,-0.178 0.025,-0.024 0,-0.179 0.027,-0.026 0,-0.178 0.024,-0.025 0,-0.178 0.026,-0.026 0,-0.178 0.026,-0.025 0,-0.178 0.024,-0.026 0,-0.178 0.026,-0.025 0,-0.154 0.025,-0.025 0,-0.178 0.025,-0.026 0,-0.176 0.028,-0.026 0,-0.178 0.023,-0.026 0,-0.177 0.027,-0.026 0,-0.177 0.026,-0.027 0,-0.179 0.024,-0.025 0,-0.153 0.024,-0.024 0,-0.178 0.027,-0.026 0,-0.178 0.025,-0.027 0,-0.175 0.027,-0.028 0,-0.151 0.024,-0.025 0,-0.179 0.026,-0.026 0,-0.178 0.026,-0.025 m -2.519,21.828 0,-0.23 0.025,-0.024 0,-0.229 0.026,-0.026 0,-0.204 0.024,-0.051 0,-0.203 0.026,-0.025 0,-0.23 0.025,-0.025 0,-0.23 0.028,-0.024 0,-0.204 0.023,-0.025 0,-0.229 0.027,-0.025 0,-0.23 0.026,-0.025 0,-0.203 0.023,-0.026 0,-0.229 0.026,-0.025 0,-0.23 0.025,-0.025 0,-0.203 0.025,-0.026 0,-0.229 0.029,-0.025 0,-0.203 0.022,-0.026 0,-0.229 0.025,-0.026 0,-0.178 0.028,-0.025 0,-0.204 0.025,-0.025 0,-0.229 0.025,-0.025 0,-0.204 0.026,-0.025 0,-0.229 0.024,-0.025 0,-0.204 0.026,-0.026 0,-0.204 0.025,-0.024 0,-0.204 0.025,-0.026 0,-0.229 0.027,-0.025 0,-0.203 0.025,-0.026 0,-0.204 0.026,-0.025 0,-0.204 0.025,-0.025 0,-0.204 0.025,-0.025 0,-0.229 0.026,-0.026 0,-0.203 0.025,-0.025 0,-0.203 0.026,-0.028 0,-0.202 0.025,-0.026 0,-0.203 0.025,-0.025 0,-0.203 0.027,-0.027 0,-0.203 0.024,-0.025 0,-0.204 0.027,-0.025 0,-0.178 0.024,-0.027 0,-0.202 0.025,-0.026 0,-0.202 0.026,-0.027 0,-0.178 0.026,-0.025 0,-0.203 0.025,-0.025 0,-0.205 0.026,-0.024 0,-0.204 0.025,-0.025 0,-0.203 0.025,-0.027 0,-0.178 0.026,-0.027 0,-0.203 0.026,-0.026 0,-0.203 0.024,-0.023 0,-0.205 0.027,-0.025 0,-0.179 m -2.521,24.805 0.027,-0.026 0,-0.254 0.026,-0.025 0,-0.255 0.025,-0.051 0,-0.254 0.026,-0.025 0,-0.23 0.025,-0.025 0,-0.254 0.025,-0.026 0,-0.255 0.025,-0.024 0,-0.255 0.026,-0.025 0,-0.255 0.025,-0.025 0,-0.255 0.027,-0.025 0,-0.255 0.025,-0.025 0,-0.254 0.024,-0.026 0,-0.254 0.027,-0.026 0,-0.254 0.024,-0.025 0,-0.256 0.028,-0.025 0,-0.254 0.023,-0.024 0,-0.255 0.027,-0.027 0,-0.253 0.025,-0.026 0,-0.229 0.025,-0.05 0,-0.23 0.026,-0.024 0,-0.255 0.024,-0.026 0,-0.255 0.026,-0.025 0,-0.229 0.027,-0.025 0,-0.255 0.023,-0.025 0,-0.229 0.025,-0.051 0,-0.204 0.028,-0.025 0,-0.229 0.025,-0.051 0,-0.229 0.026,-0.025 0,-0.229 0.025,-0.051 0,-0.229 0.023,-0.025 0,-0.229 0.027,-0.026 0,-0.254 0.024,-0.026 0,-0.228 0.026,-0.026 0,-0.228 0.028,-0.052 0,-0.229 0.024,-0.025 0,-0.229 0.026,-0.026 0,-0.228 0.025,-0.026 0,-0.229 0.026,-0.051 0,-0.229 0.024,-0.025 0,-0.229 0.026,-0.026 0,-0.228 0.026,-0.026 0,-0.228 0.025,-0.026 0,-0.23 0.026,-0.026 0,-0.228 0.025,-0.025 0,-0.23 0.025,-0.024 0,-0.204 0.026,-0.026 0,-0.228 0.025,-0.026 0,-0.229 0.026,-0.026 0,-0.229 0.025,-0.025 0,-0.229 0.026,-0.025 m -2.52,28.595 0,-0.305 0.027,-0.026 0,-0.306 0.025,-0.025 0,-0.304 0.026,-0.027 0,-0.304 0.025,-0.026 0,-0.305 0.025,-0.026 0,-0.305 0.026,-0.025 0,-0.305 0.025,-0.026 0,-0.306 0.024,-0.025 0,-0.305 0.028,-0.026 0,-0.279 0.025,-0.052 0,-0.279 0.025,-0.051 0,-0.255 0.025,-0.025 0,-0.28 0.026,-0.051 0,-0.279 0.024,-0.026 0,-0.306 0.027,-0.024 0,-0.28 0.025,-0.052 0,-0.28 0.025,-0.024 0,-0.281 0.027,-0.051 0,-0.279 0.024,-0.026 0,-0.28 0.025,-0.025 0,-0.28 0.026,-0.051 0,-0.279 0.025,-0.026 0,-0.279 0.028,-0.052 0,-0.255 0.023,-0.05 0,-0.28 0.027,-0.025 0,-0.28 0.024,-0.026 0,-0.28 0.026,-0.025 0,-0.28 0.025,-0.051 0,-0.254 0.025,-0.051 0,-0.255 0.026,-0.05 0,-0.254 0.027,-0.05 0,-0.256 0.023,-0.051 0,-0.229 0.026,-0.025 0,-0.281 0.027,-0.024 0,-0.28 0.024,-0.026 0,-0.28 0.027,-0.025 0,-0.255 0.025,-0.051 0,-0.254 0.023,-0.025 0,-0.28 0.027,-0.026 0,-0.279 0.024,-0.026 0,-0.255 0.027,-0.05 0,-0.254 0.026,-0.026 0,-0.254 0.025,-0.051 0,-0.255 0.025,-0.025 0,-0.28 0.026,-0.025 0,-0.255 0.026,-0.025 0,-0.28 0.024,-0.025 0,-0.255 0.027,-0.026 0,-0.254 0.023,-0.05 0,-0.255 m -3.688,15.926 2.366,0 0.025,-0.077 0,0.026 0,-0.026 0.025,-0.05 0,-0.306 0.026,-0.025 m -2.874,0.458 0.432,0"
       style="fill:none;stroke:#0000ff;stroke-width:0.75599998;stroke-linecap:butt;stroke-linejoin:round;stroke-miterlimit:10;stroke-opacity:1;stroke-dasharray:none"
       id="path778"
       inkscape:connector-curvature="0" /><text
       transform="matrix(1,0,0,-1,375.1293,571.1823)"
       id="text780"><tspan
         style="font-size:8px;font-variant:normal;font-weight:normal;writing-mode:lr-tb;fill:#000000;fill-opacity:1;fill-rule:nonzero;stroke:none;font-family:ArialMT;-inkscape-font-specification:ArialMT"
         x="0 4.888 6.664 13.328 17.775999 20 22.664 27.112 31.559999 35.560001 39.560001"
         y="0"
         sodipodi:role="line"
         id="tspan782">Time (days)</tspan></text>
<text
       transform="matrix(0,1,1,0,306.8717,599.4161)"
       id="text784"><tspan
         style="font-size:8px;font-variant:normal;font-weight:normal;writing-mode:lr-tb;fill:#000000;fill-opacity:1;fill-rule:nonzero;stroke:none;font-family:ArialMT;-inkscape-font-specification:ArialMT"
         x="0 5.336 8 12 14.224 18.672001 21.336 25.784 29.784 33.784 36.007999 40.456001 42.68 48.456001 52.903999 57.352001 61.352001 63.127998 65.351997 69.351997 71.575996 74.239998 78.239998 82.688004 84.463997 86.239998 90.239998 92.463997"
         y="0"
         sodipodi:role="line"
         id="tspan786">Erythrocyte Density (cells.g</tspan></text>
<text
       transform="matrix(0,1,1,0,303.8717,696.334)"
       id="text788"><tspan
         style="font-size:6px;font-variant:normal;font-weight:normal;writing-mode:lr-tb;fill:#000000;fill-opacity:1;fill-rule:nonzero;stroke:none;font-family:ArialMT;-inkscape-font-specification:ArialMT"
         x="0 1.998"
         y="0"
         sodipodi:role="line"
         id="tspan790">-1</tspan></text>
<text
       transform="matrix(0,1,1,0,306.8717,701.6689)"
       id="text792"><tspan
         style="font-size:8px;font-variant:normal;font-weight:normal;writing-mode:lr-tb;fill:#000000;fill-opacity:1;fill-rule:nonzero;stroke:none;font-family:ArialMT;-inkscape-font-specification:ArialMT"
         x="0"
         y="0"
         id="tspan794">)</tspan></text>
<path
       d="m 285.831,603.672 -58.141,0 0,21.517 58.141,0 0,-21.517 z"
       style="fill:none;stroke:#000000;stroke-width:0.5;stroke-linecap:butt;stroke-linejoin:miter;stroke-miterlimit:4;stroke-opacity:1;stroke-dasharray:none"
       id="path796"
       inkscape:connector-curvature="0" /><g
       id="g798"><g
         id="g800"
         clip-path="url(#clipPath802)"><path
           d="m 121.013,715.132 3.287,8.593 1.246,0 3.515,-8.593 -1.295,0 -0.987,2.609 -3.618,0 -0.942,-2.609 -1.206,0 z m 2.468,3.531 2.937,0 -0.901,2.378 c -0.269,0.725 -0.476,1.322 -0.618,1.794 -0.117,-0.559 -0.275,-1.11 -0.475,-1.652 l -0.943,-2.52"
           style="fill:#000000;fill-opacity:1;fill-rule:nonzero;stroke:none"
           id="path806"
           inkscape:connector-curvature="0" /></g></g><path
       d="m 296.747,715.132 0,8.593 3.219,0 c 0.655,0 1.18,-0.086 1.577,-0.26 0.395,-0.174 0.706,-0.441 0.93,-0.802 0.224,-0.361 0.336,-0.738 0.336,-1.133 0,-0.367 -0.099,-0.712 -0.3,-1.036 -0.2,-0.324 -0.502,-0.585 -0.907,-0.784 0.524,-0.153 0.926,-0.413 1.207,-0.781 0.282,-0.368 0.422,-0.802 0.422,-1.303 0,-0.403 -0.085,-0.777 -0.255,-1.124 -0.17,-0.346 -0.38,-0.613 -0.63,-0.801 -0.25,-0.188 -0.562,-0.33 -0.939,-0.426 -0.377,-0.095 -0.839,-0.143 -1.386,-0.143 l -3.274,0 z m 1.14,4.984 1.849,0 c 0.502,0 0.861,0.033 1.079,0.1 0.287,0.086 0.504,0.228 0.651,0.427 0.145,0.199 0.218,0.449 0.218,0.749 0,0.286 -0.068,0.536 -0.204,0.753 -0.135,0.216 -0.331,0.365 -0.583,0.445 -0.253,0.08 -0.686,0.12 -1.301,0.12 l -1.709,0 0,-2.594 z m 0,-3.969 2.139,0 c 0.367,0 0.625,0.014 0.774,0.041 0.261,0.047 0.48,0.125 0.656,0.235 0.176,0.109 0.32,0.268 0.433,0.477 0.114,0.209 0.17,0.45 0.17,0.724 0,0.32 -0.085,0.599 -0.255,0.835 -0.168,0.236 -0.399,0.402 -0.688,0.498 -0.29,0.096 -0.707,0.143 -1.251,0.143 l -1.978,0 0,-2.953"
       style="fill:#000000;fill-opacity:1;fill-rule:nonzero;stroke:none"
       id="path808"
       inkscape:connector-curvature="0" /></g></svg>